<svg width="36" height="40" viewBox="0 0 36 40" fill="none" xmlns="http://www.w3.org/2000/svg">
<ellipse cx="21.9623" cy="15" rx="13.7264" ry="15" fill="#9FD4FF"/>
<path d="M26.9528 25C26.9528 33.0508 20.9903 39.5 13.7264 39.5C6.4625 39.5 0.5 33.0508 0.5 25C0.5 16.9492 6.4625 10.5 13.7264 10.5C20.9903 10.5 26.9528 16.9492 26.9528 25Z" stroke="black"/>
<path d="M12.3798 31.192C11.6865 31.192 11.0838 31.1013 10.5718 30.92C10.0598 30.728 9.62251 30.4987 9.25984 30.232L9.91584 29.032C10.2145 29.256 10.5612 29.4533 10.9558 29.624C11.3505 29.7947 11.8305 29.88 12.3958 29.88C13.0998 29.88 13.6545 29.6933 14.0598 29.32C14.4758 28.9467 14.6838 28.4827 14.6838 27.928C14.6838 27.5333 14.5772 27.176 14.3638 26.856C14.1505 26.5253 13.8198 26.2587 13.3718 26.056C12.9345 25.8533 12.3638 25.752 11.6598 25.752H10.7638V24.584H11.5958C12.2252 24.584 12.7425 24.488 13.1478 24.296C13.5638 24.104 13.8732 23.8533 14.0758 23.544C14.2785 23.2347 14.3798 22.9093 14.3798 22.568C14.3798 22.0667 14.1878 21.6613 13.8038 21.352C13.4305 21.0427 12.9665 20.888 12.4118 20.888C11.9105 20.888 11.4625 20.9733 11.0678 21.144C10.6838 21.304 10.3692 21.4853 10.1238 21.688L9.53184 20.552C9.85184 20.3387 10.2625 20.1307 10.7638 19.928C11.2652 19.7147 11.8518 19.608 12.5238 19.608C13.2278 19.608 13.8252 19.736 14.3158 19.992C14.8065 20.248 15.1798 20.5893 15.4358 21.016C15.7025 21.432 15.8358 21.8853 15.8358 22.376C15.8358 23.0053 15.6758 23.5333 15.3558 23.96C15.0465 24.3867 14.6038 24.7387 14.0278 25.016C14.6998 25.272 15.2225 25.6507 15.5958 26.152C15.9798 26.6427 16.1718 27.2187 16.1718 27.88C16.1718 28.4347 16.0332 28.968 15.7558 29.48C15.4892 29.9813 15.0732 30.392 14.5078 30.712C13.9532 31.032 13.2438 31.192 12.3798 31.192Z" fill="black"/>
</svg>
