<svg width="39" height="40" viewBox="0 0 39 40" fill="none" xmlns="http://www.w3.org/2000/svg">
<circle cx="24" cy="15" r="15" fill="#600041"/>
<circle cx="15" cy="25" r="14.5" stroke="white"/>
<path d="M11.408 31C11.376 30.808 11.36 30.6107 11.36 30.408C11.36 29.7147 11.4773 29.096 11.712 28.552C11.9573 27.9973 12.272 27.496 12.656 27.048C13.04 26.5893 13.4453 26.168 13.872 25.784C14.3093 25.3893 14.7147 25.016 15.088 24.664C15.472 24.3013 15.7867 23.9387 16.032 23.576C16.2773 23.2133 16.4 22.8347 16.4 22.44C16.4 21.992 16.2347 21.624 15.904 21.336C15.5733 21.0373 15.1467 20.888 14.624 20.888C14.176 20.888 13.7653 20.9787 13.392 21.16C13.0293 21.3307 12.688 21.5653 12.368 21.864L11.568 20.888C11.9947 20.504 12.464 20.1947 12.976 19.96C13.4987 19.7253 14.1013 19.608 14.784 19.608C15.4133 19.608 15.9627 19.7307 16.432 19.976C16.9013 20.2107 17.264 20.536 17.52 20.952C17.7867 21.368 17.92 21.832 17.92 22.344C17.92 22.856 17.808 23.3307 17.584 23.768C17.36 24.2053 17.072 24.616 16.72 25C16.368 25.384 15.9893 25.7573 15.584 26.12C15.1787 26.472 14.7893 26.8347 14.416 27.208C14.0427 27.5813 13.7227 27.9707 13.456 28.376C13.2 28.7813 13.04 29.2187 12.976 29.688H17.904V31H11.408Z" fill="white"/>
</svg>
