<svg width="39" height="41" viewBox="0 0 39 41" fill="none" xmlns="http://www.w3.org/2000/svg">
<circle cx="24" cy="15.5" r="15" fill="#600041"/>
<circle cx="15" cy="25.5" r="14.5" stroke="white"/>
<path d="M13.144 31.692C12.4507 31.692 11.848 31.6013 11.336 31.42C10.824 31.228 10.3867 30.9987 10.024 30.732L10.68 29.532C10.9787 29.756 11.3253 29.9533 11.72 30.124C12.1147 30.2947 12.5947 30.38 13.16 30.38C13.864 30.38 14.4187 30.1933 14.824 29.82C15.24 29.4467 15.448 28.9827 15.448 28.428C15.448 28.0333 15.3413 27.676 15.128 27.356C14.9147 27.0253 14.584 26.7587 14.136 26.556C13.6987 26.3533 13.128 26.252 12.424 26.252H11.528V25.084H12.36C12.9893 25.084 13.5067 24.988 13.912 24.796C14.328 24.604 14.6373 24.3533 14.84 24.044C15.0427 23.7347 15.144 23.4093 15.144 23.068C15.144 22.5667 14.952 22.1613 14.568 21.852C14.1947 21.5427 13.7307 21.388 13.176 21.388C12.6747 21.388 12.2267 21.4733 11.832 21.644C11.448 21.804 11.1333 21.9853 10.888 22.188L10.296 21.052C10.616 20.8387 11.0267 20.6307 11.528 20.428C12.0293 20.2147 12.616 20.108 13.288 20.108C13.992 20.108 14.5893 20.236 15.08 20.492C15.5707 20.748 15.944 21.0893 16.2 21.516C16.4667 21.932 16.6 22.3853 16.6 22.876C16.6 23.5053 16.44 24.0333 16.12 24.46C15.8107 24.8867 15.368 25.2387 14.792 25.516C15.464 25.772 15.9867 26.1507 16.36 26.652C16.744 27.1427 16.936 27.7187 16.936 28.38C16.936 28.9347 16.7973 29.468 16.52 29.98C16.2533 30.4813 15.8373 30.892 15.272 31.212C14.7173 31.532 14.008 31.692 13.144 31.692Z" fill="white"/>
</svg>
