<svg width="210" height="310" viewBox="0 0 210 310" fill="none" xmlns="http://www.w3.org/2000/svg">
<g clip-path="url(#clip0_1180_3350)">
<g opacity="0.2">
<path d="M72.1738 186.838C75.1126 178.965 78.0513 171.091 80.9899 163.219C100.092 98.9228 94.2142 39.8755 67.7657 34.6269C56.0108 33.3147 44.2559 37.2511 36.9091 46.4363" stroke="#0000FF" stroke-opacity="0.67" stroke-width="16" stroke-linecap="round" stroke-linejoin="round"/>
<path d="M28.0939 256.382C20.7471 265.567 8.99216 269.504 -2.76273 268.192C-29.2113 261.632 -35.0886 203.896 -15.987 139.601C-13.0483 131.727 -10.1095 122.542 -7.17081 115.981" stroke="#0000FF" stroke-opacity="0.67" stroke-width="16" stroke-linecap="round" stroke-linejoin="round"/>
<path d="M17.8076 199.96C26.6237 198.647 35.44 196.023 45.7255 194.71C117.724 177.653 172.09 143.536 164.744 119.917C161.805 110.732 151.52 105.483 136.826 101.547" stroke="#0000FF" stroke-opacity="0.67" stroke-width="16" stroke-linecap="round" stroke-linejoin="round"/>
<path d="M-71.8233 201.271C-86.5169 197.335 -96.8024 192.086 -99.7411 182.901C-107.088 159.283 -54.1909 125.166 19.2773 108.108C28.0934 105.484 38.3789 104.172 47.195 102.86" stroke="#0000FF" stroke-opacity="0.67" stroke-width="16" stroke-linecap="round" stroke-linejoin="round"/>
<path d="M-21.8652 164.531C-15.9877 171.091 -10.1103 176.34 -2.76351 182.901C50.1335 230.139 108.908 255.07 129.479 236.7C136.826 227.515 138.295 215.705 133.888 206.52" stroke="#0000FF" stroke-opacity="0.67" stroke-width="16" stroke-linecap="round" stroke-linejoin="round"/>
<path d="M-67.415 96.2983C-71.823 85.8011 -70.3538 73.9916 -64.4763 64.8065C-45.3745 47.7484 14.8692 71.3673 67.7664 118.605C75.1131 125.166 80.9906 130.414 86.868 136.976" stroke="#0000FF" stroke-opacity="0.67" stroke-width="16" stroke-linecap="round" stroke-linejoin="round"/>
<path d="M32.5018 152.721C33.9712 152.721 33.9712 151.409 33.9712 151.409L32.5018 150.097L31.0325 151.409C31.0325 151.409 31.0325 152.721 32.5018 152.721Z" stroke="#0000FF" stroke-opacity="0.67" stroke-width="16" stroke-linecap="round" stroke-linejoin="round"/>
</g>
</g>
<defs>
<clipPath id="clip0_1180_3350">
<rect width="210" height="310" fill="white"/>
</clipPath>
</defs>
</svg>
