<svg width="31" height="36" viewBox="0 0 31 36" fill="none" xmlns="http://www.w3.org/2000/svg">
<path d="M16.5083 28.1288C24.1585 28.1288 30.3603 21.9271 30.3603 14.2768C30.3603 6.62656 24.1585 0.424805 16.5083 0.424805C8.858 0.424805 2.65625 6.62656 2.65625 14.2768C2.65625 21.9271 8.858 28.1288 16.5083 28.1288Z" fill="#9FD4FF"/>
<path d="M14.7327 15.6931C16.0995 17.0599 16.0995 19.276 14.7327 20.6428C13.3659 22.0097 11.1498 22.0097 9.78294 20.6428C8.4161 19.276 8.4161 17.0599 9.78294 15.6931C11.1498 14.3263 13.3659 14.3263 14.7327 15.6931Z" stroke="#001D4A" stroke-width="1.5" stroke-linecap="round" stroke-linejoin="round"/>
<path fill-rule="evenodd" clip-rule="evenodd" d="M4.25781 29.6678V30.6678C4.25781 31.2198 4.70581 31.6678 5.25781 31.6678H19.2578C19.8098 31.6678 20.2578 31.2198 20.2578 30.6678V29.6678C20.2578 26.6418 16.3058 24.6758 12.2578 24.6758C8.20981 24.6758 4.25781 26.6418 4.25781 29.6678Z" stroke="#001D4A" stroke-width="1.5" stroke-linecap="round" stroke-linejoin="round"/>
</svg>
