<svg width="35" height="37" viewBox="0 0 35 37" fill="none" xmlns="http://www.w3.org/2000/svg">
<path d="M20.6831 28.203C28.3333 28.203 34.5351 22.0013 34.5351 14.351C34.5351 6.70078 28.3333 0.499023 20.6831 0.499023C13.0328 0.499023 6.83105 6.70078 6.83105 14.351C6.83105 22.0013 13.0328 28.203 20.6831 28.203Z" fill="#9FD4FF"/>
<path d="M5.97754 33.3325H12.4775C13.5821 33.3325 14.4775 32.4371 14.4775 31.3325L14.4775 24.8325C14.4775 23.728 13.5821 22.8325 12.4775 22.8325H5.97754C4.87297 22.8325 3.97754 23.728 3.97754 24.8325L3.97754 31.3325C3.97754 32.4371 4.87297 33.3325 5.97754 33.3325Z" stroke="#071A39" stroke-width="1.5" stroke-linecap="round" stroke-linejoin="round"/>
<path d="M10.9775 26.3325H7.47754" stroke="#071A39" stroke-width="1.5" stroke-linecap="round" stroke-linejoin="round"/>
<path d="M10.9775 29.8325H7.47754" stroke="#071A39" stroke-width="1.5" stroke-linecap="round" stroke-linejoin="round"/>
<path d="M17.9772 33.3325H20.8939C22.5047 33.3325 23.8105 32.0267 23.8105 30.4159V18.5995C23.8105 17.6712 23.4418 16.781 22.7854 16.1246L20.0185 13.3576C19.3621 12.7013 18.4719 12.3325 17.5436 12.3325H9.22721C7.61638 12.3325 6.31055 13.6384 6.31055 15.2492V19.3325" stroke="#071A39" stroke-width="1.5" stroke-linecap="round" stroke-linejoin="round"/>
<path d="M23.7834 18.1659H19.7275C18.761 18.1659 17.9775 17.3824 17.9775 16.4159V12.3601" stroke="#071A39" stroke-width="1.5" stroke-linecap="round" stroke-linejoin="round"/>
</svg>
