<svg width="50" height="50" viewBox="0 0 50 50" fill="none" xmlns="http://www.w3.org/2000/svg">
<g clip-path="url(#clip0_404_1904)">
<path d="M23.4775 12.9746L35.9268 25L23.4775 37.0244L24.5464 38.1299L38.1392 25L24.5464 11.8711L23.4775 12.9746Z" fill="#0000FF"/>
<path d="M11.8604 24.2305H32.2803V25.7678H11.8604V24.2305Z" fill="#0000FF"/>
<mask id="mask0_404_1904" style="mask-type:luminance" maskUnits="userSpaceOnUse" x="0" y="0" width="50" height="50">
<path d="M0.399414 0.399414H49.5996V49.5996H0.399414V0.399414Z" fill="white"/>
</mask>
<g mask="url(#mask0_404_1904)">
<path d="M25 0.399414C11.4131 0.399414 0.399414 11.4121 0.399414 25C0.399414 38.5869 11.4121 49.6006 25 49.6006C38.5869 49.6006 49.6006 38.5879 49.6006 25C49.6002 11.4131 38.5869 0.399414 25 0.399414ZM25 48.0625C12.2832 48.0625 1.9375 37.7168 1.9375 25C1.9375 12.2832 12.2842 1.9375 25 1.9375C37.7158 1.9375 48.0625 12.2832 48.0625 25C48.0625 37.7168 37.7168 48.0625 25 48.0625Z" fill="#0000FF"/>
</g>
</g>
<defs>
<clipPath id="clip0_404_1904">
<rect width="50" height="50" fill="white"/>
</clipPath>
</defs>
</svg>
