<svg width="70" height="70" viewBox="0 0 70 70" fill="none" xmlns="http://www.w3.org/2000/svg">
<path d="M53.7496 46.2498C51.7608 46.2498 49.8528 47.0401 48.4468 48.4468C47.0401 49.8529 46.2498 51.7608 46.2498 53.7496C46.2498 55.7389 47.0401 57.6469 48.4468 59.0529C49.8529 60.4596 51.7608 61.2499 53.7496 61.2499C55.7389 61.2499 57.6469 60.4596 59.0529 59.0529C60.4596 57.6468 61.2499 55.7389 61.2499 53.7496C61.2482 51.7614 60.4573 49.8546 59.0511 48.4486C57.645 47.0425 55.7383 46.2516 53.7496 46.2498ZM53.7496 58.75C52.4237 58.75 51.152 58.2231 50.214 57.2852C49.2766 56.3478 48.7497 55.076 48.7497 53.7496C48.7497 52.4238 49.2766 51.152 50.214 50.214C51.152 49.2766 52.4237 48.7498 53.7496 48.7498C55.076 48.7498 56.3477 49.2766 57.2851 50.214C58.2231 51.152 58.7499 52.4238 58.7499 53.7496C58.7499 55.076 58.2231 56.3478 57.2851 57.2852C56.3477 58.2232 55.076 58.75 53.7496 58.75Z" fill="#0000FF"/>
<path d="M33.5245 41.2494C35.4192 41.2302 37.2922 41.6489 38.9984 42.4717C39.0786 42.1827 39.2158 41.9129 39.4019 41.678C39.7444 41.2692 40.1108 40.872 40.4917 40.4917C40.6527 40.3306 40.8266 40.1852 40.9918 40.0305C38.0981 38.5954 36.2496 35.2278 36.2496 31.2492V24.535C35.7623 24.8735 35.2204 25.1247 34.6469 25.2788C34.3754 29.1045 32.578 32.6599 29.6581 35.1464L28.7498 35.889V39.2251L32.7982 41.2494L33.5245 41.2494Z" fill="#0000FF"/>
<path d="M49.9996 22.4997V7.49988H47.4991C46.8362 7.49988 46.2006 7.7633 45.7319 8.232C45.2626 8.70069 44.9992 9.33688 44.9992 9.99979V23.1721C45.7592 22.7325 46.6215 22.5005 47.4991 22.4999L49.9996 22.4997Z" fill="#0000FF"/>
<path d="M56.2505 53.7497C56.2505 55.1308 55.1311 56.2502 53.75 56.2502C52.3695 56.2502 51.2501 55.1308 51.2501 53.7497C51.2501 52.3692 52.3695 51.2498 53.75 51.2498C55.1311 51.2498 56.2505 52.3692 56.2505 53.7497Z" fill="#0000FF"/>
<path d="M30.4787 47.4988H32.1251C32.2431 47.5005 32.3548 47.4453 32.4245 47.3505C32.4966 47.2563 32.5199 47.1342 32.4873 47.0202L31.4534 43.37L28.2562 41.7737L22.4998 60.1885V67.9383L28.3336 49.0382V49.0388C28.4912 48.5939 28.7814 48.2078 29.1646 47.9328C29.5484 47.6571 30.0066 47.5059 30.4788 47.4984L30.4787 47.4988Z" fill="#0000FF"/>
<path d="M42.4997 68.7495V68.5082V68.5087C42.2002 68.4297 41.9205 68.2901 41.6786 68.097C41.2698 67.7545 40.8726 67.3882 40.4923 67.0073C40.1126 66.6258 39.7422 66.2298 39.4026 65.821H39.402C39.1351 65.4988 38.963 65.1086 38.9054 64.6946C38.8473 64.28 38.9054 63.8578 39.0735 63.4746L40.0248 61.2498C39.4828 60.2636 39.0502 59.2221 38.7333 58.1422L36.4997 57.2496C36.1106 57.0972 35.771 56.8396 35.5198 56.5053C35.268 56.1709 35.1145 55.7737 35.0761 55.3574C35.0221 54.8259 35 54.2886 35 53.7495C35 53.211 35.0226 52.6731 35.0697 52.1422C35.1087 51.7252 35.2634 51.3269 35.5158 50.9931C35.7687 50.6587 36.1089 50.4011 36.4997 50.2499L38.7397 49.3538V49.3532C39.0543 48.2757 39.4834 47.2353 40.0213 46.2497C38.4622 44.6982 36.3625 43.8102 34.1637 43.7736L34.89 46.3385H34.8894C35.136 47.2056 34.9616 48.1377 34.4184 48.8571C33.8753 49.5764 33.0263 49.9991 32.125 49.9997H30.6509L24.4811 69.9999H41.2494C41.5809 69.9999 41.8984 69.8685 42.1333 69.6336C42.3676 69.3992 42.4991 69.0817 42.4991 68.7497L42.4997 68.7495Z" fill="#0000FF"/>
<path d="M7.08734 21.8655C7.42927 22.3981 7.97414 22.768 8.59521 22.8889C9.07321 23.0041 9.50062 23.2704 9.81464 23.6484C10.1287 24.0264 10.3124 24.4957 10.3374 24.9864C10.5276 28.1685 12.0017 31.1364 14.4225 33.2107L18.4226 36.4834V36.4828C19.2263 37.1196 20.2213 37.4656 21.2465 37.4656C22.2717 37.4656 23.2666 37.1196 24.0703 36.4828L28.0705 33.209H28.07C30.4902 31.1358 31.9649 28.1691 32.155 24.9881C32.18 24.4967 32.3632 24.0269 32.6772 23.6483C32.9912 23.2697 33.4198 23.0028 33.8978 22.8877C34.5188 22.7667 35.0637 22.3969 35.4051 21.8642C36.2163 20.507 36.2436 19.7941 36.2436 16.6505C36.2436 16.4202 35.9935 16.2655 35.9249 16.2219C35.7336 16.0963 35.4923 16.0748 35.2812 16.1643C35.0271 16.3202 34.8177 16.54 34.6741 16.8017C34.3583 17.3814 33.7338 17.7234 33.075 17.6768C32.408 17.6414 31.8195 17.2291 31.5579 16.6138C30.1564 13.3638 24.4617 11.7036 22.7503 11.2715C22.384 11.168 21.995 11.3343 21.8164 11.6704C19.0752 17.3389 12.1913 18.8178 10.1392 19.1363C9.19076 19.2788 8.30458 18.6316 8.15154 17.6855C8.07944 17.0702 7.74856 16.5155 7.24148 16.1602C7.16937 16.1212 7.08855 16.102 7.00655 16.1055C6.85186 16.1102 6.70125 16.1532 6.56751 16.2305C6.3983 16.3096 6.27908 16.4672 6.24885 16.6516C6.06975 18.4327 6.35875 20.2302 7.08738 21.8653L7.08734 21.8655Z" fill="#0000FF"/>
<path d="M26.2494 37.9341L25.6557 38.4191H25.6551C24.4142 39.442 22.8563 40.0014 21.2479 40.0014C19.6396 40.0014 18.0816 39.442 16.8407 38.4191L16.2493 37.9341V39.8176L21.2492 55.8178L26.249 39.8176L26.2494 37.9341Z" fill="#0000FF"/>
<path d="M8.54177 14.0277C9.46636 14.6028 10.1451 15.4995 10.4486 16.545C12.5223 16.1199 17.5872 14.6888 19.5737 10.5863C19.9139 9.90769 20.4756 9.36573 21.1658 9.05061C21.8566 8.73543 22.6341 8.66565 23.3698 8.8529C26.2447 9.58036 31.1196 11.2516 33.2874 14.568V14.5675C33.5031 14.3628 33.741 14.1813 33.9963 14.0278C34.6569 13.6434 35.439 13.5248 36.1833 13.6963C35.871 10.194 34.3422 6.91131 31.8621 4.41779C29.0587 1.58352 25.2358 -0.00800849 21.2496 3.03054e-05C17.5029 0.017476 13.8975 1.43055 11.1365 3.9642C8.37604 6.49731 6.65886 9.96887 6.32093 13.7004C7.07573 13.5218 7.87068 13.6392 8.54177 14.0277Z" fill="#0000FF"/>
<path d="M69.9537 52.5216L67.2584 51.4429C66.8851 51.294 66.606 50.9748 66.5083 50.5846C66.1931 49.3122 65.6872 48.0945 65.0086 46.9728C64.801 46.6285 64.7713 46.2052 64.9295 45.8353L66.0745 43.1615C65.8094 42.8516 65.5296 42.5504 65.2383 42.2602C64.947 41.97 64.6469 41.6892 64.337 41.424L61.6632 42.569C61.2939 42.7277 60.8706 42.6981 60.5257 42.4905C59.4046 41.8119 58.1869 41.3059 56.9145 40.9902C56.5243 40.8931 56.2051 40.614 56.0557 40.2406L54.9769 37.5454C54.1593 37.482 53.3376 37.482 52.5195 37.5454L51.4408 40.2406C51.2919 40.614 50.9721 40.8931 50.5819 40.9902C49.3095 41.306 48.0924 41.8119 46.9707 42.4905C46.6264 42.6981 46.2031 42.7277 45.8332 42.569L43.1594 41.424C42.8495 41.6892 42.5483 41.9689 42.2581 42.2602C41.9679 42.5515 41.6871 42.8516 41.4219 43.1615L42.5669 45.8353C42.7251 46.2052 42.696 46.6285 42.4884 46.9728C41.8098 48.0945 41.3039 49.3122 40.9881 50.5846C40.891 50.9748 40.6119 51.294 40.2385 51.4429L37.5433 52.5216C37.5142 52.9246 37.4997 53.3339 37.4997 53.7503C37.4997 54.1614 37.5148 54.5726 37.5462 54.979L40.2414 56.0577L40.2409 56.0583C40.6142 56.2072 40.8933 56.5264 40.991 56.9166C41.3062 58.189 41.8121 59.4067 42.4907 60.5278C42.6983 60.8727 42.728 61.296 42.5698 61.6658L41.4248 64.3396C41.6899 64.6496 41.9697 64.9508 42.261 65.241C42.5523 65.5311 42.8524 65.812 43.1623 66.0772L45.8361 64.9322L45.8356 64.9316C46.2054 64.7723 46.6293 64.8019 46.9736 65.0107C48.0947 65.6893 49.3124 66.1952 50.5848 66.5104C50.975 66.6081 51.2942 66.8872 51.4431 67.2605L52.5218 69.9558H52.5224C53.34 70.0191 54.1617 70.0191 54.9798 69.9558L56.0585 67.2605C56.2074 66.8872 56.5267 66.6081 56.9168 66.5104C58.1892 66.1952 59.4069 65.6893 60.5287 65.0107C60.8723 64.8013 61.2962 64.7723 61.6661 64.9316L64.3399 66.0766C64.6498 65.8114 64.951 65.5317 65.2412 65.2404C65.5314 64.9491 65.8123 64.649 66.0774 64.339L64.9324 61.6653V61.6658C64.7737 61.296 64.8033 60.8727 65.0109 60.5278C65.6896 59.4067 66.1955 58.189 66.5112 56.9166C66.6083 56.5264 66.8874 56.2072 67.2608 56.0583L69.956 54.9796C69.9851 54.5766 69.9996 54.1672 69.9996 53.7503C69.9996 53.3392 69.9845 52.9281 69.9537 52.5216ZM53.7496 63.7506C51.0979 63.7506 48.5544 62.6969 46.679 60.8215C44.8036 58.9461 43.7499 56.4025 43.7499 53.7503C43.7499 51.0987 44.8036 48.5552 46.679 46.6798C48.5544 44.8043 51.0979 43.7507 53.7496 43.7507C56.4018 43.7507 58.9453 44.8043 60.8207 46.6798C62.6961 48.5552 63.7498 51.0987 63.7498 53.7503C63.7469 56.4019 62.6926 58.9438 60.8179 60.8185C58.9432 62.6932 56.4013 63.7476 53.7497 63.7504L53.7496 63.7506Z" fill="#0000FF"/>
<path d="M6.24922 31.25C6.24922 35.2602 4.38437 38.6724 1.46287 40.0826C2.48226 40.8473 3.55162 41.5434 4.6629 42.1661C6.09865 41.5596 7.64142 41.2485 9.19931 41.2503H9.69941L13.7496 39.226V35.8899L12.8407 35.1473C9.921 32.6614 8.12299 29.1054 7.85191 25.2797C7.27911 25.1262 6.73715 24.8749 6.24921 24.5377L6.24922 31.25Z" fill="#0000FF"/>
<path d="M1.25028 70H18.0186L11.8465 49.9998H10.3752C9.47389 49.9998 8.62486 49.5776 8.0812 48.8594C7.5375 48.1407 7.36246 47.2091 7.60785 46.3421L8.32893 43.7933C6.05113 44.0126 3.93678 45.0715 2.3975 46.7643C0.857622 48.4564 0.00342393 50.6616 0 52.9498V68.749C0 69.0811 0.132004 69.3986 0.366347 69.6329C0.600692 69.8678 0.918775 69.9993 1.25024 69.9993L1.25028 70Z" fill="#0000FF"/>
<path d="M10.3743 47.4988H12.0182H12.0177C12.4765 47.5029 12.9237 47.6442 13.3016 47.9047C13.679 48.1658 13.9692 48.5339 14.1355 48.9619L19.9995 67.9439V60.1941L14.249 41.7733L11.0477 43.3736L10.0138 47.0249H10.0144C9.98358 47.1371 10.0068 47.2575 10.0772 47.3505C10.1481 47.443 10.2575 47.4982 10.3744 47.4982L10.3743 47.4988Z" fill="#0000FF"/>
<path d="M67.5004 24.9991H65.0004C64.3375 24.9991 63.7013 24.7357 63.2326 24.267C62.7634 23.7977 62.5005 23.1621 62.5005 22.4992V14.9989H52.5003V22.4992C52.5003 23.1621 52.2369 23.7977 51.7681 24.267C51.2989 24.7357 50.6633 24.9991 50.0004 24.9991H47.4998C46.8439 24.9991 46.2135 25.2573 45.746 25.7173C45.2779 26.1778 45.0104 26.8041 45 27.4601V27.499V27.6351C45.0715 28.2986 45.3907 28.9104 45.8938 29.3483C46.3962 29.7867 47.0457 30.0187 47.7127 29.999H67.5001C68.3933 29.999 69.2185 29.5227 69.6651 28.7493C70.1117 27.9759 70.1117 27.0228 69.6651 26.2494C69.2185 25.4754 68.3933 24.9992 67.5001 24.9992L67.5004 24.9991Z" fill="#0000FF"/>
<path d="M69.9998 9.99934C69.9998 9.33642 69.7364 8.70024 69.2677 8.23155C68.799 7.76285 68.1628 7.49942 67.4999 7.49942H65V22.4992H67.4999C68.378 22.4975 69.2403 22.7295 69.9998 23.1703V9.99934Z" fill="#0000FF"/>
</svg>
