<svg width="70" height="70" viewBox="0 0 70 70" fill="none" xmlns="http://www.w3.org/2000/svg">
<path d="M49.6857 20.718C50.3421 21.4292 50.5733 22.4406 50.2926 23.3708C50.0113 24.3012 49.2611 25.009 48.324 25.2284C47.3869 25.4476 46.4049 25.1447 45.7485 24.4336C45.2569 23.9049 45.0003 23.1951 45.04 22.4703C45.0563 21.7532 45.3598 21.073 45.8801 20.5858C46.373 20.1051 47.0321 19.8384 47.7172 19.8424C48.4667 19.8371 49.1829 20.1557 49.6857 20.718ZM68.2934 31.7048V31.7054C69.3282 32.7062 69.9136 34.0915 69.9136 35.5401C69.9136 36.988 69.3282 38.3735 68.2934 39.3749L64.0678 43.6738C63.0604 44.6779 61.7025 45.2402 60.2882 45.2396C58.8634 45.2409 57.4992 44.6569 56.5086 43.6205L52.7819 39.7989V39.7996C49.4765 40.7951 45.9561 40.7951 42.6507 39.7996L38.8451 43.5948V43.5942C37.8462 44.6108 36.4826 45.1757 35.0656 45.1599C33.6447 45.1685 32.2811 44.5937 31.286 43.5679L27.0343 39.2156C25.9996 38.2142 25.4141 36.8288 25.4141 35.3809C25.4141 33.9324 25.9996 32.5471 27.0343 31.5462L30.8659 27.7246C29.8813 24.3824 29.8813 20.8229 30.8659 17.4807L27.0082 13.6066C25.9728 12.6051 25.388 11.2198 25.388 9.77185C25.388 8.32328 25.9727 6.93803 27.0082 5.93712L31.3125 1.63818V1.63752C32.3023 0.591273 33.6724 0 35.1051 0C36.537 0 37.9072 0.591273 38.8976 1.63752L42.5457 5.40567V5.40633C45.917 4.37127 49.5155 4.37127 52.8866 5.40633L56.5613 1.74403C57.5511 0.697127 58.9212 0.105838 60.3539 0.105838C61.7859 0.105838 63.1561 0.697111 64.1465 1.74403L68.4508 6.17529C69.4628 7.19258 70.0215 8.58114 69.9994 10.0238C69.9805 11.4599 69.4055 12.832 68.3981 13.8454L64.7234 17.5077C65.747 20.9158 65.747 24.555 64.7234 27.9636L68.2934 31.7048ZM53.5693 17.0829C52.1393 15.5171 50.1485 14.5966 48.0426 14.5269C45.936 14.4571 43.89 15.2439 42.3623 16.7109C40.7818 18.1364 39.8357 20.1453 39.7373 22.2838C39.6227 24.4264 40.3677 26.5248 41.8042 28.1043C43.2401 29.6833 45.2463 30.6096 47.3673 30.6728C49.4883 30.736 51.5448 29.9314 53.0705 28.4408C54.6451 27.0126 55.5854 25.0043 55.6791 22.8679C55.7729 20.7312 55.0123 18.6459 53.5693 17.0829ZM35.1966 50.574V53.8912C35.1888 55.135 34.6984 56.3261 33.8317 57.2092C32.9591 58.0829 31.7792 58.5701 30.5509 58.5622H28.1095C27.0702 60.3163 25.6187 61.7839 23.8838 62.8349V65.3027C23.891 66.5465 23.4072 67.741 22.5404 68.6232C21.673 69.5049 20.4944 70 19.265 70H15.9842C14.7515 70 13.5703 69.5055 12.6989 68.6245C11.8276 67.7435 11.3386 66.5492 11.3386 65.3027V62.6493C9.65649 61.6089 8.25116 60.1696 7.24392 58.4563H4.61963C3.39407 58.4563 2.21939 57.9638 1.35319 57.0881C0.486449 56.2124 0 55.0246 0 53.7854V50.5741C0 49.3284 0.4897 48.1339 1.36036 47.253C2.23166 46.372 3.41351 45.8769 4.64564 45.8769H7.26992C8.29555 44.1761 9.70867 42.7474 11.3907 41.7109V39.0568C11.3907 37.8183 11.8778 36.6299 12.7439 35.754C13.61 34.8783 14.7847 34.3858 16.0104 34.3858H19.265C20.4944 34.3858 21.673 34.8816 22.5404 35.7632C23.4072 36.6449 23.891 37.8399 23.8838 39.083V41.5516C25.6264 42.6011 27.0871 44.0688 28.1362 45.8242H30.5507C31.7939 45.817 32.9875 46.3167 33.862 47.2109C34.7366 48.1044 35.2172 49.3172 35.1963 50.5742L35.1966 50.574ZM21.5482 52.0871C21.5482 51.0309 21.1334 50.0188 20.3949 49.2723C19.6571 48.5256 18.6555 48.1062 17.6111 48.1062C16.5672 48.1062 15.5656 48.5256 14.8273 49.2723C14.0895 50.019 13.6747 51.031 13.6747 52.0871C13.6747 53.1425 14.0895 54.1553 14.8273 54.9018C15.5657 55.6479 16.5674 56.0673 17.6111 56.0673C18.6556 56.0673 19.6571 55.6479 20.3949 54.9018C21.1334 54.1552 21.5482 53.1424 21.5482 52.0871Z" fill="#0000FF"/>
</svg>
