<svg width="70" height="70" viewBox="0 0 70 70" fill="none" xmlns="http://www.w3.org/2000/svg">
<path d="M15.9516 14.0054C19.012 15.3664 22.3022 16.1384 25.6487 16.2809V25.6477H14.009C14.0901 21.6932 14.7445 17.7717 15.9516 14.0055V14.0054ZM25.6487 51.2078V39.7127C22.5802 39.8517 19.5662 40.5711 16.7659 41.8325C18.9082 47.0026 22.0914 50.5615 25.6487 51.2078ZM16.7659 11.7977C19.5662 13.0591 22.5802 13.7784 25.6487 13.9175V2.42238C22.0914 3.06873 18.9082 6.6276 16.7659 11.7977ZM15.9516 39.6239C19.012 38.2629 22.3022 37.4909 25.6486 37.3484V27.9816H14.009C14.0901 31.9361 14.7445 35.8576 15.9516 39.6238V39.6239ZM27.9828 50.1577V51.2082H28.006C27.9944 50.8578 27.9828 50.5075 27.9828 50.1577ZM27.9828 39.712V50.1577C27.9759 46.6051 28.833 43.1041 30.4808 39.9569C29.6636 39.8399 28.8232 39.7467 27.9828 39.7114V39.712ZM27.9828 2.42208V13.9172C31.0512 13.7782 34.0648 13.0588 36.865 11.7974C34.7232 6.6273 31.5401 3.06837 27.9828 2.42208ZM39.4563 30.748C39.5495 29.8375 39.5964 28.9156 39.6196 27.9819H27.9829V37.3545C29.2524 37.4031 30.5168 37.5473 31.7649 37.7859C33.7319 34.8611 36.3687 32.4484 39.4563 30.748ZM14.6065 10.6878C17.1352 4.65064 21.0817 0.642322 25.6491 0.0538616V0C19.6089 0.259462 13.8345 2.55934 9.27136 6.52362C10.8507 8.14993 12.6462 9.55088 14.6072 10.6878L14.6065 10.6878ZM41.9071 29.5811C44.5285 28.5189 47.3305 27.9757 50.1591 27.9821H41.9771C41.9655 28.519 41.9419 29.0558 41.9071 29.5811ZM53.6255 27.9821H50.1591C51.3117 27.9827 52.4631 28.0724 53.6024 28.2508C53.6157 28.1616 53.6238 28.0719 53.6255 27.9821ZM11.6582 27.9821H0C0.282629 34.552 2.97574 40.7878 7.56509 45.498C9.38953 43.61 11.4797 41.9982 13.7692 40.7135C12.4354 36.5986 11.7236 32.3071 11.6582 27.9819V27.9821ZM14.6062 42.9419L14.6056 42.9425C12.6445 44.0794 10.8491 45.4804 9.26974 47.1067C13.8336 51.0709 19.608 53.3708 25.6474 53.6297V53.5758C21.08 52.988 17.1336 48.9796 14.6049 42.9425L14.6062 42.9419ZM13.7699 12.9155L13.7693 12.9161C11.4799 11.6309 9.3896 10.0197 7.56516 8.13157C2.97582 12.8419 0.282672 19.0776 7.23966e-05 25.6475H11.6583C11.7237 21.3217 12.4355 17.0308 13.7693 12.9159L13.7699 12.9155ZM41.972 25.6477H53.6302C53.3475 19.0778 50.6544 12.8419 46.0651 8.13174C44.2406 10.0197 42.1505 11.6311 39.8609 12.9162C41.1948 17.0311 41.9066 21.3221 41.972 25.6478V25.6477ZM39.0246 10.6878C40.9857 9.55092 42.7811 8.14997 44.3604 6.52366C39.7966 2.55938 34.0221 0.259505 27.9827 0.000635715V0.054495C32.5495 0.642333 36.4966 4.65068 39.0253 10.6879L39.0246 10.6878ZM27.982 53.5777V53.6246C28.0752 53.6246 28.1569 53.613 28.2507 53.613C28.2507 53.5898 28.2391 53.5545 28.2391 53.5313C28.1546 53.5522 28.0689 53.5678 27.982 53.5777ZM37.679 14.006V14.0065C34.618 15.3676 31.3284 16.1396 27.982 16.2821V25.6488H39.6216C39.5405 21.6943 38.8861 17.7729 37.679 14.0067V14.006ZM62.9973 50.1587C62.9973 53.5636 61.6449 56.8288 59.2374 59.2369C56.8292 61.6444 53.5637 62.9967 50.1589 62.9967C46.7533 62.9967 43.488 61.6444 41.0804 59.2369C38.6729 56.8288 37.3199 53.5634 37.3199 50.1587C37.3199 46.7532 38.6729 43.488 41.0804 41.0805C43.488 38.673 46.7535 37.3201 50.1589 37.3201C53.5633 37.3224 56.8276 38.6753 59.2351 41.0829C61.6421 43.4898 62.9957 46.7546 62.9974 50.1588L62.9973 50.1587ZM47.8235 46.6571C47.8235 45.8232 48.2683 45.0523 48.9906 44.6359C49.7134 44.2189 50.603 44.2189 51.3252 44.6359C52.0474 45.0523 52.4922 45.8231 52.4922 46.6571C52.4922 47.3017 53.0146 47.8241 53.6593 47.8241C54.3039 47.8241 54.8269 47.3017 54.8269 46.6571C54.8234 45.6245 54.4776 44.6225 53.8446 43.8071C53.211 42.9922 52.3248 42.4101 51.3252 42.1518V40.8215C51.3252 40.1769 50.8028 39.6545 50.1582 39.6545C49.5136 39.6545 48.9906 40.1769 48.9906 40.8215V42.1518C47.5114 42.5318 46.312 43.6119 45.7809 45.0436C45.2492 46.4753 45.4531 48.0766 46.3259 49.3299C47.1993 50.5826 48.631 51.3285 50.1583 51.3257C50.7774 51.3257 51.3711 51.5718 51.809 52.0091C52.2468 52.4469 52.4924 53.0406 52.4924 53.6597C52.4924 54.2789 52.2468 54.8731 51.809 55.3103C51.3711 55.7482 50.7775 55.9943 50.1583 55.9943C49.5392 55.9943 48.9455 55.7482 48.5076 55.3103C48.0698 54.8731 47.8236 54.2789 47.8236 53.6597C47.8236 53.0151 47.3012 52.4927 46.6566 52.4927C46.012 52.4927 45.4896 53.0151 45.4896 53.6597C45.493 54.6923 45.8382 55.6943 46.4718 56.5098C47.1055 57.3247 47.991 57.9073 48.9906 58.165V59.4959C48.9906 60.1405 49.5136 60.6629 50.1582 60.6629C50.8029 60.6629 51.3253 60.1405 51.3253 59.4959V58.165C52.8045 57.7857 54.0039 56.705 54.5356 55.2733C55.0673 53.8416 54.8634 52.2402 53.99 50.9875C53.1172 49.7343 51.6855 48.9889 50.1581 48.9912C49.5396 48.9894 48.9465 48.7433 48.5093 48.306C48.072 47.8682 47.8253 47.2757 47.8235 46.6571ZM70 50.1587C70 55.4209 67.9091 60.4677 64.1886 64.1888C60.4674 67.9093 55.4205 70 50.1582 70C44.8958 70 39.8489 67.9092 36.1277 64.1888C32.4065 60.4677 30.3163 55.4209 30.3163 50.1587C30.3163 44.8965 32.4066 39.8497 36.1277 36.1286C39.8489 32.4075 44.8958 30.3174 50.1582 30.3174C55.4183 30.3249 60.4604 32.4174 64.1799 36.1368C67.8993 39.8561 69.9924 44.8989 70 50.1587ZM65.3313 50.1587C65.3313 46.1347 63.7329 42.2752 60.8873 39.4299C58.0413 36.5845 54.1822 34.9859 50.1582 34.9859C46.134 34.9859 42.2744 36.5844 39.429 39.4299C36.5836 42.2753 34.985 46.1348 34.985 50.1587C34.985 54.1827 36.5835 58.0416 39.429 60.8875C42.2744 63.7329 46.1342 65.3315 50.1582 65.3315C54.1811 65.3274 58.0383 63.7278 60.8827 60.8829C63.7277 58.0386 65.3273 54.1815 65.3313 50.1587Z" fill="#0000FF"/>
</svg>
