<svg width="70" height="70" viewBox="0 0 70 70" fill="none" xmlns="http://www.w3.org/2000/svg">
<path d="M9.53668 30.3267V46.7328H12.8613V30.3267H9.53668ZM18.8101 21.0795V46.732H22.1346V21.0795H18.8101ZM9.53668 30.3267V46.7328H12.8613V30.3267H9.53668ZM18.8101 21.0795V46.732H22.1346V21.0795H18.8101ZM9.53668 30.3267V46.7328H12.8613V30.3267H9.53668ZM18.8101 21.0795V46.732H22.1346V21.0795H18.8101ZM28.0841 35.199V46.7328H31.4087V35.199H28.0841ZM9.53633 30.3267V46.7328H12.8609V30.3267H9.53633ZM18.8097 21.0795V46.732H22.1343V21.0795H18.8097ZM28.0838 35.199V46.7328H31.4084V35.199H28.0838ZM10.6734 4.97182H36.2194C36.4819 4.77293 36.8319 4.57403 37.0945 4.47458C38.3195 3.87789 39.7189 3.57953 41.0315 3.57953C42.2566 3.57953 43.3935 3.77842 44.4434 4.27566C44.4434 4.27566 44.5309 4.27566 44.5309 4.37511C44.881 4.47456 45.231 4.67346 45.581 4.87235H45.6685V0H4.54935L4.54799 64.8279H45.6671L45.6678 26.1498C45.6678 26.1498 45.5803 26.1498 45.5803 26.2493C45.3178 26.3487 45.0553 26.4482 44.8803 26.6471C44.7928 26.6471 44.7928 26.7465 44.7053 26.7465C44.4428 26.846 44.0928 26.9454 43.8302 27.0449H43.7427C43.4802 27.1443 43.2177 27.1443 42.9552 27.2438H42.6927H42.6052V47.6268C42.6052 48.2235 42.1677 48.6213 41.7301 48.6213H36.6555C36.1304 48.6213 35.7804 48.1241 35.7804 47.6268L35.7811 25.6531C35.0811 25.1558 34.381 24.5591 33.8567 23.9624C31.4073 21.1787 30.3572 17.3008 30.9697 13.5226H10.8469C10.3218 13.5226 9.97181 13.0254 9.97181 12.5281V6.06546C9.7093 5.46877 10.1468 4.97151 10.6718 4.97151L10.6734 4.97182ZM40.8559 59.7582H9.3606C8.83558 59.7582 8.48554 59.2609 8.48554 58.7637C8.48554 58.167 8.92306 57.7692 9.3606 57.7692H40.8559C41.381 57.7692 41.731 58.2664 41.731 58.7637C41.731 59.3611 41.381 59.7582 40.8559 59.7582ZM40.8559 52.6987C41.381 52.6987 41.731 53.1959 41.731 53.6932C41.731 54.2899 41.2935 54.6877 40.8559 54.6877H9.3606C8.83558 54.6877 8.48554 54.1905 8.48554 53.6932C8.48554 53.0965 8.92306 52.6987 9.3606 52.6987H40.8559ZM26.3329 34.1055C26.3329 33.5088 26.7704 33.111 27.2079 33.111H32.2826C32.8076 33.111 33.1576 33.6082 33.1576 34.1055V47.7277C33.1576 48.3244 32.7201 48.7222 32.2826 48.7222H27.2079C26.6829 48.7222 26.3329 48.2249 26.3329 47.7277V34.1055ZM16.972 20.0854C16.972 19.4887 17.4095 19.0909 17.847 19.0909H22.9216C23.4467 19.0909 23.7967 19.5882 23.7967 20.0854V47.7273C23.7967 48.324 23.3592 48.7218 22.9216 48.7218H17.847C17.322 48.7218 16.972 48.2245 16.972 47.7273V20.0854ZM13.7349 28.2386C14.2599 28.2386 14.61 28.7359 14.61 29.2332V47.6274C14.61 48.2241 14.1724 48.6219 13.7349 48.6219H8.66025C8.13523 48.6219 7.7852 48.1247 7.7852 47.6274V29.2332C7.7852 28.6365 8.22272 28.2386 8.66025 28.2386H13.7349ZM31.4075 35.1994H28.0829V46.7332H31.4075V35.1994ZM22.1334 21.0799H18.8088V46.7324H22.1334V21.0799ZM12.7725 30.3271H9.44794V46.7332H12.7725V30.3271ZM28.0829 35.1994V46.7332H31.4077V35.1994H28.0829ZM18.809 21.0799V46.7324H22.1336V21.0799H18.809ZM9.53564 30.3271V46.7332H12.8602V30.3271H9.53564ZM28.0835 35.1994V46.7332H31.408V35.1994H28.0835ZM18.8094 21.0799V46.7324H22.1339V21.0799H18.8094ZM9.53598 30.3271V46.7332H12.8606V30.3271H9.53598ZM9.53598 30.3271V46.7332H12.8606V30.3271H9.53598ZM9.53598 30.3271V46.7332H12.8606V30.3271H9.53598ZM3.67383 66.8184C3.14881 66.8184 2.79877 66.3212 2.79877 65.8239L2.79945 5.17212H0V70H41.1192V66.8184L3.67383 66.8184ZM11.5479 7.06065V11.4357H31.2332C31.2332 11.3362 31.3207 11.2368 31.4082 11.0379C31.4957 10.839 31.4957 10.6401 31.5832 10.5406C31.6707 10.2423 31.7582 10.0434 31.9332 9.74504C32.0207 9.54614 32.1082 9.4467 32.1957 9.2478C32.3707 8.94945 32.4582 8.75056 32.6332 8.45221C32.7207 8.35276 32.8082 8.15387 32.8957 8.05442C33.1582 7.65663 33.4207 7.35828 33.6833 6.96047L33.7708 6.86102L11.5485 6.86179L11.5479 7.06065ZM40.5948 27.345C40.4198 27.345 40.1572 27.345 39.9822 27.2456H39.8072H39.7197C39.5447 27.2456 39.2822 27.1461 39.1072 27.1461H38.9322C38.7572 27.1461 38.6697 27.0467 38.4947 27.0467H38.4072H38.2322H38.1447C37.8822 26.9472 37.6196 26.8478 37.3571 26.7483V46.7347H40.6817L40.6824 27.4454L40.5949 27.3459L40.5948 27.345ZM47.1562 8.55208C46.8062 8.15429 46.3687 7.75649 46.0187 7.45813C44.7061 6.46363 43.3067 5.76749 41.7315 5.66804H41.0315C39.5439 5.66804 38.057 6.06583 36.8319 6.96089C36.1319 7.35868 35.5193 7.95539 34.9075 8.65152C33.8574 9.84492 33.1574 11.2365 32.7205 12.8276C31.8454 16.3076 32.633 19.9863 34.9075 22.5721C35.52 23.2682 36.22 23.865 36.9194 24.2628C37.0069 24.3622 37.1819 24.3622 37.2694 24.4617C38.582 25.1578 40.0689 25.5556 41.5566 25.4562C43.2191 25.3567 44.7936 24.76 46.1061 23.6661C46.4561 23.3677 46.8061 23.0694 47.2436 22.5721C50.5682 18.595 50.5683 12.4298 47.1562 8.55208ZM68.3279 39.476L57.9169 29.7315C57.5669 29.4331 57.0419 29.4331 56.6919 29.8309L55.7293 30.9249L48.9928 23.2688L47.7678 24.6611L54.5043 32.3172L53.5417 33.4111C53.1917 33.8089 53.1917 34.4056 53.4542 34.8034L62.1165 46.5353C62.9915 47.7287 64.216 48.4248 65.5284 48.4248C66.7535 48.4248 67.8029 47.9276 68.678 46.9331C69.553 45.9386 70.078 44.547 69.9905 43.0554C69.903 41.6631 69.378 40.3704 68.3279 39.476Z" fill="#0000FF"/>
</svg>
