<?xml version="1.0" encoding="UTF-8"?> <svg xmlns="http://www.w3.org/2000/svg" width="129" height="29" viewBox="0 0 129 29" fill="none"><g clip-path="url(#clip0_303_1340)"><g clip-path="url(#clip1_303_1340)"><path d="M38.7003 17.3754C38.9146 18.211 39.0217 19.0712 39.0217 19.9313C39.0217 21.3813 38.7003 22.4627 38.0146 23.2491C36.4932 24.9941 33.3432 25.2398 30.1503 25.2398C28.9503 25.2398 27.6646 25.1907 26.3146 25.1661C25.7146 25.1415 25.0932 25.1169 24.4717 25.1169C23.2075 25.461 22.0718 25.7559 21.1932 25.9525C20.8075 26.0263 20.4218 26.1246 20.036 26.2229C20.4646 26.1983 20.9146 26.1983 21.3646 26.1983H21.836C23.3575 26.1983 24.8575 26.2474 26.2932 26.2966C27.6432 26.3458 28.9289 26.3703 30.1503 26.3703C33.5575 26.3703 36.9432 26.1 38.7003 24.0602C39.5575 23.0525 40.0075 21.6763 39.986 19.9559C39.986 18.7763 39.7717 17.5229 39.3646 16.2941C39.1717 16.6627 38.9575 17.0313 38.7003 17.3754ZM21.2575 3.14575C16.7789 3.17033 12.3432 5.40677 8.80746 9.4127C5.59318 13.0746 3.68604 17.5966 3.68604 21.5042C3.70746 25.8788 6.23604 26.8127 8.93604 26.9356C11.3146 26.6161 14.0575 25.9525 16.736 25.289C15.9646 25.3627 15.2146 25.4364 14.5075 25.5102C12.7718 25.6822 11.1218 25.8542 9.72889 25.8542C6.04318 25.8542 4.67175 24.6746 4.65032 21.5042C4.62889 17.9161 6.47175 13.5907 9.47175 10.1991C12.836 6.38982 17.0146 4.27626 21.236 4.25168H21.3218C27.6432 4.25168 35.3789 9.16694 38.036 15.483C38.2503 15.0407 38.3789 14.5983 38.4218 14.1313C35.5718 8.35592 28.8432 3.14575 21.3432 3.14575H21.2575Z" fill="black"></path><path d="M56.8074 6.95509C57.6002 6.95509 58.3502 7.10255 59.0145 7.37289C59.6788 7.64323 60.2788 8.06103 60.7717 8.55255C61.2645 9.06865 61.6502 9.65849 61.9288 10.3712C62.2074 11.0839 62.3359 11.8458 62.3359 12.6568V20.8898H61.3931V12.6568C61.3931 11.9687 61.2859 11.3297 61.0502 10.7644C60.8145 10.1746 60.5145 9.68306 60.1074 9.26527C59.7002 8.84747 59.2288 8.52797 58.6717 8.28221C58.1145 8.03645 57.4931 7.91357 56.8288 7.91357C56.1645 7.91357 55.5431 8.03645 54.986 8.28221C54.4288 8.52797 53.936 8.84747 53.5288 9.26527C53.1217 9.68306 52.8002 10.1746 52.5645 10.7644C52.3288 11.3542 52.2217 11.9687 52.2217 12.6568V20.8898H51.2788V12.6814C51.2788 11.8458 51.4074 11.0839 51.686 10.3958C51.9645 9.68306 52.3502 9.09323 52.8431 8.57713C53.336 8.06102 53.936 7.66781 54.6002 7.39747C55.2645 7.10255 56.0145 6.95509 56.8074 6.95509ZM75.4717 16.6627C75.2788 17.1297 75.0431 17.572 74.7645 17.9898C74.4859 18.4076 74.1431 18.8009 73.736 19.1203C73.3288 19.4644 72.836 19.7348 72.2574 19.9314C71.6788 20.128 70.9931 20.2263 70.2431 20.2263C69.6217 20.2263 69.0431 20.128 68.486 19.9559C67.9288 19.7593 67.4145 19.5136 66.9431 19.1695C66.4717 18.8254 66.0645 18.4322 65.7002 17.9407C65.336 17.4737 65.0574 16.9331 64.8645 16.3432L76.2217 11.4034C75.9645 10.7398 75.6431 10.15 75.2145 9.58475C74.8074 9.0195 74.3359 8.55255 73.8002 8.15933C73.2645 7.76611 72.686 7.44662 72.0645 7.22543C71.4431 7.00424 70.7788 6.90594 70.0931 6.90594C69.1931 6.90594 68.336 7.10255 67.5431 7.47119C66.7502 7.83984 66.0431 8.35594 65.4431 9.0195C64.8431 9.68306 64.3717 10.4449 64.0288 11.3051C63.686 12.1898 63.5145 13.0992 63.5145 14.0822C63.5145 15.0653 63.686 15.9992 64.0288 16.8593C64.3717 17.7195 64.8645 18.4814 65.4645 19.0958C66.0645 19.7348 66.7717 20.2263 67.6074 20.5949C68.4217 20.9636 69.3002 21.1602 70.2431 21.1602C71.786 21.1602 73.0931 20.767 74.1645 20.0051C75.2145 19.2187 76.0074 18.1127 76.5002 16.6136H75.4717V16.6627ZM64.436 14.1068C64.436 13.2466 64.586 12.4356 64.886 11.6737C65.186 10.9119 65.5931 10.2483 66.1074 9.68306C66.6217 9.1178 67.2217 8.67543 67.9074 8.35594C68.5931 8.03645 69.3217 7.86441 70.0717 7.86441C71.1002 7.86441 72.0431 8.13475 72.8788 8.70001C73.736 9.26526 74.4002 10.0025 74.8931 10.9119L64.5645 15.3848C64.4788 14.967 64.436 14.5246 64.436 14.1068ZM88.6288 7.27459H87.686V15.5076C87.686 16.1958 87.5788 16.8348 87.3431 17.4C87.1074 17.9898 86.786 18.4814 86.3788 18.8992C85.9717 19.317 85.4788 19.6364 84.9217 19.8822C84.3645 20.128 83.7431 20.2509 83.0788 20.2509C82.4145 20.2509 81.7931 20.128 81.2574 19.8822C80.7002 19.6364 80.2288 19.317 79.8217 18.8992C79.4145 18.4814 79.0931 17.9898 78.8574 17.4C78.6217 16.8102 78.5145 16.1958 78.5145 15.5076V7.27459H77.5717V15.5076C77.5717 16.3432 77.7002 17.1051 77.9788 17.7932C78.2574 18.4814 78.6431 19.0958 79.136 19.6119C79.6288 20.128 80.2074 20.5212 80.8931 20.7915C81.5574 21.0619 82.3074 21.2093 83.1002 21.2093C83.8931 21.2093 84.6431 21.0619 85.3288 20.7915C86.0145 20.5212 86.5931 20.1034 87.0859 19.6119C87.5788 19.0958 87.9645 18.5059 88.2431 17.7932C88.5217 17.1051 88.6502 16.3432 88.6502 15.5076V7.27459H88.6288ZM90.7931 20.8898H91.736V12.6568C91.736 10.961 92.2074 9.70764 93.1717 8.89662C94.1359 8.0856 95.4431 7.74153 97.1145 7.88899V6.97967C96.1288 6.88136 95.2502 6.93052 94.4574 7.1517C93.6859 7.37289 93.0217 7.74153 92.4645 8.23306C91.9288 8.72458 91.5002 9.36357 91.2002 10.1009C90.9002 10.8381 90.7717 11.6983 90.7717 12.6322V20.8898H90.7931ZM109.8 14.1314C109.8 13.1483 109.629 12.2144 109.286 11.3542C108.943 10.4941 108.472 9.73221 107.872 9.06865C107.272 8.42967 106.565 7.91357 105.772 7.52035C104.979 7.1517 104.122 6.95509 103.222 6.95509C102.322 6.95509 101.465 7.1517 100.672 7.52035C99.8788 7.88899 99.1717 8.40509 98.5717 9.06865C97.9717 9.70763 97.5002 10.4695 97.1574 11.3542C96.8145 12.2144 96.6431 13.1483 96.6431 14.1314C96.6431 15.1144 96.8145 16.0237 97.1574 16.8839C97.5002 17.7441 97.9717 18.4814 98.5717 19.1203C99.1717 19.7593 99.8574 20.2754 100.672 20.6441C101.465 21.0127 102.322 21.2093 103.222 21.2093C104.443 21.2093 105.557 20.8898 106.543 20.2263C107.529 19.5627 108.3 18.7026 108.836 17.6212V20.8898H109.779V14.1314H109.8ZM108.836 14.1314C108.836 14.967 108.686 15.778 108.386 16.5153C108.086 17.2526 107.679 17.8915 107.165 18.4568C106.65 19.022 106.05 19.4398 105.365 19.7593C104.679 20.0788 103.95 20.2263 103.2 20.2263C102.429 20.2263 101.7 20.0788 101.036 19.7593C100.35 19.4398 99.7502 18.9975 99.236 18.4568C98.7217 17.8915 98.3145 17.2526 98.0145 16.5153C97.7145 15.778 97.5645 14.9915 97.5645 14.1314C97.5645 13.2958 97.7145 12.4848 98.0145 11.7229C98.3145 10.961 98.7217 10.2975 99.236 9.75679C99.7502 9.19154 100.35 8.74916 101.036 8.42967C101.722 8.11018 102.45 7.93814 103.2 7.93814C103.972 7.93814 104.7 8.11018 105.365 8.42967C106.05 8.74916 106.65 9.19154 107.165 9.75679C107.679 10.322 108.086 10.961 108.386 11.7229C108.707 12.4848 108.836 13.2712 108.836 14.1314ZM112.35 1.22882H111.407V16.1958C111.407 16.9576 111.515 17.6458 111.707 18.2356C111.9 18.85 112.2 19.3661 112.586 19.7593C112.972 20.1771 113.443 20.472 114 20.6932C114.557 20.8898 115.2 20.9636 115.907 20.8898V19.9805C115.286 20.0051 114.729 19.9559 114.3 19.7593C113.85 19.5873 113.486 19.317 113.207 18.9729C112.929 18.6288 112.715 18.211 112.586 17.7441C112.457 17.2771 112.372 16.7365 112.372 16.1466V1.22882H112.35ZM128.936 14.1314C128.936 13.1483 128.765 12.2144 128.422 11.3542C128.079 10.4941 127.607 9.73221 127.007 9.06865C126.407 8.42967 125.7 7.91357 124.907 7.52035C124.115 7.1517 123.257 6.95509 122.357 6.95509C121.457 6.95509 120.6 7.1517 119.807 7.52035C119.015 7.88899 118.307 8.40509 117.707 9.06865C117.107 9.70763 116.636 10.4695 116.293 11.3542C115.95 12.2144 115.779 13.1483 115.779 14.1314C115.779 15.1144 115.95 16.0237 116.293 16.8839C116.636 17.7441 117.107 18.4814 117.707 19.1203C118.307 19.7593 118.993 20.2754 119.807 20.6441C120.6 21.0127 121.457 21.2093 122.357 21.2093C123.579 21.2093 124.693 20.8898 125.679 20.2263C126.665 19.5627 127.436 18.7026 127.972 17.6212V20.8898H128.915V14.1314H128.936ZM127.972 14.1314C127.972 14.967 127.822 15.778 127.522 16.5153C127.222 17.2526 126.815 17.8915 126.3 18.4568C125.786 19.022 125.186 19.4398 124.5 19.7593C123.815 20.0788 123.086 20.2263 122.336 20.2263C121.565 20.2263 120.836 20.0788 120.15 19.7593C119.465 19.4398 118.865 18.9975 118.35 18.4568C117.836 17.8915 117.429 17.2526 117.129 16.5153C116.829 15.778 116.679 14.9915 116.679 14.1314C116.679 13.2958 116.829 12.4848 117.129 11.7229C117.429 10.961 117.836 10.2975 118.35 9.75679C118.865 9.19154 119.465 8.74916 120.15 8.42967C120.836 8.11018 121.565 7.93814 122.336 7.93814C123.107 7.93814 123.836 8.11018 124.5 8.42967C125.186 8.74916 125.786 9.19154 126.3 9.75679C126.815 10.322 127.222 10.961 127.522 11.7229C127.822 12.4848 127.972 13.2712 127.972 14.1314Z" fill="black"></path><path d="M33.3644 19.8331C29.1429 22.2661 23.7429 23.6915 20.9144 24.3305C19.6501 24.6254 18.3215 24.9449 17.0358 25.2644C16.9286 25.289 16.8429 25.3136 16.7358 25.3381C18.1929 25.2153 19.7572 25.1169 21.3644 25.0924H21.8358C22.7358 25.0924 23.6144 25.1169 24.4929 25.1415C27.3858 24.3305 30.9858 23.0771 34.0286 21.3322C36.1715 20.1034 37.7358 18.7763 38.7215 17.4C38.5715 16.761 38.3572 16.122 38.1001 15.5076C37.2215 17.2771 35.1858 18.7763 33.3644 19.8331ZM16.8215 0.319492C12.8144 1.22881 8.46436 5.06271 4.88578 10.8873C1.65007 16.1466 -0.085645 21.6271 0.450069 24.822C0.900069 27.4517 2.89293 28.8034 6.36435 28.8034C9.45007 28.8034 13.4572 27.8203 17.3358 26.8619C18.2144 26.6407 19.1358 26.4195 20.0358 26.1983C18.1072 26.272 16.2644 26.4441 14.5929 26.6161C12.8358 26.7881 11.1644 26.9602 9.72864 26.9602C9.4715 26.9602 9.19293 26.9602 8.93578 26.9356C8.01435 27.0585 7.15721 27.1322 6.38578 27.1322C2.74293 27.1322 2.07864 25.6331 1.88578 24.5025C1.43578 21.7992 3.15007 16.589 6.08578 11.8212C9.40721 6.41441 13.5429 2.72797 17.1215 1.91695C17.9572 1.72034 18.8572 1.64661 19.8215 1.64661C26.7215 1.64661 37.5215 7.56949 38.4644 13.0991C38.5286 13.4432 38.5286 13.7873 38.4858 14.1314C38.8501 14.8441 39.1286 15.5568 39.3644 16.2695C39.9001 15.139 40.0715 13.9839 39.8572 12.7797C38.8501 6.80763 28.1572 0 19.8001 0C18.7501 0 17.7644 0.0983058 16.8215 0.319492Z" fill="black"></path><path d="M21.3641 25.0678C19.757 25.0678 18.2141 25.1907 16.7355 25.3136C14.057 25.9771 11.3141 26.6407 8.93555 26.9602C9.19269 26.9847 9.47126 26.9847 9.72841 26.9847C11.1641 26.9847 12.8141 26.8127 14.5927 26.6407C16.2641 26.4686 18.107 26.2966 20.0355 26.2229C20.4213 26.1246 20.807 26.0508 21.1927 25.9525C22.0713 25.7559 23.207 25.4856 24.4713 25.1169C23.5927 25.0924 22.7141 25.0678 21.8141 25.0678H21.3641ZM38.0784 15.483C38.3355 16.0974 38.5498 16.7364 38.6998 17.3754C38.957 17.0068 39.1713 16.6381 39.3427 16.2695C39.107 15.5568 38.807 14.8441 38.4641 14.1313C38.4213 14.5983 38.2713 15.0407 38.0784 15.483Z" fill="black"></path><path d="M24.0213 12.411C24.0213 12.7305 23.8498 13.7135 23.3998 14.2542C23.0141 14.6966 22.3713 14.9178 22.007 14.9915C21.9641 14.9915 21.8998 14.9669 21.857 14.9669C21.5784 14.9669 20.7213 14.7703 20.2498 14.2542C19.8213 13.7873 19.6284 12.9517 19.607 12.5585C19.607 12.5093 19.6284 12.4601 19.6284 12.411C19.6284 11.4525 18.9427 10.6661 18.107 10.6661C17.5713 10.6661 17.0998 10.9856 16.8427 11.4771C16.6713 11.7474 16.5856 12.0915 16.5856 12.4601C16.5856 12.5093 16.5856 12.5339 16.5856 12.583C16.5427 13.0008 16.3713 13.8118 15.9641 14.2788C15.5141 14.8195 14.657 15.0161 14.3998 15.0161C13.5641 15.0161 12.8784 15.8025 12.8784 16.761C12.8784 17.7195 13.5641 18.5059 14.3998 18.5059C15.2356 18.5059 15.9213 17.7195 15.9213 16.761C15.9213 16.4415 16.0927 15.4585 16.5427 14.9178C16.9284 14.4754 17.5713 14.2542 17.9356 14.1805C17.9784 14.1805 18.0427 14.2051 18.0856 14.2051C18.3641 14.2051 19.2213 14.4017 19.6927 14.9178C20.1213 15.3847 20.3141 16.2203 20.3356 16.6135C20.3356 16.6627 20.3141 16.7118 20.3141 16.761C20.3141 17.7195 20.9998 18.5059 21.8356 18.5059C22.3713 18.5059 22.8427 18.1864 23.0998 17.6949C23.2713 17.4246 23.357 17.0805 23.357 16.7118C23.357 16.6627 23.357 16.6381 23.357 16.589C23.3998 16.1712 23.5713 15.3601 23.9784 14.9178C24.4284 14.3771 25.2641 14.1559 25.5427 14.1559C26.3784 14.1559 27.0641 13.3695 27.0641 12.411C27.0641 11.4525 26.3784 10.6661 25.5427 10.6661C24.707 10.6661 24.0213 11.4525 24.0213 12.411Z" fill="black"></path></g></g><defs><clipPath id="clip0_303_1340"><rect width="129" height="29" fill="white"></rect></clipPath><clipPath id="clip1_303_1340"><rect width="129" height="29" fill="white"></rect></clipPath></defs></svg> 