<svg width="36" height="36" viewBox="0 0 36 36" fill="none" xmlns="http://www.w3.org/2000/svg">
<g clip-path="url(#clip0_1187_3625)">
<path d="M18 4.5C10.8 4.5 4.5 10.29 4.5 18C4.5 21.18 5.61 24.105 7.455 26.415L4.5 29.385L6.615 31.5L9.57 28.545C11.895 30.39 14.82 31.5 18 31.5C21.45 31.5 24.915 30.18 27.54 27.54C30.18 24.915 31.5 21.45 31.5 18V4.5H18ZM23.745 18.39L16.005 25.335C15.765 25.56 15.39 25.545 15.165 25.32C14.955 25.11 14.925 24.78 15.105 24.54L18.765 19.545L12.69 18.945C12.03 18.885 11.745 18.06 12.24 17.61L19.98 10.665C20.22 10.44 20.595 10.455 20.82 10.68C21.03 10.89 21.06 11.22 20.88 11.46L17.22 16.455L23.295 17.055C23.97 17.115 24.24 17.94 23.745 18.39Z" fill="#4979D1"/>
</g>
<defs>
<clipPath id="clip0_1187_3625">
<rect width="36" height="36" fill="white"/>
</clipPath>
</defs>
</svg>
