<svg width="56" height="58" viewBox="0 0 56 58" fill="none" xmlns="http://www.w3.org/2000/svg">
<path d="M8.75 25.4479L1.45833 21.2917C1.02083 21.0486 0.668403 20.6962 0.401042 20.2344C0.133681 19.7726 0 19.2743 0 18.7396V10.4271C0 9.89236 0.133681 9.3941 0.401042 8.93229C0.668403 8.47049 1.02083 8.11806 1.45833 7.875L8.75 3.71875C9.1875 3.47569 9.67361 3.35417 10.2083 3.35417C10.7431 3.35417 11.2292 3.47569 11.6667 3.71875L18.9583 7.875C19.3958 8.11806 19.7483 8.47049 20.0156 8.93229C20.283 9.3941 20.4167 9.89236 20.4167 10.4271V18.7396C20.4167 19.2743 20.283 19.7726 20.0156 20.2344C19.7483 20.6962 19.3958 21.0486 18.9583 21.2917L11.6667 25.4479C11.2292 25.691 10.7431 25.8125 10.2083 25.8125C9.67361 25.8125 9.1875 25.691 8.75 25.4479ZM42.2917 32.0833V21.7292L49.5833 26.0313C50.5069 26.566 51.224 27.2708 51.7344 28.1458C52.2448 29.0208 52.5 29.9931 52.5 31.0625V44.7708C52.5 45.8403 52.2448 46.8125 51.7344 47.6875C51.224 48.5625 50.5069 49.2674 49.5833 49.8021L37.9167 56.5833C36.9931 57.1181 36.0208 57.3854 35 57.3854C33.9792 57.3854 33.0069 57.1181 32.0833 56.5833L20.4167 49.8021C19.4931 49.2674 18.776 48.5625 18.2656 47.6875C17.7552 46.8125 17.5 45.8403 17.5 44.7708V31.0625C17.5 29.9931 17.7552 29.0208 18.2656 28.1458C18.776 27.2708 19.4931 26.566 20.4167 26.0313L27.7083 21.7292V32.0833C27.7083 34.125 28.4132 35.8507 29.8229 37.2604C31.2326 38.6701 32.9583 39.375 35 39.375C37.0417 39.375 38.7674 38.6701 40.1771 37.2604C41.5868 35.8507 42.2917 34.125 42.2917 32.0833ZM37.9167 17.5V32.0833C37.9167 32.9097 37.6372 33.6024 37.0781 34.1615C36.5191 34.7205 35.8264 35 35 35C34.1736 35 33.4809 34.7205 32.9219 34.1615C32.3628 33.6024 32.0833 32.9097 32.0833 32.0833V2.91667C32.0833 2.09028 32.3628 1.39757 32.9219 0.838542C33.4809 0.279514 34.1736 0 35 0H52.8646C54.0312 0 54.9062 0.510417 55.4896 1.53125C56.0729 2.55208 56.0243 3.54861 55.3438 4.52083L53.5938 7.14583C53.2535 7.63195 53.0833 8.16667 53.0833 8.75C53.0833 9.33333 53.2535 9.86806 53.5938 10.3542L55.3438 12.9792C56.0243 13.9514 56.0729 14.9479 55.4896 15.9688C54.9062 16.9896 54.0312 17.5 52.8646 17.5H37.9167Z" fill="#0000FF"/>
</svg>
