<svg width="50" height="50" viewBox="0 0 50 50" fill="none" xmlns="http://www.w3.org/2000/svg">
<g clip-path="url(#clip0_404_1912)">
<path d="M26.5225 37.0254L14.0732 25L26.5225 12.9756L25.4536 11.8701L11.8608 25L25.4536 38.1289L26.5225 37.0254Z" fill="#0000FF"/>
<path d="M38.1396 25.7695L17.7197 25.7695V24.2322L38.1396 24.2322V25.7695Z" fill="#0000FF"/>
<mask id="mask0_404_1912" style="mask-type:luminance" maskUnits="userSpaceOnUse" x="0" y="0" width="50" height="50">
<path d="M49.6006 49.6006L0.400383 49.6006L0.400383 0.400383L49.6006 0.400383L49.6006 49.6006Z" fill="white"/>
</mask>
<g mask="url(#mask0_404_1912)">
<path d="M25 49.6006C38.5869 49.6006 49.6006 38.5879 49.6006 25C49.6006 11.4131 38.5879 0.399414 25 0.399414C11.4131 0.399414 0.399414 11.4121 0.399414 25C0.399796 38.5869 11.4131 49.6006 25 49.6006ZM25 1.9375C37.7168 1.9375 48.0625 12.2832 48.0625 25C48.0625 37.7168 37.7158 48.0625 25 48.0625C12.2842 48.0625 1.9375 37.7168 1.9375 25C1.9375 12.2832 12.2832 1.9375 25 1.9375Z" fill="#0000FF"/>
</g>
</g>
<defs>
<clipPath id="clip0_404_1912">
<rect width="50" height="50" fill="white" transform="matrix(-1 0 0 -1 50 50)"/>
</clipPath>
</defs>
</svg>
