<svg width="71" height="71" viewBox="0 0 71 71" fill="none" xmlns="http://www.w3.org/2000/svg">
<path d="M8.37313 32.4649C9.76711 34.8787 12.0536 36.6396 14.7328 37.3618C17.4125 38.084 20.2671 37.7091 22.6729 36.3198L32.5532 30.5791C34.195 31.5595 36.0653 32.0847 37.9744 32.1C39.8836 32.1155 41.7621 31.6217 43.4198 30.6678L58.3801 21.9766C63.4442 19.1698 65.3069 12.1757 62.3144 7.20009C60.8871 4.71813 58.5399 2.90707 55.788 2.16458C53.0362 1.42257 50.1038 1.80899 47.6347 3.23962L37.6772 9.03044C34.4977 7.28435 30.6428 7.33662 27.5109 9.16916L12.2033 18.0656C7.27147 20.7942 5.45315 27.622 8.37355 32.4645L8.37313 32.4649ZM42.5597 14.5164L51.0128 9.60194V9.60249C51.7204 9.16709 52.5615 9.0058 53.3785 9.14891C54.1961 9.29148 54.9332 9.72854 55.4539 10.3786C56.0221 11.1421 56.2403 12.112 56.0538 13.0473C55.8679 13.982 55.2947 14.7928 54.4788 15.2766C54.3683 15.3377 46.7033 19.7914 42.4388 22.2707H42.4383C43.4483 19.7937 43.4916 17.0243 42.5597 14.5164ZM13.0295 19.5085L28.3371 10.6175C30.6471 9.2634 33.4466 9.05265 35.9304 10.0462L32.6847 11.932C31.6839 12.5001 30.787 13.2372 30.0345 14.1119L15.2337 22.7089C14.1558 23.3111 13.3333 24.2882 12.9193 25.4573C12.5054 26.626 12.5289 27.9069 12.9855 29.0595C13.5466 30.3723 14.6365 31.3834 15.9818 31.8393C17.3277 32.2956 18.8031 32.1542 20.039 31.4501L35.0386 22.7309C35.9322 22.2014 36.6475 21.4137 37.0916 20.4702C37.5356 19.5273 37.6882 18.4709 37.5291 17.4394L41.1111 15.3592V15.3597C41.7471 17.3288 41.6968 19.4567 40.9684 21.3932C40.2399 23.3297 38.8771 24.9574 37.1052 26.0088L21.8466 34.8778C19.8198 36.0893 17.3956 36.4339 15.1151 35.8339C12.8341 35.2339 10.8873 33.7401 9.70875 31.6852C8.52969 29.6309 8.21803 27.1863 8.84196 24.8987C9.46594 22.6105 10.9742 20.6695 13.0299 19.5086L13.0295 19.5085ZM35.9358 18.4104C35.8898 19.4067 35.4277 20.3375 34.6632 20.9728C34.6906 19.9715 35.1565 19.0335 35.9358 18.4104ZM27.9296 24.9437L19.2118 30.0079C18.3871 30.478 17.4027 30.5727 16.5042 30.2677C15.6062 29.9628 14.8795 29.2874 14.506 28.4105C14.2156 27.631 14.2128 26.7723 14.4978 25.9906C14.7832 25.209 15.3372 24.5561 16.0602 24.151L28.1718 17.1123C27.1262 19.6015 27.0398 22.3939 27.9296 24.9437Z" fill="#0000FF"/>
<mask id="mask0_404_1784" style="mask-type:luminance" maskUnits="userSpaceOnUse" x="49" y="41" width="22" height="30">
<path d="M49.2351 41.4103H70.3751V70.4251H49.2351V41.4103Z" fill="white"/>
</mask>
<g mask="url(#mask0_404_1784)">
<path d="M52.1623 69.3119C52.0737 69.5667 52.1126 69.8491 52.2668 70.0698C52.421 70.2911 52.6715 70.4238 52.9395 70.426H67.7627C68.367 70.4254 68.9499 70.2042 69.4033 69.8023C69.8567 69.401 70.1492 68.8467 70.2264 68.2439C70.5939 65.0496 69.8244 61.8273 68.0547 59.1499C66.2849 56.473 63.63 54.5134 60.5609 53.62C62.137 52.5505 63.1799 50.8502 63.4226 48.9522C63.666 47.0542 63.0858 45.143 61.8301 43.7058C60.5751 42.2692 58.766 41.4457 56.8645 41.4457C54.9636 41.4457 53.1545 42.2692 51.8988 43.7058C50.6437 45.143 50.0636 47.0543 50.3063 48.9522C50.5491 50.8502 51.592 52.5505 53.1686 53.62C51.9502 53.9712 50.7869 54.4941 49.7145 55.1733C49.5242 55.295 49.3913 55.4893 49.3465 55.7117C49.3011 55.9341 49.3481 56.1653 49.4756 56.3524C51.9267 59.8897 52.9597 64.2278 52.3685 68.4993C52.3275 68.7762 52.2586 69.0487 52.1623 69.3119Z" fill="#0000FF"/>
</g>
<mask id="mask1_404_1784" style="mask-type:luminance" maskUnits="userSpaceOnUse" x="0" y="41" width="22" height="30">
<path d="M0.375 41.4103H21.515V70.4251H0.375V41.4103Z" fill="white"/>
</mask>
<g mask="url(#mask1_404_1784)">
<path d="M21.0572 55.1286C20.0006 54.4686 18.8588 53.9594 17.6633 53.616C19.2394 52.5465 20.2823 50.8456 20.525 48.9482C20.7679 47.0501 20.1876 45.139 18.932 43.7023C17.6769 42.265 15.8678 41.4415 13.9669 41.4415C12.0654 41.4415 10.2563 42.265 9.00123 43.7023C7.74559 45.1389 7.16541 47.0501 7.40817 48.9482C7.65153 50.8456 8.69387 52.5465 10.2705 53.616C7.20027 54.5094 4.54418 56.469 2.77388 59.1475C1.00414 61.8255 0.234705 65.049 0.603325 68.2439C0.680434 68.8466 0.97301 69.4004 1.42637 69.8017C1.87973 70.2035 2.46215 70.4254 3.06591 70.4259H17.8093C18.0773 70.4237 18.3277 70.291 18.482 70.0703C18.6362 69.849 18.675 69.5672 18.587 69.3123C18.4907 69.0465 18.4213 68.7718 18.3808 68.4922C17.7885 64.2063 18.8325 59.8538 21.3011 56.3116C21.429 56.1239 21.4755 55.8911 21.429 55.6676C21.3831 55.4447 21.2485 55.2498 21.0566 55.1287L21.0572 55.1286Z" fill="#0000FF"/>
</g>
<mask id="mask2_404_1784" style="mask-type:luminance" maskUnits="userSpaceOnUse" x="19" y="36" width="32" height="35">
<path d="M19.835 36.901H50.915V70.425H19.835V36.901Z" fill="white"/>
</mask>
<g mask="url(#mask2_404_1784)">
<path d="M22.4797 70.425H48.2691C48.869 70.4201 49.4476 70.1982 49.8994 69.8003C50.3511 69.4017 50.6459 68.854 50.7301 68.2557C50.8285 67.5649 50.8783 66.868 50.8794 66.17C50.875 62.7258 49.7408 59.3795 47.6528 56.6509C45.5648 53.9223 42.6401 51.9637 39.3332 51.0803C41.2085 49.9156 42.4832 47.9845 42.8234 45.7937C43.1641 43.6029 42.5352 41.3719 41.1029 39.6875C39.6707 38.0026 37.5777 37.0327 35.3749 37.0327C33.1716 37.0327 31.0792 38.0026 29.6464 39.6875C28.2142 41.3719 27.5858 43.6029 27.926 45.7937C28.2661 47.9845 29.5414 49.9155 31.4162 51.0803C28.1087 51.9638 25.1839 53.9218 23.096 56.6509C21.008 59.3795 19.8737 62.7257 19.8694 66.17C19.8705 66.8679 19.9202 67.5648 20.0181 68.2557C20.1029 68.854 20.3977 69.4023 20.8494 69.8003C21.3011 70.1982 21.8797 70.4201 22.4801 70.425H22.4797Z" fill="#0000FF"/>
</g>
<path d="M12.492 12.7973C13.3746 13.0351 14.2819 12.5077 14.5182 11.6193C14.7545 10.7309 14.2305 9.81823 13.3479 9.5798L9.08991 8.43266C8.20725 8.19486 7.30057 8.7222 7.06425 9.61009C6.828 10.4985 7.3519 11.4117 8.23402 11.6496L12.492 12.7973Z" fill="#0000FF"/>
<path d="M22.7932 6.80688L23.934 2.52104H23.9334C24.1702 1.63315 23.6463 0.719987 22.7637 0.48212C21.881 0.244253 20.9738 0.771659 20.7374 1.6601L19.5961 5.94593C19.3599 6.83382 19.8838 7.74698 20.7664 7.98485C21.6491 8.22272 22.5563 7.69531 22.7927 6.80688H22.7932Z" fill="#0000FF"/>
<path d="M58.2579 25.9983C57.3753 25.7605 56.4686 26.2878 56.2317 27.1762C55.9955 28.0641 56.5194 28.9773 57.402 29.2152L61.66 30.364C62.5427 30.6018 63.4493 30.0744 63.6862 29.186C63.9225 28.2975 63.3986 27.3849 62.5159 27.1471L58.2579 25.9983Z" fill="#0000FF"/>
<path d="M47.9567 31.9887L46.816 36.2745C46.5797 37.1629 47.1036 38.0761 47.9857 38.314C48.8684 38.5518 49.7756 38.0244 50.0119 37.136L51.1533 32.8502C51.3895 31.9617 50.8656 31.0491 49.983 30.8112C49.1003 30.5729 48.1936 31.1002 47.9573 31.9887L47.9567 31.9887Z" fill="#0000FF"/>
</svg>
