<svg width="70" height="70" viewBox="0 0 70 70" fill="none" xmlns="http://www.w3.org/2000/svg">
<path d="M9.84642 60.0045C12.7551 60.0045 14.9464 57.3332 15.8278 54.6875C16.133 53.7785 16.2877 52.8788 16.2877 52.0128C16.2877 51.7782 16.2772 51.5522 16.2545 51.335C15.9231 47.9075 13.168 45.3221 9.84644 45.3221C6.52207 45.3221 3.7658 47.9075 3.43613 51.3233C3.41113 51.5527 3.40125 51.7781 3.40125 52.0127C3.40125 52.8776 3.5559 53.7773 3.85995 54.684C4.7425 57.3331 6.93607 60.0044 9.84653 60.0044L9.84642 60.0045Z" fill="#0000FF"/>
<path d="M16.541 58.1904C15.0417 60.4488 12.726 62.2115 9.8475 62.2115C6.96963 62.2115 4.6429 60.4492 3.15396 58.1904C1.30171 58.9507 0 60.7682 0 62.894V68.8981C0 69.515 0.496498 70 1.1029 70H18.5806C19.1869 70 19.6835 69.5156 19.6835 68.8981V62.894C19.6835 60.7792 18.3817 58.9619 16.5405 58.1904H16.541Z" fill="#0000FF"/>
<path d="M28.5922 51.3268C28.5683 51.555 28.5579 51.7798 28.5579 52.0133C28.5579 52.877 28.7125 53.7767 29.0172 54.6846C29.8991 57.3331 32.0921 60.0044 35.0037 60.0044C37.9124 60.0044 40.1043 57.3331 40.9855 54.6862C41.2908 53.7761 41.4454 52.8769 41.4454 52.0127C41.4454 51.7781 41.4349 51.5521 41.4123 51.3349C41.0809 47.9074 38.3257 45.322 35.0036 45.322C31.6792 45.3226 28.923 47.908 28.5922 51.3268Z" fill="#0000FF"/>
<path d="M41.7045 58.1904C40.2052 60.4488 37.8784 62.2115 35 62.2115C32.1331 62.2115 29.8064 60.4492 28.3064 58.1904C26.4542 58.9618 25.1525 60.7792 25.1525 62.894V68.8981C25.1525 69.515 25.6484 70 26.2554 70H43.733C44.3504 70 44.8359 69.5156 44.8359 68.8981V62.894C44.8359 60.7792 43.5458 58.9619 41.704 58.1904H41.7045Z" fill="#0000FF"/>
<path d="M53.7512 51.3237C53.7262 51.5532 53.7163 51.7785 53.7163 52.0132C53.7163 52.8792 53.871 53.7789 54.1756 54.6845C55.0576 57.333 57.2505 60.0043 60.1622 60.0043C63.0703 60.0043 65.2622 57.333 66.144 54.6861C66.4486 53.7771 66.6033 52.8774 66.6033 52.0126C66.6033 51.7779 66.5928 51.552 66.5701 51.3348C66.2387 47.9072 63.4836 45.3219 60.1621 45.3219C56.8377 45.3225 54.0815 47.908 53.7512 51.3237Z" fill="#0000FF"/>
<path d="M66.8576 58.1904C65.3582 60.4488 63.0315 62.2115 60.164 62.2115C57.2862 62.2115 54.9594 60.4492 53.4595 58.1904C51.6182 58.9618 50.3165 60.7792 50.3165 62.894V68.8981C50.3165 69.515 50.813 70 51.4194 70H68.8971C69.5035 70 70 69.5156 70 68.8981V62.894C70 60.7792 68.6988 58.9619 66.857 58.1904H66.8576Z" fill="#0000FF"/>
<path d="M33.8506 12.9817C33.4657 13.0787 33.1465 13.2268 32.8977 13.4237C32.5896 13.6671 32.4465 13.9639 32.4465 14.3577C32.4465 14.7201 32.5715 14.9774 32.8401 15.1691L32.8419 15.1703C33.0837 15.3445 33.4221 15.5037 33.8512 15.6471L33.8506 12.9817Z" fill="#0000FF"/>
<path d="M18.1395 20.1294L21.5395 20.7898C21.8587 21.7836 22.3401 22.706 22.8261 23.5383L21.0169 26.2501C20.7256 26.6869 20.7826 27.2689 21.1541 27.6401L24.2198 30.7063C24.5936 31.0798 25.1802 31.1355 25.618 30.8399L28.3383 29.0016C29.19 29.4686 30.1161 29.8426 31.1039 30.1191L31.7481 33.2701C31.8533 33.7835 32.305 34.1512 32.8289 34.1512H37.1625C37.6863 34.1512 38.1375 33.7835 38.2427 33.2712L38.8886 30.1219C39.9159 29.8414 40.8345 29.4807 41.6683 29.0288L44.3839 30.8555C44.8217 31.1523 45.4077 31.093 45.7798 30.7207L48.8535 27.6481C49.2233 27.2781 49.282 26.6979 48.9936 26.2622L47.1914 23.5358C47.7065 22.6042 48.0943 21.6951 48.3635 20.7838L51.6477 20.1263C52.1622 20.0229 52.5331 19.571 52.5331 19.0459V14.7158C52.5331 14.1884 52.1593 13.736 51.6418 13.6343L48.3583 12.9931C48.0891 12.1067 47.6931 11.1984 47.1612 10.2452L48.974 7.5408C49.2688 7.10169 49.2089 6.51563 48.8321 6.14448L45.7664 3.12422C45.3909 2.75423 44.806 2.70254 44.3705 2.99818L41.6311 4.86562C40.8433 4.45439 39.9573 4.12563 38.8794 3.84277L38.2411 0.870095C38.1323 0.362441 37.6835 0 37.1632 0H32.8295C32.3098 0 31.8615 0.361281 31.7516 0.869514L31.1115 3.83238C30.1831 4.05194 29.2441 4.30692 28.3483 4.75126L25.5872 2.92679C25.1529 2.64044 24.5745 2.69678 24.2035 3.06213L21.1158 6.11331C20.7431 6.48099 20.6815 7.06007 20.9676 7.49802L22.746 10.2233C22.2059 11.1875 21.8059 12.1005 21.535 12.9851L18.1432 13.6362C17.6234 13.7361 17.2484 14.1903 17.2484 14.7183V19.0484C17.2478 19.5752 17.6217 20.0294 18.1397 20.1293L18.1395 20.1294ZM32.1596 17.5035C31.5776 17.2421 31.0852 16.8646 30.698 16.3802C30.2899 15.8754 30.0823 15.2342 30.0823 14.4761C30.0823 13.8198 30.2463 13.2047 30.5684 12.6483C30.8922 12.0912 31.3753 11.6254 32.005 11.2635C32.5317 10.9621 33.1514 10.76 33.8514 10.6624V9.84921C33.8514 9.59828 33.9398 9.37235 34.1072 9.19519C34.4531 8.8281 35.0729 8.8252 35.4357 9.18532C35.6142 9.36305 35.7089 9.59191 35.7089 9.84921V10.624C36.6955 10.6961 37.5938 10.8842 38.3845 11.1857C38.8589 11.3559 39.1241 11.7346 39.1241 12.2474C39.1241 12.5274 39.0287 12.7812 38.8404 13.0037C38.556 13.3382 38.1811 13.5096 37.6055 13.2703C37.0241 13.0658 36.3834 12.9317 35.7084 12.8724V16.1281C36.3997 16.3023 36.9939 16.494 37.4759 16.6961C38.0724 16.947 38.5787 17.3257 38.981 17.8212C39.4008 18.341 39.6136 19.0218 39.6136 19.8459C39.6136 20.5215 39.4281 21.1435 39.0636 21.6954L39.063 21.6966C38.7008 22.2408 38.1845 22.6776 37.5287 22.9965C36.9932 23.2555 36.3822 23.4257 35.7084 23.5024V24.3213C35.7084 24.5798 35.6171 24.8063 35.4427 24.9777C35.2694 25.1496 35.0375 25.2414 34.7718 25.2414C34.5212 25.2414 34.298 25.1566 34.1259 24.9963C33.9986 24.8737 33.8515 24.6617 33.8515 24.3219V23.5041C32.7329 23.3943 31.6701 23.1277 30.6887 22.7089C30.4818 22.6241 30.3062 22.4795 30.1719 22.2838C30.0352 22.0903 29.9643 21.8708 29.9643 21.6361C29.9643 21.3446 30.069 21.0756 30.2666 20.8607C30.5858 20.5099 31.1224 20.4205 31.5619 20.6197C32.2893 20.9426 33.0579 21.1459 33.8509 21.2266L33.8515 18.1007C33.1974 17.9165 32.6288 17.7155 32.1596 17.5035Z" fill="#0000FF"/>
<path d="M37.2647 19.7443C37.2647 19.4493 37.1409 19.2442 36.8642 19.0752C36.5886 18.9085 36.2008 18.7459 35.7084 18.5902V21.208C37.0932 20.9901 37.2647 20.281 37.2647 19.7443Z" fill="#0000FF"/>
<path d="M36.1039 36.3549H33.8988V43.1959C34.2627 43.1408 34.6267 43.1193 35.0017 43.1193C35.3767 43.1193 35.7406 43.1413 36.1046 43.1959L36.1039 36.3549Z" fill="#0000FF"/>
<path d="M10.9508 43.1963V41.621C10.9508 40.9269 11.513 40.3652 12.2078 40.3652H31.6932V38.1622L12.2078 38.1616C10.3003 38.1616 8.745 39.7147 8.745 41.6205V43.1958C9.10894 43.1406 9.47289 43.1191 9.84789 43.1191C10.2229 43.1191 10.5979 43.1411 10.9508 43.1963Z" fill="#0000FF"/>
<path d="M38.3096 40.3651H57.7951C58.4898 40.3651 59.052 40.9268 59.052 41.6209V43.2072C59.416 43.1409 59.791 43.1194 60.166 43.1194C60.541 43.1194 60.9049 43.1415 61.2578 43.1961V41.6209C61.2578 39.7152 59.7032 38.162 57.795 38.162L38.3096 38.1614L38.3096 40.3651Z" fill="#0000FF"/>
</svg>
