<svg width="33" height="38" viewBox="0 0 33 38" fill="none" xmlns="http://www.w3.org/2000/svg">
<path d="M18.727 28.1288C26.3772 28.1288 32.579 21.9271 32.579 14.2768C32.579 6.62656 26.3772 0.424805 18.727 0.424805C11.0768 0.424805 4.875 6.62656 4.875 14.2768C4.875 21.9271 11.0768 28.1288 18.727 28.1288Z" fill="#9FD4FF"/>
<path d="M4.32422 18.6498V14.802C4.32422 13.3847 5.47214 12.2368 6.88941 12.2368H24.8458C26.263 12.2368 27.4109 13.3847 27.4109 14.802V30.1932C27.4109 31.6104 26.263 32.7584 24.8458 32.7584H17.1502" stroke="#001D4A" stroke-width="1.5" stroke-linecap="round" stroke-linejoin="round"/>
<path d="M12.0211 32.7584L11.6992 31.9503C11.5363 31.5412 11.2836 31.1732 10.9604 30.8743C10.4128 30.3664 9.69323 30.0854 8.94804 30.0854H6.11607C5.3696 30.0854 4.65134 30.3677 4.10368 30.8743C3.78046 31.1732 3.52779 31.5412 3.3649 31.9503L3.04297 32.7584" stroke="#001D4A" stroke-width="1.5" stroke-linecap="round" stroke-linejoin="round"/>
<path d="M9.1205 23.1555C9.99651 24.0315 9.99651 25.4527 9.1205 26.33C8.24448 27.206 6.82337 27.206 5.94607 26.33C5.07006 25.4539 5.07006 24.0328 5.94607 23.1555C6.82337 22.2782 8.24448 22.2782 9.1205 23.1555Z" stroke="#001D4A" stroke-width="1.5" stroke-linecap="round" stroke-linejoin="round"/>
<path d="M14.5865 26.3455V18.6499" stroke="#001D4A" stroke-width="1.5" stroke-linecap="round" stroke-linejoin="round"/>
<path d="M18.4343 26.3451V22.0869" stroke="#001D4A" stroke-width="1.5" stroke-linecap="round" stroke-linejoin="round"/>
<path d="M22.2819 26.3451V19.355" stroke="#001D4A" stroke-width="1.5" stroke-linecap="round" stroke-linejoin="round"/>
</svg>
