<svg width="40" height="40" viewBox="0 0 40 40" fill="none" xmlns="http://www.w3.org/2000/svg">
<g clip-path="url(#clip0_514_249)">
<path d="M21.218 29.6201L11.2586 19.9998L21.218 10.3803L20.3629 9.4959L9.48872 19.9998L20.3629 30.5029L21.218 29.6201Z" fill="white"/>
<path d="M30.5117 20.6157L14.1758 20.6157V19.3859L30.5117 19.3859V20.6157Z" fill="white"/>
<mask id="mask0_514_249" style="mask-type:luminance" maskUnits="userSpaceOnUse" x="0" y="0" width="40" height="40">
<path d="M39.6804 39.6807L0.320259 39.6807L0.320259 0.320503L39.6804 0.320503L39.6804 39.6807Z" fill="white"/>
</mask>
<g mask="url(#mask0_514_249)">
<path d="M19.9999 39.6807C30.8695 39.6807 39.6804 30.8705 39.6804 20.0002C39.6804 9.13066 30.8703 0.319725 19.9999 0.319725C9.13042 0.319725 0.319481 9.12988 0.319481 20.0002C0.319786 30.8697 9.13042 39.6807 19.9999 39.6807ZM19.9999 1.55019C30.1734 1.55019 38.45 9.82676 38.45 20.0002C38.45 30.1736 30.1726 38.4502 19.9999 38.4502C9.82729 38.4502 1.54995 30.1736 1.54995 20.0002C1.54995 9.82676 9.82651 1.55019 19.9999 1.55019Z" fill="white"/>
</g>
<mask id="mask1_514_249" style="mask-type:luminance" maskUnits="userSpaceOnUse" x="0" y="0" width="40" height="40">
<path d="M39.6804 39.6807L0.320259 39.6807L0.320259 0.320503L39.6804 0.320503L39.6804 39.6807Z" fill="white"/>
</mask>
<g mask="url(#mask1_514_249)">
<path d="M19.9999 39.6807C30.8695 39.6807 39.6804 30.8705 39.6804 20.0002C39.6804 9.13066 30.8703 0.319725 19.9999 0.319725C9.13042 0.319725 0.319481 9.12988 0.319481 20.0002C0.319786 30.8697 9.13042 39.6807 19.9999 39.6807ZM19.9999 1.55019C30.1734 1.55019 38.45 9.82676 38.45 20.0002C38.45 30.1736 30.1726 38.4502 19.9999 38.4502C9.82729 38.4502 1.54995 30.1736 1.54995 20.0002C1.54995 9.82676 9.82651 1.55019 19.9999 1.55019Z" fill="white"/>
</g>
</g>
<defs>
<clipPath id="clip0_514_249">
<rect width="40" height="40" fill="white" transform="matrix(-1 0 0 -1 40 40)"/>
</clipPath>
</defs>
</svg>
