<svg width="40" height="40" viewBox="0 0 40 40" fill="none" xmlns="http://www.w3.org/2000/svg">
<g clip-path="url(#clip0_514_235)">
<path d="M18.782 10.3799L28.7414 20.0002L18.782 29.6197L19.6371 30.5041L30.5113 20.0002L19.6371 9.49707L18.782 10.3799Z" fill="white"/>
<path d="M9.48828 19.3843H25.8242V20.6141H9.48828V19.3843Z" fill="white"/>
<mask id="mask0_514_235" style="mask-type:luminance" maskUnits="userSpaceOnUse" x="0" y="0" width="40" height="40">
<path d="M0.31958 0.319336H39.6797V39.6795H0.31958V0.319336Z" fill="white"/>
</mask>
<g mask="url(#mask0_514_235)">
<path d="M20.0001 0.319336C9.13052 0.319336 0.31958 9.12949 0.31958 19.9998C0.31958 30.8693 9.12974 39.6803 20.0001 39.6803C30.8696 39.6803 39.6805 30.8701 39.6805 19.9998C39.6802 9.13027 30.8696 0.319336 20.0001 0.319336ZM20.0001 38.4498C9.82661 38.4498 1.55005 30.1732 1.55005 19.9998C1.55005 9.82637 9.82739 1.5498 20.0001 1.5498C30.1727 1.5498 38.4501 9.82637 38.4501 19.9998C38.4501 30.1732 30.1735 38.4498 20.0001 38.4498Z" fill="white"/>
</g>
<mask id="mask1_514_235" style="mask-type:luminance" maskUnits="userSpaceOnUse" x="0" y="0" width="40" height="40">
<path d="M0.31958 0.319336H39.6797V39.6795H0.31958V0.319336Z" fill="white"/>
</mask>
<g mask="url(#mask1_514_235)">
<path d="M20.0001 0.319336C9.13052 0.319336 0.31958 9.12949 0.31958 19.9998C0.31958 30.8693 9.12974 39.6803 20.0001 39.6803C30.8696 39.6803 39.6805 30.8701 39.6805 19.9998C39.6802 9.13027 30.8696 0.319336 20.0001 0.319336ZM20.0001 38.4498C9.82661 38.4498 1.55005 30.1732 1.55005 19.9998C1.55005 9.82637 9.82739 1.5498 20.0001 1.5498C30.1727 1.5498 38.4501 9.82637 38.4501 19.9998C38.4501 30.1732 30.1735 38.4498 20.0001 38.4498Z" fill="white"/>
</g>
</g>
<defs>
<clipPath id="clip0_514_235">
<rect width="40" height="40" fill="white"/>
</clipPath>
</defs>
</svg>
