<svg width="380" height="259" viewBox="0 0 380 259" fill="none" xmlns="http://www.w3.org/2000/svg">
<rect x="0.000244141" width="380" height="258.544" rx="20" fill="#319BFF"/>
<path d="M379 249C379 254.523 374.523 259 369 259H293V0H369C374.523 0 379 4.47716 379 10L379 249Z" fill="url(#paint0_linear_404_1875)"/>
<path d="M122 208C122 213.523 117.523 218 112 218L0.000488281 218L0.000488281 48L112 48C117.523 48 122 52.4772 122 58L122 208Z" fill="#5C8CF9"/>
<rect x="27.9709" y="103" width="318" height="52" fill="white"/>
<path d="M99.0896 134V123.818H100.626V132.678H105.239V134H99.0896ZM110.164 134.154C109.411 134.154 108.763 133.993 108.22 133.672C107.68 133.347 107.262 132.891 106.967 132.305C106.675 131.715 106.53 131.024 106.53 130.232C106.53 129.449 106.675 128.76 106.967 128.163C107.262 127.567 107.673 127.101 108.2 126.766C108.73 126.432 109.35 126.264 110.059 126.264C110.49 126.264 110.908 126.335 111.312 126.478C111.717 126.621 112.079 126.844 112.401 127.149C112.722 127.454 112.976 127.85 113.162 128.337C113.347 128.821 113.44 129.41 113.44 130.102V130.629H107.37V129.516H111.983C111.983 129.125 111.904 128.778 111.745 128.477C111.586 128.172 111.362 127.931 111.074 127.756C110.789 127.58 110.454 127.492 110.069 127.492C109.652 127.492 109.287 127.595 108.976 127.8C108.667 128.003 108.429 128.268 108.26 128.596C108.094 128.921 108.011 129.274 108.011 129.655V130.525C108.011 131.035 108.101 131.469 108.28 131.827C108.462 132.185 108.715 132.459 109.04 132.648C109.365 132.833 109.745 132.926 110.179 132.926C110.46 132.926 110.717 132.886 110.949 132.807C111.181 132.724 111.382 132.601 111.551 132.439C111.72 132.277 111.849 132.076 111.939 131.837L113.346 132.091C113.233 132.505 113.031 132.868 112.739 133.18C112.451 133.488 112.088 133.728 111.65 133.901C111.216 134.07 110.721 134.154 110.164 134.154ZM118.381 134.154C117.628 134.154 116.98 133.993 116.437 133.672C115.896 133.347 115.479 132.891 115.184 132.305C114.892 131.715 114.746 131.024 114.746 130.232C114.746 129.449 114.892 128.76 115.184 128.163C115.479 127.567 115.89 127.101 116.417 126.766C116.947 126.432 117.567 126.264 118.276 126.264C118.707 126.264 119.125 126.335 119.529 126.478C119.933 126.621 120.296 126.844 120.618 127.149C120.939 127.454 121.193 127.85 121.378 128.337C121.564 128.821 121.657 129.41 121.657 130.102V130.629H115.587V129.516H120.2C120.2 129.125 120.121 128.778 119.962 128.477C119.802 128.172 119.579 127.931 119.29 127.756C119.005 127.58 118.671 127.492 118.286 127.492C117.868 127.492 117.504 127.595 117.192 127.8C116.884 128.003 116.645 128.268 116.476 128.596C116.311 128.921 116.228 129.274 116.228 129.655V130.525C116.228 131.035 116.317 131.469 116.496 131.827C116.679 132.185 116.932 132.459 117.257 132.648C117.582 132.833 117.961 132.926 118.395 132.926C118.677 132.926 118.934 132.886 119.166 132.807C119.398 132.724 119.599 132.601 119.768 132.439C119.937 132.277 120.066 132.076 120.155 131.837L121.562 132.091C121.45 132.505 121.248 132.868 120.956 133.18C120.668 133.488 120.305 133.728 119.867 133.901C119.433 134.07 118.937 134.154 118.381 134.154ZM127.131 134V123.818H128.667V128.243H133.743V123.818H135.284V134H133.743V129.56H128.667V134H127.131ZM140.693 134.154C139.941 134.154 139.293 133.993 138.749 133.672C138.209 133.347 137.791 132.891 137.496 132.305C137.205 131.715 137.059 131.024 137.059 130.232C137.059 129.449 137.205 128.76 137.496 128.163C137.791 127.567 138.202 127.101 138.729 126.766C139.26 126.432 139.879 126.264 140.589 126.264C141.02 126.264 141.437 126.335 141.842 126.478C142.246 126.621 142.609 126.844 142.93 127.149C143.252 127.454 143.505 127.85 143.691 128.337C143.877 128.821 143.969 129.41 143.969 130.102V130.629H137.899V129.516H142.513C142.513 129.125 142.433 128.778 142.274 128.477C142.115 128.172 141.891 127.931 141.603 127.756C141.318 127.58 140.983 127.492 140.599 127.492C140.181 127.492 139.816 127.595 139.505 127.8C139.197 128.003 138.958 128.268 138.789 128.596C138.623 128.921 138.54 129.274 138.54 129.655V130.525C138.54 131.035 138.63 131.469 138.809 131.827C138.991 132.185 139.245 132.459 139.569 132.648C139.894 132.833 140.274 132.926 140.708 132.926C140.99 132.926 141.247 132.886 141.479 132.807C141.711 132.724 141.911 132.601 142.08 132.439C142.249 132.277 142.378 132.076 142.468 131.837L143.875 132.091C143.762 132.505 143.56 132.868 143.268 133.18C142.98 133.488 142.617 133.728 142.18 133.901C141.745 134.07 141.25 134.154 140.693 134.154ZM147.105 129.466V134H145.619V126.364H147.046V127.607H147.14C147.316 127.202 147.591 126.877 147.965 126.632C148.343 126.387 148.819 126.264 149.392 126.264C149.912 126.264 150.368 126.374 150.759 126.592C151.15 126.808 151.454 127.129 151.669 127.557C151.885 127.984 151.992 128.513 151.992 129.143V134H150.506V129.322C150.506 128.768 150.362 128.336 150.073 128.024C149.785 127.709 149.389 127.552 148.885 127.552C148.54 127.552 148.234 127.626 147.965 127.776C147.7 127.925 147.49 128.143 147.334 128.432C147.181 128.717 147.105 129.062 147.105 129.466ZM153.986 134V126.364H155.423V127.577H155.502C155.641 127.166 155.887 126.843 156.238 126.607C156.593 126.369 156.994 126.249 157.441 126.249C157.534 126.249 157.643 126.253 157.769 126.259C157.899 126.266 158 126.274 158.073 126.284V127.706C158.013 127.689 157.907 127.671 157.754 127.651C157.602 127.628 157.449 127.616 157.297 127.616C156.946 127.616 156.632 127.691 156.357 127.84C156.086 127.986 155.87 128.19 155.711 128.452C155.552 128.71 155.472 129.005 155.472 129.337V134H153.986ZM160.531 136.864C160.309 136.864 160.107 136.845 159.924 136.809C159.742 136.776 159.606 136.739 159.517 136.7L159.875 135.482C160.146 135.554 160.388 135.586 160.601 135.576C160.813 135.566 161 135.487 161.162 135.337C161.328 135.188 161.474 134.945 161.6 134.607L161.784 134.099L158.99 126.364H160.581L162.515 132.29H162.594L164.528 126.364H166.124L162.977 135.019C162.831 135.417 162.646 135.753 162.42 136.028C162.195 136.307 161.926 136.516 161.615 136.655C161.303 136.794 160.942 136.864 160.531 136.864Z" fill="#131523"/>
<circle cx="57.0022" cy="129" r="18" fill="#1E5EFF"/>
<path d="M53.664 136H50.698L55.2172 122.909H58.784L63.2968 136H60.3309L57.0517 125.901H56.9495L53.664 136ZM53.4786 130.854H60.4843V133.015H53.4786V130.854Z" fill="white"/>
<path d="M205.412 134.139C204.828 134.139 204.303 134.023 203.836 133.791C203.368 133.559 202.994 133.241 202.712 132.837C202.43 132.432 202.276 131.972 202.25 131.455H203.443C203.489 131.915 203.698 132.296 204.069 132.598C204.444 132.896 204.891 133.045 205.412 133.045C205.829 133.045 206.2 132.948 206.525 132.752C206.853 132.557 207.11 132.288 207.296 131.947C207.485 131.602 207.579 131.213 207.579 130.778C207.579 130.334 207.481 129.938 207.286 129.59C207.094 129.239 206.828 128.962 206.49 128.76C206.152 128.558 205.766 128.455 205.332 128.452C205.02 128.448 204.701 128.496 204.372 128.596C204.044 128.692 203.774 128.816 203.562 128.969L202.409 128.83L203.025 123.818H208.315V124.912H204.059L203.701 127.915H203.761C203.97 127.749 204.232 127.612 204.546 127.502C204.861 127.393 205.189 127.338 205.531 127.338C206.154 127.338 206.709 127.487 207.196 127.786C207.687 128.08 208.071 128.485 208.35 128.999C208.631 129.512 208.772 130.099 208.772 130.759C208.772 131.408 208.626 131.988 208.335 132.499C208.046 133.006 207.649 133.407 207.142 133.702C206.635 133.993 206.058 134.139 205.412 134.139ZM210.747 134V133.105L214.108 129.426C214.502 128.995 214.827 128.621 215.083 128.303C215.338 127.981 215.527 127.679 215.649 127.398C215.775 127.113 215.838 126.814 215.838 126.503C215.838 126.145 215.752 125.835 215.58 125.573C215.411 125.311 215.179 125.109 214.884 124.967C214.589 124.824 214.257 124.753 213.889 124.753C213.498 124.753 213.157 124.834 212.865 124.996C212.577 125.156 212.353 125.379 212.194 125.668C212.038 125.956 211.96 126.294 211.96 126.682H210.787C210.787 126.085 210.925 125.562 211.2 125.111C211.475 124.66 211.849 124.309 212.323 124.057C212.801 123.805 213.336 123.679 213.929 123.679C214.526 123.679 215.054 123.805 215.515 124.057C215.976 124.309 216.337 124.648 216.599 125.076C216.861 125.504 216.992 125.979 216.992 126.503C216.992 126.877 216.924 127.244 216.788 127.602C216.655 127.956 216.423 128.352 216.092 128.79C215.764 129.224 215.308 129.754 214.725 130.381L212.438 132.827V132.906H217.171V134H210.747Z" fill="#131523"/>
<path d="M274.861 135.273V122.545H275.676V135.273H274.861ZM277.605 126.364C277.545 125.86 277.303 125.469 276.879 125.19C276.455 124.912 275.935 124.773 275.318 124.773C274.867 124.773 274.473 124.846 274.135 124.991C273.8 125.137 273.538 125.338 273.349 125.593C273.164 125.848 273.071 126.138 273.071 126.463C273.071 126.735 273.136 126.969 273.265 127.164C273.397 127.356 273.566 127.517 273.772 127.646C273.977 127.772 274.193 127.877 274.418 127.96C274.644 128.039 274.851 128.104 275.04 128.153L276.074 128.432C276.339 128.501 276.634 128.598 276.959 128.72C277.287 128.843 277.6 129.01 277.898 129.222C278.2 129.431 278.448 129.7 278.644 130.028C278.84 130.356 278.937 130.759 278.937 131.236C278.937 131.786 278.793 132.283 278.505 132.727C278.22 133.171 277.802 133.524 277.252 133.786C276.705 134.048 276.041 134.179 275.258 134.179C274.529 134.179 273.898 134.061 273.364 133.826C272.834 133.591 272.416 133.263 272.111 132.842C271.81 132.421 271.639 131.932 271.599 131.375H272.872C272.905 131.759 273.034 132.078 273.26 132.33C273.488 132.578 273.777 132.764 274.125 132.886C274.476 133.006 274.854 133.065 275.258 133.065C275.729 133.065 276.152 132.989 276.526 132.837C276.901 132.681 277.197 132.465 277.416 132.19C277.635 131.912 277.744 131.587 277.744 131.216C277.744 130.878 277.65 130.603 277.461 130.391C277.272 130.179 277.023 130.006 276.715 129.874C276.407 129.741 276.074 129.625 275.716 129.526L274.463 129.168C273.667 128.939 273.038 128.612 272.574 128.188C272.11 127.764 271.878 127.209 271.878 126.523C271.878 125.953 272.032 125.455 272.34 125.031C272.652 124.604 273.069 124.272 273.593 124.037C274.12 123.798 274.708 123.679 275.358 123.679C276.014 123.679 276.597 123.797 277.108 124.032C277.618 124.264 278.023 124.582 278.321 124.987C278.622 125.391 278.782 125.85 278.798 126.364H277.605ZM284.027 123.679C284.445 123.682 284.862 123.762 285.28 123.918C285.697 124.073 286.079 124.332 286.423 124.693C286.768 125.051 287.045 125.54 287.254 126.16C287.462 126.78 287.567 127.557 287.567 128.491C287.567 129.396 287.481 130.2 287.308 130.903C287.139 131.602 286.894 132.192 286.572 132.673C286.254 133.153 285.867 133.518 285.409 133.766C284.955 134.015 284.441 134.139 283.868 134.139C283.298 134.139 282.789 134.027 282.342 133.801C281.898 133.572 281.533 133.256 281.248 132.852C280.966 132.444 280.786 131.972 280.706 131.435H281.919C282.028 131.902 282.246 132.288 282.57 132.593C282.898 132.895 283.331 133.045 283.868 133.045C284.653 133.045 285.273 132.702 285.727 132.016C286.185 131.33 286.413 130.361 286.413 129.108H286.334C286.148 129.386 285.928 129.627 285.673 129.829C285.417 130.031 285.134 130.187 284.822 130.296C284.511 130.406 284.179 130.46 283.828 130.46C283.245 130.46 282.71 130.316 282.222 130.028C281.738 129.736 281.351 129.337 281.059 128.83C280.771 128.319 280.626 127.736 280.626 127.08C280.626 126.456 280.766 125.886 281.044 125.369C281.326 124.849 281.72 124.435 282.227 124.126C282.738 123.818 283.338 123.669 284.027 123.679ZM284.027 124.773C283.609 124.773 283.233 124.877 282.898 125.086C282.567 125.291 282.304 125.57 282.108 125.921C281.916 126.269 281.82 126.655 281.82 127.08C281.82 127.504 281.912 127.89 282.098 128.238C282.287 128.583 282.544 128.858 282.869 129.063C283.197 129.265 283.57 129.366 283.987 129.366C284.302 129.366 284.595 129.305 284.867 129.183C285.139 129.057 285.376 128.886 285.578 128.67C285.784 128.452 285.944 128.205 286.06 127.93C286.176 127.651 286.234 127.361 286.234 127.06C286.234 126.662 286.138 126.289 285.946 125.941C285.757 125.593 285.495 125.311 285.161 125.096C284.829 124.88 284.451 124.773 284.027 124.773ZM292.903 134.139C292.485 134.133 292.067 134.053 291.65 133.901C291.232 133.748 290.851 133.491 290.506 133.13C290.162 132.765 289.885 132.273 289.676 131.653C289.467 131.03 289.363 130.248 289.363 129.307C289.363 128.405 289.447 127.607 289.616 126.911C289.785 126.211 290.031 125.623 290.352 125.146C290.674 124.665 291.061 124.3 291.515 124.052C291.973 123.803 292.488 123.679 293.062 123.679C293.632 123.679 294.139 123.793 294.583 124.022C295.03 124.247 295.395 124.562 295.677 124.967C295.958 125.371 296.141 125.837 296.224 126.364H295.011C294.898 125.906 294.679 125.527 294.354 125.225C294.029 124.924 293.599 124.773 293.062 124.773C292.273 124.773 291.651 125.116 291.197 125.802C290.747 126.488 290.52 127.451 290.516 128.69H290.596C290.781 128.409 291.002 128.168 291.257 127.969C291.515 127.767 291.801 127.612 292.112 127.502C292.424 127.393 292.753 127.338 293.101 127.338C293.685 127.338 294.218 127.484 294.702 127.776C295.186 128.064 295.574 128.463 295.866 128.974C296.157 129.481 296.303 130.062 296.303 130.719C296.303 131.348 296.162 131.925 295.881 132.449C295.599 132.969 295.203 133.384 294.692 133.692C294.185 133.997 293.589 134.146 292.903 134.139ZM292.903 133.045C293.32 133.045 293.695 132.941 294.026 132.732C294.361 132.523 294.624 132.243 294.817 131.892C295.012 131.541 295.11 131.15 295.11 130.719C295.11 130.298 295.015 129.915 294.827 129.57C294.641 129.222 294.384 128.946 294.056 128.74C293.731 128.535 293.36 128.432 292.942 128.432C292.627 128.432 292.334 128.495 292.062 128.621C291.791 128.743 291.552 128.912 291.346 129.128C291.144 129.343 290.985 129.59 290.869 129.869C290.753 130.144 290.695 130.434 290.695 130.739C290.695 131.143 290.79 131.521 290.979 131.872C291.171 132.223 291.433 132.507 291.764 132.722C292.099 132.938 292.478 133.045 292.903 133.045ZM301.5 123.679C301.917 123.682 302.335 123.762 302.753 123.918C303.17 124.073 303.551 124.332 303.896 124.693C304.241 125.051 304.517 125.54 304.726 126.16C304.935 126.78 305.039 127.557 305.039 128.491C305.039 129.396 304.953 130.2 304.781 130.903C304.612 131.602 304.367 132.192 304.045 132.673C303.727 133.153 303.339 133.518 302.882 133.766C302.428 134.015 301.914 134.139 301.341 134.139C300.771 134.139 300.262 134.027 299.814 133.801C299.37 133.572 299.006 133.256 298.721 132.852C298.439 132.444 298.258 131.972 298.179 131.435H299.392C299.501 131.902 299.718 132.288 300.043 132.593C300.371 132.895 300.804 133.045 301.341 133.045C302.126 133.045 302.746 132.702 303.2 132.016C303.657 131.33 303.886 130.361 303.886 129.108H303.806C303.621 129.386 303.4 129.627 303.145 129.829C302.89 130.031 302.607 130.187 302.295 130.296C301.984 130.406 301.652 130.46 301.301 130.46C300.717 130.46 300.182 130.316 299.695 130.028C299.211 129.736 298.823 129.337 298.532 128.83C298.243 128.319 298.099 127.736 298.099 127.08C298.099 126.456 298.238 125.886 298.517 125.369C298.798 124.849 299.193 124.435 299.7 124.126C300.21 123.818 300.81 123.669 301.5 123.679ZM301.5 124.773C301.082 124.773 300.706 124.877 300.371 125.086C300.04 125.291 299.776 125.57 299.581 125.921C299.388 126.269 299.292 126.655 299.292 127.08C299.292 127.504 299.385 127.89 299.571 128.238C299.76 128.583 300.016 128.858 300.341 129.063C300.669 129.265 301.042 129.366 301.46 129.366C301.775 129.366 302.068 129.305 302.34 129.183C302.612 129.057 302.849 128.886 303.051 128.67C303.256 128.452 303.417 128.205 303.533 127.93C303.649 127.651 303.707 127.361 303.707 127.06C303.707 126.662 303.611 126.289 303.419 125.941C303.23 125.593 302.968 125.311 302.633 125.096C302.302 124.88 301.924 124.773 301.5 124.773ZM307.514 134.08C307.269 134.08 307.058 133.992 306.883 133.816C306.707 133.64 306.619 133.43 306.619 133.185C306.619 132.939 306.707 132.729 306.883 132.553C307.058 132.378 307.269 132.29 307.514 132.29C307.759 132.29 307.97 132.378 308.145 132.553C308.321 132.729 308.409 132.939 308.409 133.185C308.409 133.347 308.368 133.496 308.285 133.632C308.205 133.768 308.097 133.877 307.962 133.96C307.829 134.04 307.68 134.08 307.514 134.08ZM313.552 134.139C312.896 134.139 312.311 134.027 311.797 133.801C311.287 133.576 310.881 133.263 310.579 132.862C310.281 132.457 310.118 131.988 310.092 131.455H311.345C311.371 131.783 311.484 132.066 311.683 132.305C311.882 132.54 312.142 132.722 312.463 132.852C312.785 132.981 313.141 133.045 313.532 133.045C313.97 133.045 314.357 132.969 314.696 132.817C315.034 132.664 315.299 132.452 315.491 132.18C315.683 131.909 315.779 131.594 315.779 131.236C315.779 130.861 315.687 130.531 315.501 130.246C315.315 129.958 315.044 129.733 314.686 129.57C314.328 129.408 313.89 129.327 313.373 129.327H312.558V128.233H313.373C313.777 128.233 314.132 128.16 314.437 128.014C314.745 127.868 314.986 127.663 315.158 127.398C315.334 127.133 315.421 126.821 315.421 126.463C315.421 126.118 315.345 125.818 315.193 125.563C315.04 125.308 314.825 125.109 314.546 124.967C314.271 124.824 313.946 124.753 313.572 124.753C313.221 124.753 312.889 124.817 312.578 124.947C312.269 125.073 312.017 125.257 311.822 125.499C311.626 125.737 311.52 126.026 311.504 126.364H310.311C310.33 125.83 310.491 125.363 310.793 124.962C311.094 124.557 311.489 124.242 311.976 124.017C312.467 123.792 313.005 123.679 313.592 123.679C314.222 123.679 314.762 123.807 315.213 124.062C315.663 124.314 316.01 124.647 316.252 125.061C316.494 125.475 316.615 125.923 316.615 126.403C316.615 126.977 316.464 127.466 316.162 127.87C315.864 128.274 315.458 128.554 314.944 128.71V128.79C315.587 128.896 316.089 129.169 316.45 129.61C316.812 130.048 316.992 130.589 316.992 131.236C316.992 131.789 316.842 132.286 316.54 132.727C316.242 133.165 315.834 133.509 315.317 133.761C314.8 134.013 314.212 134.139 313.552 134.139ZM319.344 134L323.898 124.991V124.912H318.648V123.818H325.171V124.972L320.637 134H319.344Z" fill="#131523"/>
<defs>
<linearGradient id="paint0_linear_404_1875" x1="336" y1="259" x2="336" y2="0" gradientUnits="userSpaceOnUse">
<stop stop-color="#319BFF"/>
<stop offset="1" stop-color="#0000FF"/>
</linearGradient>
</defs>
</svg>
