<svg width="70" height="70" viewBox="0 0 70 70" fill="none" xmlns="http://www.w3.org/2000/svg">
<path d="M35 33.2827C36.718 33.2827 38.3283 30.5989 38.3283 28.7733C38.3283 26.9481 36.825 25.4451 35 25.4451C33.1749 25.4451 31.6716 26.9483 31.6716 28.7733C31.6716 30.5989 33.2819 33.2827 35 33.2827Z" fill="#0000FF"/>
<path d="M37.7905 34.3559C37.0389 35.0003 35.9653 35.4294 34.9988 35.4294C33.9253 35.4294 32.9589 34.9997 32.1002 34.2482L28.2351 35.6436C27.9132 35.9656 27.6984 36.2881 27.6984 36.7172V41.9776H42.3006V36.7172C42.3006 36.2875 42.0858 35.8584 41.7639 35.6436L37.7905 34.3559Z" fill="#0000FF"/>
<path d="M35 18.574C25.9814 18.574 18.5735 25.8743 18.5735 34.9999C18.5735 44.0183 25.8741 51.4259 35 51.4259C44.1258 51.4253 51.4265 44.0178 51.4265 34.9999C51.4265 25.982 44.0187 18.574 35 18.574ZM44.4477 43.1588C44.4477 43.6955 43.9109 44.2323 43.3742 44.2323H26.6256C26.0888 44.2323 25.552 43.6955 25.552 43.1588V36.8242C25.552 35.6431 26.0888 34.5696 27.0553 33.9257C27.2701 33.8186 27.1624 33.8186 30.5984 32.5302C29.9539 31.349 29.5248 30.0606 29.5248 28.7723C29.5248 25.766 31.9945 23.297 35.0003 23.297C38.0067 23.297 40.4758 25.7666 40.4758 28.7723C40.4758 30.0607 40.0462 31.4561 39.2946 32.5302C42.8377 33.8186 42.6229 33.7114 42.8377 33.8186C43.8041 34.463 44.448 35.5365 44.448 36.7171L44.4477 43.1588Z" fill="#0000FF"/>
<path d="M48.8498 22.6528L53.0369 18.4657C54.8621 19.969 57.1169 20.8276 59.5859 20.8276C65.2761 20.8276 70 16.2111 70 10.4138C70 4.72371 65.3833 0 59.5859 0C53.8956 0 49.1717 4.61654 49.1717 10.4138C49.1717 12.8834 50.0305 15.1375 51.5337 16.9625L47.3465 21.1495C47.8839 21.6863 48.3129 22.1159 48.8498 22.6528ZM53.789 11.1648C53.789 10.3061 54.2186 9.5546 54.8625 9.12492C55.0774 9.01779 55.0774 9.01779 56.4728 8.58817C56.1509 7.94373 56.0432 7.40697 56.0432 6.76301C56.0432 4.83027 57.6535 3.22002 59.5863 3.22002C61.5191 3.22002 63.1294 4.83027 63.1294 6.76301C63.1294 7.40745 62.9146 7.94421 62.6998 8.58817C63.9882 9.01779 63.9882 9.0178 64.203 9.12492C64.8475 9.55455 65.2766 10.3061 65.2766 11.1648V14.7078C65.2766 15.3523 64.8469 15.7814 64.203 15.7814H54.9697C54.3252 15.7814 53.8961 15.3517 53.8961 14.7078V11.1648H53.789Z" fill="#0000FF"/>
<path d="M21.1502 47.3473L16.9631 51.5343C15.1379 50.0311 12.8831 49.1724 10.4141 49.1724C4.72386 49.1724 0 53.789 0 59.5862C0 65.2763 4.61669 70 10.4141 70C16.1044 70 20.8283 65.3835 20.8283 59.5862C20.8283 57.1166 19.9695 54.8625 18.4663 53.0375L22.6535 48.8505C22.1167 48.3132 21.6871 47.8841 21.1502 47.3473ZM16.2116 63.6664C16.2116 64.3108 15.7819 64.7399 15.138 64.7399H5.79691C5.15245 64.7399 4.72336 64.3102 4.72336 63.6664V60.1234C4.72336 59.2647 5.153 58.5131 5.79691 58.0834C6.01172 58.0834 6.11887 58.0834 7.40721 57.5467C7.08525 56.9022 6.97757 56.3655 6.97757 55.7215C6.97757 53.7888 8.58787 52.1785 10.5207 52.1785C12.4535 52.1785 14.0638 53.7888 14.0638 55.7215C14.0638 56.366 13.849 56.9027 13.6341 57.5467C15.0297 58.0834 15.0297 58.0834 15.2444 58.1911C15.8889 58.6208 16.318 59.3723 16.318 60.231L16.3185 63.6664L16.2116 63.6664Z" fill="#0000FF"/>
<path d="M63.13 11.1662C63.13 11.0591 63.13 11.0591 63.0228 10.9514L61.1972 10.3075C60.1237 11.0591 58.8353 11.0591 57.8689 10.3075L56.0437 10.9519C56.0437 10.9519 55.9365 11.0591 55.9365 11.1667V13.6363H63.0229L63.0223 11.1663L63.13 11.1662Z" fill="#0000FF"/>
<path d="M59.9077 8.58823C60.4445 8.26628 60.8742 7.29989 60.8742 6.65548C60.8742 5.9039 60.2297 5.26001 59.4786 5.26001C58.727 5.26001 58.0831 5.90445 58.0831 6.65548C58.1903 7.62187 59.049 9.12507 59.9077 8.58823Z" fill="#0000FF"/>
<path d="M14.0629 11.1662C14.0629 11.0591 14.0629 11.0591 13.9558 10.9514L12.1306 10.3075C11.057 11.0591 9.76862 11.0591 8.80222 10.3075L6.97701 10.9519C6.97701 10.9519 6.86987 11.0591 6.86987 11.1667V13.6363H13.9562L13.9557 11.1663L14.0629 11.1662Z" fill="#0000FF"/>
<path d="M10.8434 8.58823C11.3802 8.26628 11.8098 7.29989 11.8098 6.65548C11.8098 5.9039 11.1654 5.26001 10.4143 5.26001C9.76984 5.36769 9.12537 6.01159 9.12537 6.65603C9.12537 7.62187 9.98409 9.12507 10.8434 8.58823Z" fill="#0000FF"/>
<path d="M10.5213 20.8286C12.991 20.8286 15.2452 19.9699 17.0702 18.4667L21.2574 22.6537C21.687 22.117 22.2238 21.5802 22.7607 21.1505L18.5735 16.9635C20.0768 15.1383 20.9354 12.8837 20.9354 10.4148C20.9354 4.72469 16.3188 0.000976562 10.5213 0.000976562C4.83104 0.000976562 0.107178 4.61752 0.107178 10.4148C0.106628 16.212 4.7233 20.8286 10.5213 20.8286ZM4.7233 11.1658C4.7233 10.3071 5.15295 9.55557 5.79685 9.1259C6.01167 9.01877 6.11882 9.01877 7.40716 8.58914C7.19289 7.94525 6.97806 7.3008 6.97806 6.65696C6.97806 4.72421 8.58836 3.11396 10.5212 3.11396C12.454 3.11396 14.0643 4.72421 14.0643 6.65696C14.0643 7.30139 13.8495 7.83815 13.6346 8.48211C15.0302 9.01887 15.0302 9.01887 15.2449 9.12655C15.8894 9.55618 16.3185 10.3077 16.3185 11.1665V14.7095C16.3185 15.3539 15.8888 15.783 15.2449 15.783L5.79664 15.7824C5.15219 15.7824 4.72309 15.3528 4.72309 14.7089L4.7233 11.1658Z" fill="#0000FF"/>
<path d="M61.196 59.371C60.1224 60.1226 58.8341 60.1226 57.8676 59.371L56.0424 60.0154C56.0424 60.0154 55.9353 60.1225 55.9353 60.2302V62.6998H63.0217V60.2302C63.0217 60.1231 63.0217 60.1231 62.9145 60.0154L61.196 59.371Z" fill="#0000FF"/>
<path d="M59.9077 57.6538C60.4445 57.3318 60.8742 56.3654 60.8742 55.721C60.8742 54.9694 60.2297 54.3256 59.4786 54.3256C58.727 54.3256 58.0831 54.97 58.0831 55.721C58.1903 56.6874 59.049 58.0829 59.9077 57.6538Z" fill="#0000FF"/>
<path d="M59.4787 49.1715C57.0091 49.1715 54.7549 50.0302 52.9298 51.5333L48.7426 47.3463C48.313 47.8831 47.7762 48.4198 47.2394 48.8495L51.4265 53.0365C49.9233 54.8617 49.0646 57.1164 49.0646 59.5853C49.0646 65.2753 53.6813 69.9991 59.4787 69.9991C65.169 69.9991 69.8929 65.3825 69.8929 59.5853C69.8929 53.788 65.2762 49.1715 59.4787 49.1715ZM65.2762 63.665C65.2762 64.3094 64.8465 64.7385 64.2026 64.7385H54.9692C54.3248 64.7385 53.8957 64.3089 53.8957 63.665V60.122C53.8957 59.2633 54.3253 58.5117 54.9692 58.082C55.1841 57.9749 55.1841 57.9749 56.5795 57.5453C56.2576 56.9009 56.1499 56.3641 56.1499 55.7201C56.1499 53.7874 57.7602 52.1771 59.693 52.1771C61.6258 52.1771 63.2361 53.7874 63.2361 55.7201C63.2361 56.3646 63.0213 56.9013 62.8065 57.5453C64.202 58.082 64.202 58.0821 64.4168 58.1897C65.0612 58.6194 65.4903 59.3709 65.4903 60.2296L65.4909 63.665L65.2762 63.665Z" fill="#0000FF"/>
<path d="M12.1318 59.371C11.0582 60.1226 9.76985 60.1226 8.80344 59.371L6.97823 60.0154C6.97823 60.0154 6.87109 60.1225 6.87109 60.2302V62.6998H13.9575V60.2302C13.9575 60.1231 13.9575 60.1231 13.8503 60.0154L12.1318 59.371Z" fill="#0000FF"/>
<path d="M10.8434 57.6538C11.3802 57.3318 11.8098 56.3654 11.8098 55.721C11.8098 54.9694 11.1654 54.3256 10.4143 54.3256C9.66271 54.3256 9.0188 54.97 9.0188 55.721C9.12538 56.6874 9.98408 58.0829 10.8434 57.6538Z" fill="#0000FF"/>
</svg>
