<svg width="70" height="70" viewBox="0 0 70 70" fill="none" xmlns="http://www.w3.org/2000/svg">
<path d="M67.6107 56.3176L57.7404 46.6488C56.4813 45.4154 54.4991 45.3541 53.1593 46.4357L51.9792 45.2797C51.9798 45.2785 51.981 45.2779 51.9816 45.2767C55.4636 40.4659 57.199 34.7995 57.199 29.1435C57.199 27.1659 56.9833 25.1992 56.5525 23.2545C64.5359 23.2545 69.0746 17.4965 69.0746 11.6439C69.0746 5.22155 63.7435 0 57.199 0C52.2879 0 48.0572 2.93346 46.2421 7.11101C41.252 3.24479 35.1152 1.16668 28.6496 1.16668C12.8476 1.16668 0.0790249 13.6493 0.0790249 29.1541C0.0790249 35.0985 1.96164 40.754 5.44406 45.487C2.16636 47.5645 0 51.1759 0 55.2648C0 61.6757 5.31945 66.8981 11.8756 66.8981C17.9323 66.8981 22.9454 62.4317 23.6601 56.6875C25.305 56.9762 26.9834 57.1209 28.6508 57.1209C34.457 57.1209 40.2628 55.3993 45.1964 51.945L46.3425 53.0677L46.1608 53.2457C44.8185 54.5487 44.8185 56.6779 46.1608 57.981L56.0311 67.6498C59.1624 70.7398 64.3689 70.8268 67.6113 67.6498C70.7936 64.5312 70.7991 59.4399 67.6107 56.3166L67.6107 56.3176ZM57.1995 2.22315C62.4966 2.22315 66.8061 6.44535 66.8061 11.645C66.8061 13.6557 66.148 15.5339 65.0366 17.0672C64.2539 15.6451 63.086 14.4897 61.6908 13.7116V13.7003C61.8834 13.189 61.9855 12.6449 61.9855 12.0782V9.43394C61.9855 6.76716 59.762 4.5897 57.0288 4.5897C54.2956 4.5897 52.0836 6.76716 52.0836 9.43394V12.0782C52.0836 12.63 52.1839 13.227 52.4355 13.8669C51.1539 14.6449 50.0874 15.7443 49.3504 17.0777C48.2389 15.5444 47.5808 13.6668 47.5808 11.6448C47.5808 6.40174 51.9402 2.22297 57.1996 2.22297L57.1995 2.22315ZM59.7172 9.76755V12.0784C59.7172 13.5058 58.5249 14.7005 57.0289 14.7005C55.6349 14.7005 54.3521 13.6064 54.3521 12.0784V9.76755H59.7172ZM19.7128 60.7C18.9301 59.2779 17.7622 58.1225 16.3669 57.3331C16.5596 56.8218 16.6616 56.2664 16.6616 55.6997V53.0663C16.6616 50.3889 14.4388 48.2108 11.705 48.2108C9.02883 48.2108 6.7598 50.3626 6.7598 53.0663V55.6997C6.7598 56.3331 6.88498 56.9444 7.11163 57.4997C5.84161 58.2777 4.76358 59.3664 4.03803 60.6998C2.92662 59.1557 2.26851 57.2889 2.26851 55.2669C2.26851 50.0786 6.57992 45.8558 11.8757 45.8558C17.1728 45.8558 21.4823 50.078 21.4823 55.2669C21.4823 57.2973 20.8163 59.1897 19.7128 60.6998L19.7128 60.7ZM9.02875 55.6999V53.3997H14.3938V55.6999C14.3938 57.1219 13.2295 58.3333 11.7061 58.3333C10.3322 58.3333 9.02875 57.263 9.02875 55.6999ZM28.6623 46.3446H28.6507C18.812 46.3446 11.0006 38.4205 11.0706 29.1843C11.1381 20.3851 18.1548 11.9676 28.6507 11.9676C38.3654 11.9676 46.1966 19.6644 46.1966 29.1447C46.1966 38.5837 38.4026 46.3203 28.6616 46.3446H28.6623Z" fill="#0000FF"/>
<path d="M28.6501 16.0996C21.2779 16.0996 15.2778 21.9659 15.2778 29.1883C15.2778 36.3767 21.3406 42.2656 28.6501 42.2656C35.8953 42.2656 42.0115 36.4064 42.0115 29.1883C42.0115 21.9659 36.0115 16.0996 28.6501 16.0996ZM25.2472 29.6883V27.0662H31.6673V29.6883C31.6673 31.4467 30.2101 32.8325 28.4575 32.8325C26.6959 32.8325 25.2472 31.4271 25.2472 29.6883ZM33.7199 31.1437C33.8676 30.677 33.9356 30.1883 33.9356 29.6883V26.6881C33.9356 23.7213 31.474 21.3218 28.4575 21.3218C25.4404 21.3218 22.9787 23.7219 22.9787 26.6881V29.6883C22.9787 30.255 23.0699 30.8104 23.2394 31.3217C21.6516 32.2551 20.3245 33.5885 19.4173 35.2107C18.2378 33.4885 17.5457 31.4219 17.5457 29.1889C17.5457 23.1999 22.5249 18.3223 28.6502 18.3223C34.764 18.3223 39.7432 23.1999 39.7432 29.1889C39.7432 31.4223 39.0517 33.4885 37.8716 35.2107C36.9073 33.4773 35.4555 32.0658 33.7199 31.1437Z" fill="#0000FF"/>
</svg>
