<svg width="70" height="70" viewBox="0 0 70 70" fill="none" xmlns="http://www.w3.org/2000/svg">
<path d="M24.6801 43.3947C25.3465 42.9283 26.1171 42.6323 26.9242 42.5323C27.0905 42.2479 27.2842 41.9804 27.5028 41.7332V23.0635C26.7393 22.6436 25.8728 22.4476 25.0028 22.4988C24.1171 22.4447 23.2349 22.6512 22.465 23.0925C21.8392 23.5107 21.1053 23.7386 20.3523 23.7485H15.5471C15.0708 24.5545 14.6457 25.3895 14.2735 26.2491H16.1647C17.4196 26.2456 18.5915 26.8742 19.2822 27.9215L20.6698 29.9987H20.9576C21.6543 29.9969 22.3376 30.1894 22.9308 30.5558C23.5234 30.9221 24.002 31.4472 24.3114 32.0712L24.8714 33.1901C25.1802 33.8082 24.9295 34.559 24.3114 34.8679C23.6938 35.1766 22.9424 34.9254 22.6336 34.3079L22.0747 33.1902H22.0753C21.8648 32.7657 21.4315 32.497 20.9576 32.4987H17.5021C16.8118 32.4987 16.2524 31.9393 16.2524 31.2491C16.2524 30.5588 16.8118 29.9988 17.5021 29.9988H17.6632L17.2008 29.305C16.9711 28.9567 16.5821 28.7479 16.1645 28.7491H13.4034C12.5526 31.6044 12.2973 34.6044 12.6532 37.5626C19.5862 37.9139 23.0139 40.8232 24.6799 43.3942L24.6801 43.3947Z" fill="#0000FF"/>
<path d="M46.2533 47.6167C46.2097 48.0842 45.9079 48.4878 45.4717 48.6617C43.1618 49.7195 41.4481 51.7577 40.802 54.2147C40.802 54.2246 40.802 54.2362 40.7921 54.2461H40.7916C40.5142 55.1021 40.3089 55.9801 40.178 56.8711C44.2476 55.9011 47.9671 53.8181 50.9202 50.8553C53.8732 47.8919 55.944 44.166 56.9001 40.093C47.018 40.8432 46.2533 47.5446 46.2533 47.6167Z" fill="#0000FF"/>
<path d="M47.547 23.0977C46.7758 22.6528 45.8913 22.4446 45.0027 22.4993C44.1322 22.4469 43.2645 22.6452 42.5027 23.0703V41.7327C42.7214 41.9798 42.915 42.2473 43.0813 42.5317C43.8908 42.6305 44.6637 42.9265 45.3318 43.3941C46.9979 40.8227 50.4261 37.9139 57.3522 37.5626C57.7081 34.6044 57.4528 31.6043 56.602 28.749H53.8408C53.4256 28.7473 53.0377 28.9543 52.808 29.3003L52.3422 29.9987H52.5033C53.1936 29.9987 53.753 30.5587 53.753 31.249C53.753 31.9392 53.1936 32.4987 52.5033 32.4987H49.0478C48.5738 32.4969 48.1406 32.7656 47.9307 33.1901L47.3718 34.3078C47.063 34.9253 46.3122 35.1766 45.694 34.8678C45.0764 34.559 44.8252 33.8082 45.134 33.19L45.694 32.0712C46.0039 31.4472 46.482 30.9221 47.0751 30.5557C47.6677 30.1893 48.351 29.9968 49.0477 29.9986H49.335L50.726 27.9162H50.7266C51.4181 26.8718 52.5881 26.2448 53.8408 26.249H55.7319C55.3597 25.3895 54.9346 24.5544 54.4583 23.7484H49.6531C48.903 23.7391 48.1714 23.5129 47.5469 23.0971L47.547 23.0977Z" fill="#0000FF"/>
<path d="M32.408 57.3378C34.1311 57.5542 35.8752 57.5542 37.5982 57.3378C37.6825 56.551 37.8151 55.7707 37.9948 55.0001H32.0119C32.191 55.7706 32.3237 56.551 32.408 57.3378Z" fill="#0000FF"/>
<path d="M29.2088 54.2146C28.5627 51.7576 26.8484 49.7201 24.5385 48.6616C24.1006 48.4895 23.797 48.0853 23.7522 47.6166C23.722 47.3328 22.8898 40.825 13.099 40.0911L13.0996 40.0916C14.0556 44.167 16.1271 47.8951 19.0825 50.8597C22.0379 53.8243 25.7602 55.9073 29.8328 56.8755C29.702 55.9852 29.4967 55.1071 29.2187 54.2505C29.2152 54.2354 29.2128 54.2245 29.2088 54.2146Z" fill="#0000FF"/>
<path d="M31.229 52.4996H38.7767C39.1251 51.6221 39.5659 50.7836 40.0922 49.9996H29.9141C30.4398 50.7835 30.8807 51.622 31.229 52.4996Z" fill="#0000FF"/>
<path d="M0.681639 38.6859L6.52195 41.0224V41.0219C6.89587 41.1713 7.17501 41.4911 7.27155 41.8819C7.95835 44.6464 9.05684 47.2919 10.5305 49.7296C10.7387 50.0744 10.7678 50.4978 10.6096 50.8671L8.12523 56.6602C7.99439 56.9521 8.03509 57.2935 8.23165 57.5464C8.8568 58.289 9.53197 59.0305 10.2507 59.7475C10.9695 60.4651 11.7144 61.1501 12.4558 61.7688C12.7082 61.9654 13.049 62.0061 13.3409 61.8741L19.1336 59.3927C19.2882 59.3253 19.4557 59.291 19.625 59.2915C19.8523 59.291 20.0762 59.3532 20.271 59.4712C22.7088 60.9448 25.3543 62.0432 28.1189 62.7301C28.5097 62.8272 28.8295 63.1064 28.979 63.4803L31.3156 69.3217H31.315C31.4284 69.6211 31.6988 69.8328 32.0163 69.8718C34.0041 70.0427 36.0027 70.0427 37.9905 69.8718C38.3074 69.8316 38.5761 69.6194 38.6883 69.3205L41.0249 63.4803H41.0243C41.1737 63.1064 41.4936 62.8273 41.8844 62.7302C44.649 62.0434 47.2944 60.9449 49.7322 59.4712C50.0765 59.2619 50.5005 59.2322 50.8697 59.3927L56.663 61.8753C56.9549 62.0067 57.2951 61.9654 57.5481 61.7689C58.2896 61.1501 59.0304 60.4703 59.751 59.7499C60.4709 59.03 61.1525 58.2885 61.7736 57.5436H61.773C61.969 57.2913 62.0091 56.9511 61.8771 56.6603L59.3956 50.8678V50.8672C59.2369 50.4979 59.2665 50.0746 59.4742 49.7297C60.9478 47.292 62.0462 44.6466 62.7331 41.8821C62.8303 41.4913 63.1094 41.1715 63.4833 41.022L69.3248 38.6855V38.6861C69.6243 38.5733 69.8366 38.3028 69.875 37.9848C69.961 37.0287 70 36.0233 70 34.9998C70 33.9757 69.9564 32.9708 69.875 32.0108C69.8348 31.6938 69.6226 31.4252 69.3237 31.3129L63.4834 28.9764V28.977C63.1094 28.8275 62.8303 28.5077 62.7332 28.1169C62.0464 25.3524 60.9479 22.707 59.4742 20.2693C59.2666 19.925 59.2369 19.5017 59.3957 19.1318L61.8783 13.3393C62.0097 13.0473 61.9684 12.7066 61.7719 12.4542C61.1531 11.7127 60.4733 10.9719 59.7528 10.2514C59.0329 9.53144 58.2915 8.84988 57.5466 8.22881C57.2947 8.03168 56.954 7.99214 56.6632 8.1253L50.8705 10.6067H50.8699C50.5007 10.766 50.0767 10.7363 49.7325 10.5276C47.2947 9.05401 44.6492 7.95555 41.8846 7.26867C41.4938 7.17155 41.174 6.89243 41.0245 6.5185L38.6885 0.678776C38.5751 0.378714 38.3053 0.167036 37.9872 0.128657C35.9994 -0.0428857 34.0008 -0.0428857 32.0131 0.128657C31.6961 0.1682 31.4275 0.380457 31.3152 0.679939L28.9792 6.52011C28.8298 6.89402 28.5099 7.17315 28.1192 7.2697C25.3546 7.95648 22.7091 9.05494 20.2713 10.5286C19.927 10.7379 19.5031 10.767 19.1338 10.6077L13.3411 8.12335C13.0486 7.99193 12.7073 8.03322 12.4549 8.22977C11.7122 8.85491 10.9708 9.53006 10.2538 10.2487C9.53558 10.9675 8.85053 11.7124 8.23178 12.4538C8.03522 12.7062 7.9945 13.047 8.1271 13.3389L10.6085 19.1314C10.7667 19.5013 10.737 19.9246 10.5294 20.2689C9.05583 22.7066 7.95735 25.352 7.27045 28.1166C7.17333 28.5073 6.8942 28.8272 6.52026 28.9766L0.680396 31.3125C0.380327 31.4259 0.168644 31.6963 0.130264 32.0138C0.0436155 32.9705 0 33.9754 0 34.9994C0 36.0235 0.043616 37.0284 0.12503 37.9884V37.9879C0.165738 38.306 0.380318 38.5752 0.681564 38.6857L0.681639 38.6859ZM11.3163 27.0607C11.325 27.0357 11.3314 27.0118 11.3413 26.9891H11.3407C11.9286 25.2661 12.7038 23.6128 13.6523 22.059C13.7005 21.941 13.7674 21.8316 13.8494 21.7339C16.8489 16.9265 21.3959 13.2844 26.7426 11.4073C32.0886 9.53019 37.9151 9.53019 43.2616 11.4073C48.6082 13.2844 53.1553 16.9265 56.1548 21.7339C56.2374 21.8316 56.3036 21.941 56.3519 22.059C57.301 23.6129 58.0756 25.2661 58.6635 26.9891C58.6734 27.0118 58.6798 27.0357 58.6896 27.0607C59.9807 30.804 60.3243 34.8083 59.6899 38.7167C59.6899 38.729 59.6975 38.7383 59.6975 38.7505V38.7511C59.6916 38.8604 59.6707 38.9691 59.6358 39.0732C58.7786 44.2139 56.338 48.9585 52.6539 52.6448C48.9705 56.3311 44.2274 58.7753 39.0872 59.6365C38.982 59.6731 38.8715 59.6952 38.7598 59.7016H38.7011C37.4775 59.8929 36.2413 59.9929 35.0025 59.9999C33.7632 59.9906 32.5269 59.8889 31.3033 59.6952H31.2382C31.1265 59.6888 31.0166 59.6667 30.9107 59.6301C25.7706 58.7688 21.0281 56.3247 17.3441 52.6384C13.6606 48.9521 11.2193 44.2075 10.3622 39.0668C10.3279 38.9645 10.3069 38.8575 10.3011 38.7493C10.3011 38.7371 10.3087 38.7278 10.3087 38.7156C9.67597 34.8066 10.022 30.8017 11.3159 27.0589L11.3163 27.0607Z" fill="#0000FF"/>
<path d="M21.0952 20.9987C22.2711 20.2898 23.6301 19.942 25.002 19.999C26.3296 19.9467 27.6445 20.2735 28.7936 20.9411C29.9235 20.3014 31.204 19.9763 32.5021 19.999C33.3517 19.9932 34.1967 20.1281 35.0027 20.3974H35.0265H35.026C35.0963 18.7174 36.0099 17.1857 37.455 16.3261C38.9007 15.4666 40.6826 15.3945 42.1921 16.1354C43.7025 16.8762 44.7358 18.3294 44.9405 19.999H45.0027C46.3769 19.9397 47.7383 20.2874 48.9158 20.9986C49.1333 21.1498 49.3886 21.2365 49.6532 21.2487H52.7784C48.5343 15.7312 41.9682 12.4985 35.0074 12.4985C28.0465 12.4985 21.4809 15.7312 17.2363 21.2487H20.3615C20.6243 21.2353 20.8785 21.1486 21.0948 20.9986L21.0952 20.9987Z" fill="#0000FF"/>
<path d="M36.5899 22.5827C36.5388 22.5915 36.4876 22.5973 36.4358 22.599C36.1142 22.6607 35.8002 22.756 35.4984 22.884C35.1838 23.0177 34.8279 23.0177 34.5133 22.884C33.8759 22.62 33.1914 22.4891 32.5017 22.499C31.627 22.4769 30.7628 22.6927 30.0016 23.1241V40.1638C30.6995 39.9783 31.4299 39.9486 32.1405 40.0772C32.8535 39.2363 33.8996 38.7513 35.0023 38.7513C36.1043 38.7513 37.1511 39.2363 37.8635 40.0772C38.5741 39.9486 39.3046 39.9783 40.0024 40.1638V23.1241C39.2411 22.6921 38.377 22.4757 37.5023 22.499C37.1965 22.5013 36.8912 22.5292 36.5899 22.5827ZM33.7521 29.9988C33.0618 29.9988 32.5018 29.4394 32.5018 28.7492V26.2492C32.5018 25.5583 33.0618 24.9989 33.7521 24.9989C34.4424 24.9989 35.0024 25.5583 35.0024 26.2492V28.7492C35.0024 29.0806 34.8704 29.3987 34.636 29.6331C34.4017 29.8674 34.0836 29.9988 33.7521 29.9988ZM37.5024 34.9988V34.9994C37.5024 35.6896 36.9424 36.2491 36.2521 36.2491C35.5618 36.2491 35.0024 35.6896 35.0024 34.9994V32.4988C35.0024 31.8085 35.5618 31.2491 36.2521 31.2491C36.9424 31.2491 37.5024 31.8085 37.5024 32.4988V34.9988Z" fill="#0000FF"/>
<path d="M42.4779 20.3735C42.4035 19.5896 41.9615 18.8871 41.2869 18.48C40.6124 18.0729 39.7848 18.0096 39.0562 18.3091C38.3276 18.6086 37.7838 19.2349 37.5901 19.9991C38.8596 19.9892 40.11 20.3125 41.2155 20.9365C41.6121 20.698 42.0359 20.509 42.4779 20.3735Z" fill="#0000FF"/>
<path d="M28.9066 44.1882C28.706 44.7604 28.1239 45.1064 27.5255 45.0081H27.5028C26.8765 45.0052 26.2717 45.2396 25.8105 45.6635C25.9239 45.9775 26.0217 46.2968 26.1031 46.6207C26.6038 46.8684 27.0812 47.1615 27.529 47.4959H42.4803C42.9281 47.1615 43.4056 46.8684 43.9069 46.6207C43.9883 46.2968 44.086 45.9775 44.1994 45.6635C43.7376 45.2367 43.1328 45 42.5041 44.9994C41.9022 45.1006 41.3131 44.7604 41.1003 44.1882C40.9322 43.6985 40.6165 43.2729 40.196 42.9705C39.7756 42.6681 39.272 42.5035 38.7538 42.4994C38.4299 42.4971 38.1083 42.5605 37.8088 42.6855C37.1749 42.9577 36.4404 42.6646 36.1678 42.0307C35.9741 41.5585 35.5147 41.2498 35.0041 41.2498C34.4935 41.2498 34.0335 41.5585 33.8399 42.0307C33.5677 42.6646 32.8327 42.9577 32.1988 42.6855C31.8994 42.5605 31.5783 42.4971 31.2538 42.4994C30.7357 42.5035 30.2321 42.6681 29.8116 42.9705C29.3912 43.2729 29.0754 43.6985 28.9073 44.1882H28.9066Z" fill="#0000FF"/>
</svg>
