<svg width="24" height="25" viewBox="0 0 24 25" fill="none" xmlns="http://www.w3.org/2000/svg">
<path d="M8.4 0.374756C3.77502 0.374756 0 4.14978 0 8.77476C0 13.3997 3.77502 17.1748 8.4 17.1748C10.4976 17.1748 12.414 16.3924 13.8891 15.1123L14.4 15.6232V17.1748L21.6 24.3748L24 21.9748L16.8 14.7748H15.2484L14.7375 14.2638C16.0176 12.7888 16.8 10.8724 16.8 8.77476C16.8 4.14978 13.025 0.374756 8.4 0.374756ZM8.4 2.77476C11.7279 2.77476 14.4 5.44683 14.4 8.77476C14.4 12.1027 11.7279 14.7748 8.4 14.7748C5.07208 14.7748 2.4 12.1027 2.4 8.77476C2.4 5.44683 5.07208 2.77476 8.4 2.77476Z" fill="#66717F"/>
</svg>
