<svg width="100" height="80" viewBox="0 0 100 80" fill="none" xmlns="http://www.w3.org/2000/svg">
<rect width="100" height="80" fill="white"/>
<path d="M77.4819 18.1819C77.2311 17.6337 76.8315 17.1679 76.3276 16.8367C71.9301 11.949 66.2423 8.40168 59.918 6.60275C53.5937 4.80383 46.8903 4.82555 40.5779 6.66688C34.2657 8.50747 28.6017 12.0929 24.2367 17.0094C23.8188 17.3089 23.4784 17.7049 23.2458 18.1637C18.3311 24.1781 15.5614 31.659 15.3754 39.4235C15.1893 47.1876 17.5973 54.7925 22.2191 61.0351C22.4066 61.6574 22.8181 62.188 23.3734 62.5255C27.7654 67.8649 33.6421 71.7815 40.2608 73.7793C46.8795 75.777 53.9424 75.7658 60.5552 73.7483C67.1684 71.7307 73.0339 67.7966 77.4096 62.4438C77.8719 62.1338 78.2249 61.6849 78.418 61.1627C83.0798 54.9257 85.5224 47.3095 85.3575 39.524C85.1933 31.7395 82.4307 24.2339 77.5089 18.1993L77.4819 18.1819ZM75.6638 17.4639C75.9999 17.855 76.3452 18.2362 76.6729 18.6364C76.6821 18.7147 76.6821 18.7943 76.6729 18.8725H76.8273C79.394 22.0443 81.3679 25.6529 82.6533 29.5244C80.9443 28.788 77.6539 28.2426 73.673 27.8431H73.6737C72.4517 23.152 70.3446 18.7379 67.4657 14.8375C71.4193 15.5556 74.2551 16.4914 75.6822 17.4639L75.6638 17.4639ZM73.5369 49.5926C72.5002 54.9791 70.3317 60.0846 67.1745 64.5705C64.448 64.9975 61.2118 65.3245 57.6219 65.4795C58.3979 62.904 59.0046 60.2812 59.4394 57.6267L58.4035 58.1087C57.9708 60.6146 57.3851 63.0907 56.6494 65.5246C54.6316 65.6155 52.5232 65.6698 50.287 65.6698C48.0508 65.6698 45.9966 65.6155 43.9973 65.5246H43.9966C43.2609 63.0907 42.6753 60.6144 42.2425 58.1087L41.2066 57.6267C41.6407 60.2812 42.2482 62.904 43.024 65.4795C39.4425 65.2886 36.2255 64.9616 33.4715 64.5705C30.341 60.0775 28.1973 54.9735 27.1818 49.5926C29 49.8837 31.0085 50.1381 33.1079 50.3466C32.8986 50.0288 32.7084 49.7103 32.5265 49.3834C30.518 49.1649 28.6639 48.9197 26.9908 48.647V48.6477C26.5038 45.8777 26.2635 43.0709 26.2727 40.2585C26.2677 36.361 26.747 32.4774 27.6998 28.6983C29.3362 28.5439 31.172 28.3981 33.1536 28.2712C33.3629 27.9534 33.5715 27.644 33.7991 27.3622C31.7724 27.4806 29.7906 27.6166 27.9365 27.7892H27.9358C29.212 23.0213 31.4383 18.5608 34.4805 14.6745C37.4588 14.2045 40.4588 13.886 43.4693 13.7197C42.6829 16.0648 42.0571 18.4607 41.5969 20.8912C41.9422 20.7277 42.2967 20.5734 42.6511 20.4275C43.1085 18.1359 43.716 15.8773 44.4693 13.6655C46.4051 13.5746 48.432 13.5203 50.5497 13.5203C52.525 13.5203 54.4159 13.5626 56.2215 13.6479V13.6472C56.9805 15.8633 57.5879 18.1289 58.0396 20.4276C58.3941 20.5727 58.7486 20.7278 59.0939 20.8913C58.6351 18.4537 58.0065 16.0515 57.2122 13.702C60.2193 13.8486 63.2172 14.1523 66.1926 14.6104C69.2399 18.4989 71.4689 22.963 72.7458 27.7343C70.9276 27.5708 68.9099 27.425 66.8832 27.3073C67.1101 27.6166 67.3194 27.9253 67.5287 28.2163C69.528 28.3439 71.3646 28.489 72.9825 28.6433H72.9818C73.955 32.4387 74.447 36.3413 74.4456 40.2586C74.4491 43.071 74.2024 45.8783 73.7091 48.6478C72.0368 48.9205 70.1826 49.1657 68.1734 49.3842C67.9916 49.7112 67.8006 50.0297 67.592 50.3475C69.6921 50.1382 71.7189 49.8838 73.5363 49.5928L73.5369 49.5926ZM73.7821 15.5192C71.4763 14.7032 69.0956 14.1162 66.6749 13.7652C64.4423 10.9923 61.636 8.7352 58.4485 7.14896C64.1942 8.56183 69.4725 11.4467 73.7645 15.519L73.7821 15.5192ZM65.3198 13.5559C62.7024 13.174 59.866 12.9104 56.9033 12.7469C55.7947 9.81132 54.4944 7.62111 53.0674 6.38503H53.0681C57.8538 7.28561 62.1781 9.82034 65.3021 13.5558L65.3198 13.5559ZM50.359 6.17656C52.4042 6.17656 54.3218 8.62113 55.8948 12.7019C54.0766 12.6202 52.3316 12.5835 50.5593 12.5835C48.6417 12.5835 46.7144 12.6286 44.815 12.7195C46.3964 8.63027 48.3146 6.17656 50.359 6.17656ZM43.824 12.7751C40.8521 12.9478 37.9796 13.2297 35.3617 13.6201H35.3624C38.4864 9.83026 42.8417 7.25689 47.6691 6.34913C46.2695 7.62108 44.9333 9.81186 43.8242 12.7743L43.824 12.7751ZM42.2877 7.14891C39.0748 8.74642 36.2488 11.026 34.0077 13.8285C31.561 14.202 29.1563 14.8108 26.8272 15.6465C31.143 11.503 36.4763 8.57152 42.2875 7.14891H42.2877ZM23.8461 18.9002H24.0011C23.992 18.822 23.992 18.7423 24.0011 18.6641C24.3281 18.273 24.6558 17.9009 24.992 17.5282C26.4008 16.5557 29.2365 15.6199 33.1726 14.9018L33.1718 14.9011C30.3049 18.7973 28.2013 23.2008 26.9731 27.8797C22.9922 28.2793 19.7016 28.7888 17.9928 29.5611C19.2937 25.6867 21.2754 22.0768 23.8462 18.9L23.8461 18.9002ZM16.5746 44.8305C16.371 43.3239 16.2674 41.806 16.266 40.2861C16.2639 37.046 16.7297 33.8228 17.6472 30.7158C17.9651 30.107 21.1286 29.3706 26.7369 28.7892C25.1576 35.2377 24.9286 41.9427 26.0639 48.4832C20.1561 47.4382 16.7198 46.0837 16.7198 44.7935L16.5746 44.8305ZM16.8382 46.4668C18.4379 47.7028 21.8192 48.7028 26.2365 49.4659V49.4652C27.2175 54.8058 29.2703 59.8916 32.2718 64.4163C28.336 63.7441 25.5001 62.8801 24.0913 61.9894H24.092C20.3851 57.512 17.8911 52.1571 16.8474 46.4394L16.8382 46.4668ZM25.5818 63.6623L25.5825 63.6615C27.9907 64.5163 30.4783 65.1252 33.0082 65.4796C35.4028 68.8473 38.5862 71.5779 42.2797 73.4319C35.8863 71.8478 30.0901 68.4448 25.5917 63.6347L25.5818 63.6623ZM34.2711 65.6347C37.0619 66.0258 40.1522 66.2985 43.3608 66.462C44.5694 70.0974 46.0873 72.742 47.678 74.1507C42.5525 73.3143 37.9169 70.2327 34.2811 65.6066L34.2711 65.6347ZM50.3595 74.3411C48.105 74.3411 45.9964 71.3694 44.3424 66.4797C46.324 66.5706 48.3417 66.6157 50.3318 66.6157C52.3227 66.6157 54.3763 66.6157 56.3763 66.4797C54.7223 71.3688 52.6321 74.3411 50.3593 74.3411H50.3595ZM57.3673 66.4339C60.5577 66.2704 63.657 65.9885 66.457 65.5974C62.8213 70.2327 58.1765 73.3136 53.0593 74.1227C54.6865 72.714 56.1588 70.051 57.3673 66.4339ZM58.4308 73.3685C62.1256 71.5083 65.3111 68.7754 67.7113 65.4071C70.2489 65.0603 72.7438 64.4515 75.1554 63.589C70.6437 68.3977 64.8346 71.7949 58.4308 73.3685ZM77.6084 60.7082C77.3174 61.1022 77.0144 61.4841 76.6993 61.8534C75.3357 62.7624 72.473 63.6714 68.5188 64.3253H68.5195C71.473 59.8105 73.4885 54.7473 74.4456 49.4384C78.8628 48.6752 82.2442 47.6753 83.844 46.4393C82.901 51.6145 80.7663 56.5001 77.6086 60.7084L77.6084 60.7082ZM83.9708 44.803C83.9708 46.0932 80.5352 47.4476 74.6268 48.4926H74.6275C75.1074 45.7748 75.3513 43.0194 75.3548 40.2584C75.3611 36.3898 74.8946 32.5352 73.9636 28.7799C79.5903 29.3612 82.7623 30.1068 83.0533 30.7155C84.3972 35.2839 84.7594 40.0843 84.1167 44.8028L83.9708 44.803Z" fill="#0000FF"/>
<path d="M49.9043 51.6185L49.5499 51.1823C49.2497 50.8095 42.1785 41.9849 42.1785 37.8583C42.1785 35.0988 43.6507 32.5478 46.0411 31.1681C48.4315 29.7884 51.3765 29.7883 53.767 31.1681C56.1574 32.5478 57.6303 35.0988 57.6303 37.8583C57.6303 41.9842 50.5591 50.8096 50.2589 51.1823L49.9043 51.6185ZM49.9043 31.0424C48.0961 31.0424 46.3623 31.7604 45.0839 33.0386C43.8056 34.3169 43.0868 36.0511 43.0868 37.8587C43.0868 41.1672 48.4582 48.3013 49.9036 50.1645C51.349 48.3464 56.7205 41.1664 56.7205 37.8587C56.7275 36.0462 56.0129 34.3057 54.7338 33.0211C53.4547 31.7372 51.7167 31.0149 49.9041 31.0149L49.9043 31.0424ZM49.9043 40.7126C48.8966 40.7126 47.9305 40.3123 47.2171 39.5999C46.5046 38.8874 46.1044 37.9213 46.1044 36.9136C46.1044 35.9059 46.5046 34.9398 47.2171 34.2273C47.9303 33.5148 48.8965 33.1146 49.9043 33.1146C50.9114 33.1146 51.8782 33.5148 52.5908 34.2273C53.3033 34.9397 53.7036 35.9058 53.7036 36.9136C53.7036 37.9212 53.3033 38.8873 52.5908 39.5999C51.8784 40.3123 50.9115 40.7126 49.9043 40.7126ZM49.9043 34.0231C49.1376 34.0231 48.4026 34.3282 47.8599 34.8701C47.318 35.412 47.0135 36.147 47.0135 36.9136C47.0135 37.6803 47.318 38.4153 47.8599 38.9572C48.4026 39.4991 49.1376 39.8035 49.9043 39.8035C50.6704 39.8035 51.4061 39.4991 51.948 38.9572C52.49 38.4153 52.7944 37.6803 52.7944 36.9136C52.7965 36.1455 52.4935 35.4077 51.9509 34.8638C51.4089 34.3205 50.6725 34.0146 49.9043 34.0146L49.9043 34.0231Z" fill="#0000FF"/>
<path d="M50.3589 56.6172C45.7789 56.6172 41.3864 54.7977 38.148 51.559C34.9091 48.3211 33.0895 43.9287 33.0895 39.3483C33.0895 34.7685 34.9091 30.3764 38.148 27.1382C41.3862 23.8996 45.7789 22.0801 50.3589 22.0801C54.9398 22.0801 59.3322 23.8996 62.5706 27.1382C65.8095 30.3762 67.6291 34.7685 67.6291 39.3483C67.6291 43.9287 65.8095 48.3209 62.5706 51.559C59.3324 54.7977 54.9398 56.6172 50.3589 56.6172ZM50.3589 22.9893C46.0199 22.9893 41.8585 24.7129 38.7908 27.781C35.7224 30.8485 33.9988 35.0095 33.9988 39.3483C33.9988 43.6877 35.7225 47.8488 38.7908 50.9163C41.8585 53.9845 46.0199 55.708 50.3589 55.708C54.6987 55.708 58.8601 53.9843 61.9278 50.9163C64.9962 47.8488 66.7199 43.6877 66.7199 39.3483C66.7199 35.0095 64.9961 30.8485 61.9278 27.781C58.8601 24.7128 54.6987 22.9893 50.3589 22.9893Z" fill="#0000FF"/>
</svg>
