<svg width="61" height="61" viewBox="0 0 61 61" fill="none" xmlns="http://www.w3.org/2000/svg">
<mask id="mask0_527_622" style="mask-type:luminance" maskUnits="userSpaceOnUse" x="0" y="0" width="61" height="61">
<path d="M0.5 0.390625H60.5V60.3906H0.5V0.390625Z" fill="white"/>
</mask>
<g mask="url(#mask0_527_622)">
<path d="M26.4635 23.5084C29.6757 23.5084 31.3235 22.3082 31.3235 19.9681C31.3235 17.6282 29.6759 16.4279 26.4635 16.4279C23.2513 16.4279 21.6035 17.6281 21.6035 19.9681C21.6035 22.3085 23.2511 23.5084 26.4635 23.5084ZM11.9667 23.5084C15.1789 23.5084 16.8267 22.3082 16.8267 19.9681C16.8267 17.6282 15.1791 16.4279 11.9667 16.4279C8.7545 16.4279 7.10671 17.6281 7.10671 19.9681C7.10735 22.3085 8.67198 23.5084 11.9667 23.5084ZM49.1144 41.1484L47.4668 47.0286L45.8191 21.1688C45.8191 18.8289 44.1715 16.4889 40.9591 16.4889C37.7469 16.4889 36.0991 18.8288 36.0991 21.1688L34.4515 37.6691C31.2393 34.1288 24.7323 34.1288 21.52 38.8693C18.3077 36.5294 11.8008 37.6691 10.2355 41.2092C7.02333 40.009 0.516357 41.2092 0.516357 45.8892L0.518273 55.2487H57.0213L60.2335 41.1493C61.9628 35.2691 50.6791 34.0694 49.1137 41.1493L49.1144 41.1484ZM40.9598 12.8889C44.172 12.8889 45.8198 11.6887 45.8198 9.34867C45.8198 7.00874 44.1722 5.8084 40.9598 5.8084C37.7476 5.8084 36.0998 7.00862 36.0998 9.34867C36.1004 11.6886 37.7474 12.8889 40.9598 12.8889ZM26.4637 12.8889C29.6759 12.8889 31.3237 11.6887 31.3237 9.34867C31.3237 7.00874 29.676 5.8084 26.4637 5.8084C23.2515 5.8084 21.6037 7.00862 21.6037 9.34867C21.6037 11.6886 23.2513 12.8889 26.4637 12.8889ZM11.9669 12.8889C15.1791 12.8889 16.8269 11.6887 16.8269 9.34867C16.8269 7.00874 15.1792 5.8084 11.9669 5.8084C8.75467 5.8084 7.10687 7.00862 7.10687 9.34867C7.10751 11.6886 8.67214 12.8889 11.9669 12.8889ZM40.9598 2.32876C44.172 2.32876 45.8198 1.12854 45.8198 -1.21151C45.8198 -3.55144 44.1722 -4.75177 40.9598 -4.75177C37.7476 -4.75177 36.0998 -3.55156 36.0998 -1.21151C36.1004 1.1289 37.7474 2.32876 40.9598 2.32876ZM26.4637 2.32876C29.6759 2.32876 31.3237 1.12854 31.3237 -1.21151C31.3237 -3.55144 29.676 -4.75177 26.4637 -4.75177C23.2515 -4.75177 21.6037 -3.55156 21.6037 -1.21151C21.6037 1.1289 23.2513 2.32876 26.4637 2.32876ZM11.9669 2.32876C15.1791 2.32876 16.8269 1.12854 16.8269 -1.21151C16.8269 -3.55144 15.1792 -4.75177 11.9669 -4.75177C8.75467 -4.75177 7.10687 -3.55156 7.10687 -1.21151C7.10751 1.1289 8.67214 2.32876 11.9669 2.32876Z" fill="#0000FF"/>
</g>
</svg>
