<svg width="100" height="80" viewBox="0 0 100 80" fill="none" xmlns="http://www.w3.org/2000/svg">
<rect width="100" height="80" fill="white"/>
<path d="M51.5377 67.6567H47.994C47.5439 67.6567 47.1747 68.0249 47.1747 68.4737C47.1747 68.9226 47.5439 69.2907 47.994 69.2907H51.5377C51.9879 69.2907 52.357 68.9226 52.357 68.4737C52.3576 68.0249 51.9879 67.6567 51.5377 67.6567Z" fill="#0000FF"/>
<path d="M23.8098 48.4342H27.0192C27.308 48.4342 27.5851 48.2846 27.7233 48.0313L29.0276 45.8213C30.2627 46.5123 31.6829 46.9034 33.1951 46.9034C37.9279 46.9034 41.7834 43.0589 41.7834 38.3396C41.7834 35.9912 40.8371 33.8737 39.2901 32.3198L40.9175 29.5456H41.7604C42.2106 29.5456 42.5798 29.1774 42.5798 28.7286C42.5798 28.2798 42.2106 27.9116 41.7604 27.9116H40.4444C40.1555 27.9116 39.8785 28.0612 39.7402 28.3145L38.0089 31.2496C36.6355 30.3172 34.9733 29.7647 33.1952 29.7647C28.4624 29.7647 24.6069 33.6092 24.6069 38.3285C24.6069 40.9531 25.796 43.3011 27.6661 44.8779L26.5461 46.7887H23.8099C23.3598 46.7887 22.9906 47.1568 22.9906 47.6056C22.9906 48.0545 23.3598 48.4344 23.8099 48.4344L23.8098 48.4342ZM36.6577 35.1741C36.7847 35.2548 36.9348 35.289 37.0736 35.289C37.3506 35.289 37.6277 35.1393 37.7777 34.8861L38.4127 33.804C39.3129 34.8283 39.9019 36.106 40.0749 37.5337H34.0031V31.4792C35.1691 31.6176 36.2543 32.0434 37.1657 32.6878L36.3576 34.0691C36.1385 34.449 36.2655 34.9438 36.6577 35.1741ZM26.2572 38.3395C26.2572 34.7941 28.9354 31.8709 32.3751 31.468V38.3395C32.3751 38.7883 32.7443 39.1564 33.1944 39.1564H40.0856C39.6816 42.5863 36.7494 45.2569 33.1944 45.2569C31.9823 45.2569 30.8511 44.9459 29.8582 44.4052L31.1052 42.2871C31.3361 41.896 31.1973 41.4006 30.8163 41.1703C30.4241 40.94 29.9273 41.0784 29.6963 41.4583L28.5303 43.438C27.1344 42.184 26.2573 40.3651 26.2573 38.3396L26.2572 38.3395Z" fill="#0000FF"/>
<path d="M45.0034 52.5308H22.6544C22.2043 52.5308 21.8351 52.8989 21.8351 53.3477C21.8351 53.7966 22.2043 54.1647 22.6544 54.1647H45.0034C45.4536 54.1647 45.8228 53.7966 45.8228 53.3477C45.8228 52.8989 45.4536 52.5308 45.0034 52.5308Z" fill="#0000FF"/>
<path d="M45.0034 57.2627H22.6544C22.2043 57.2627 21.8351 57.6308 21.8351 58.0797C21.8351 58.5285 22.2043 58.8966 22.6544 58.8966H45.0034C45.4536 58.8966 45.8228 58.5285 45.8228 58.0797C45.8228 57.6308 45.4536 57.2627 45.0034 57.2627Z" fill="#0000FF"/>
<path d="M85.4991 24.8717C85.4991 24.7569 85.4991 24.6762 85.4873 24.6184C85.4063 17.781 81.8738 11.5539 76.0329 7.95169C74.7056 7.13471 73.2973 6.47855 71.8424 6.00621C67.3867 4.53307 62.4921 4.68268 58.1284 6.42088C52.7954 8.56193 48.6511 12.8894 46.7579 18.2649C46.3657 19.3699 46.0768 20.5097 45.8807 21.6607H20.1519C17.5894 21.6607 15.5 23.744 15.5 26.2993V70.3614C15.5 72.9165 17.5893 75 20.1519 75H79.3702C81.9327 75 84.0221 72.9167 84.0221 70.3614L84.0227 32.9868C84.0227 32.8601 83.9879 32.7335 83.9305 32.6298C84.8538 30.4199 85.4079 28.0143 85.4776 25.4704C85.5 25.2748 85.5 25.0675 85.5 24.8719L85.4991 24.8717ZM65.5635 6.62771C67.5259 6.62771 69.4652 6.93872 71.3236 7.56013C72.3048 7.88233 73.2628 8.33117 74.198 8.82652C74.0828 8.90722 73.9788 8.9991 73.8518 9.0798C72.9628 9.67826 71.9244 10.53 71.8894 11.8076C71.8776 12.6016 72.2586 13.2578 72.5705 13.7991L72.6857 13.9946C72.9858 14.4894 73.0898 14.8581 72.9976 15.0767C72.9397 15.2151 72.7785 15.3411 72.5817 15.4106C72.3396 15.4795 72.0395 15.4913 71.6467 15.4454C70.4694 15.2958 69.3263 14.6973 68.5301 13.8226L68.3913 13.6488C67.9294 13.1311 67.3062 12.4402 66.348 12.4402H66.3019C65.6899 12.4519 65.2286 12.7623 64.8588 13.0044C64.6397 13.1541 64.4317 13.2925 64.2817 13.3037C64.0738 13.3266 63.7967 13.0622 63.6355 12.7164C63.5315 12.4749 63.4506 12.1869 63.3702 11.8877C63.2893 11.5655 63.1966 11.2315 63.0702 10.9211C62.6661 9.90795 61.8119 9.25183 60.9118 9.24053C60.3577 9.24053 59.9076 9.47083 59.5384 9.6552C59.4344 9.70114 59.3423 9.75886 59.2383 9.80481C59.1461 9.83956 59.0652 9.86253 58.9961 9.87372C59.0079 9.85075 59.0191 9.82778 59.0309 9.79303C59.0888 9.68936 59.1698 9.58569 59.2389 9.4938C59.3777 9.29824 59.5277 9.10268 59.6311 8.87238C59.839 8.43475 59.8621 7.99768 59.7581 7.59479C61.6271 6.96101 63.5777 6.62761 65.5637 6.62761L65.5635 6.62771ZM58.1065 8.22744C58.0486 8.31933 57.9913 8.423 57.9216 8.50368C57.8176 8.6533 57.7025 8.80291 57.6097 8.9643C57.2405 9.59749 57.2287 10.2878 57.5636 10.8062C58.0829 11.6002 59.1338 11.612 59.884 11.2898C60.011 11.232 60.1492 11.1631 60.2762 11.1054C60.5184 10.9788 60.7382 10.8639 60.8882 10.8639C61.1074 10.8639 61.3844 11.1519 61.5344 11.5313C61.6384 11.7845 61.7075 12.049 61.7766 12.3141C61.8688 12.6592 61.9615 13.028 62.1346 13.3961C62.5965 14.4204 63.485 15.0307 64.4318 14.9387C64.9859 14.881 65.413 14.6047 65.7591 14.3744C65.9783 14.236 66.198 14.0864 66.325 14.0752C66.5442 14.0752 66.8791 14.4433 67.1443 14.7425L67.3062 14.9151C68.3683 16.0778 69.8686 16.8606 71.427 17.0562C71.6579 17.0909 71.8659 17.1021 72.0732 17.1021C72.4312 17.1021 72.7543 17.0562 73.0662 16.9637C73.7473 16.7452 74.2783 16.2728 74.5093 15.6861C74.9482 14.6158 74.3014 13.522 74.0934 13.1651L73.9901 12.9583C73.7479 12.5554 73.5281 12.1643 73.5281 11.8415C73.5399 11.312 74.1974 10.8054 74.7751 10.4255C75.11 10.1952 75.4214 9.95372 75.7102 9.70044C80.7548 13.0502 83.7906 18.5865 83.8597 24.6869V24.8713C83.8597 25.0209 83.8597 25.1705 83.8479 25.3661C83.5939 35.3111 75.5715 43.1034 65.5637 43.1155C63.6704 43.1155 61.812 42.8163 60.0347 42.252C59.9308 41.7113 59.8616 41.1588 59.9886 40.6634C60.1848 39.8464 60.8428 39.1555 61.5356 38.4186L61.6857 38.2572C62.5629 37.3248 63.452 36.1851 63.452 34.7579C63.4289 32.6857 61.5127 31.2932 59.8852 30.7289C59.3193 30.5334 58.7422 30.3949 58.1881 30.2571C57.2181 30.0156 56.3067 29.7965 55.5328 29.3247C55.5097 29.3129 55.4867 29.3017 55.4637 29.2899C55.5789 29.1863 55.6828 29.0484 55.7638 28.8753C56.0059 28.2998 55.7407 27.9317 55.6249 27.7932C55.544 27.7125 55.4631 27.6436 55.3827 27.5977C55.7177 27.517 56.0638 27.4021 56.3988 27.2066C57.1608 26.7348 57.5879 25.9631 57.8992 25.3995L58.9382 23.5576C59.1231 23.2236 59.6884 22.2111 59.1231 21.3359C58.8691 20.9448 58.5112 20.7486 58.1532 20.645C58.3493 20.6567 58.5803 20.645 58.8225 20.5531C59.2147 20.4035 59.4917 20.0695 59.5726 19.6554C59.7227 18.8496 59.0995 17.9402 58.6724 17.5602C58.0144 16.9617 57.172 16.7662 56.5943 16.6737C54.3662 16.3168 52.1965 16.7656 50.0953 17.2032L48.895 17.4565C50.696 13.3499 53.9857 10.0697 58.1071 8.22776L58.1065 8.22744ZM48.1672 19.2427L50.4066 18.7821C52.3577 18.3792 54.3774 17.9534 56.3055 18.2644C56.8826 18.3563 57.2866 18.5177 57.5406 18.748C57.5525 18.7597 57.5525 18.7597 57.5637 18.7709C57.2748 18.6902 56.9405 18.6325 56.5825 18.7362C56.0054 18.8858 55.5092 19.3346 55.3013 19.9101C55.1164 20.3937 55.1624 20.9114 55.4401 21.3261C55.8902 21.9935 56.6292 22.0742 57.1714 22.1319C57.3563 22.1549 57.6564 22.1778 57.7024 22.1896C57.7024 22.2014 57.7143 22.351 57.4833 22.7769L56.4442 24.6188C56.1442 25.1713 55.8783 25.6089 55.521 25.8274C55.2669 25.977 54.9208 26.0459 54.551 26.1266C54.2279 26.1956 53.916 26.2533 53.6159 26.3682C52.8539 26.6326 51.7687 27.6805 51.8267 28.5781C51.8615 29.0729 52.2077 29.4528 52.7039 29.5683C52.9927 29.626 53.3158 29.603 53.6271 29.5335C53.7541 30.0171 54.1121 30.4312 54.6774 30.7652C55.6586 31.3524 56.7437 31.6287 57.7828 31.8819C58.325 32.0204 58.8449 32.1464 59.3411 32.3196C60.5645 32.7454 61.7997 33.6779 61.8115 34.8058C61.8115 35.6575 61.1534 36.4863 60.4954 37.1772L60.3565 37.3269C59.5833 38.1438 58.7061 39.0763 58.4055 40.3197C58.2903 40.7686 58.2785 41.2174 58.3133 41.655C51.6525 38.7888 47.2664 32.2277 47.2664 24.9069C47.2552 22.9373 47.5671 21.0494 48.1673 19.2423L48.1672 19.2427ZM79.3808 73.3882H20.1504C18.4881 73.3882 17.1377 72.0417 17.1377 70.3841V63.5698H82.3928V70.3841C82.3928 72.0299 81.0425 73.3882 79.3802 73.3882H79.3808ZM82.3935 61.9353H17.1383V26.3098C17.1383 24.6523 18.4887 23.3058 20.151 23.3058H45.6741C45.6281 23.8235 45.605 24.353 45.605 24.8826C45.605 33.3657 51.0077 40.9281 59.0649 43.68C61.143 44.3939 63.3246 44.762 65.5988 44.762C72.6979 44.7502 78.8738 41.1019 82.395 35.5768L82.3935 61.9353Z" fill="#0000FF"/>
<path d="M72.119 24.4346C72.4652 24.619 72.8119 24.6072 73.0311 24.596H73.1929C73.3199 24.6078 73.5391 24.7574 73.724 24.8953C73.897 25.0219 74.0701 25.1368 74.2432 25.2292C74.7164 25.4825 75.1895 25.6091 75.6402 25.6091C76.0325 25.6091 76.4253 25.5172 76.7833 25.3211C77.6262 24.8605 78.1915 23.9169 78.2145 22.9156C78.2376 22.0291 77.8566 21.1314 77.1873 20.464C76.6332 19.9115 76.1252 19.8656 75.779 19.9233C75.629 19.9463 75.5138 19.9922 75.4211 20.0382C75.4093 20.0264 75.398 20.0264 75.398 20.0152L75.2592 19.9233C74.8321 19.6818 74.3359 19.5781 73.874 19.6588C73.343 19.7395 72.881 20.0388 72.5927 20.4646C72.4309 20.7061 72.3505 20.9594 72.2927 21.1667C72.2696 21.2474 72.2466 21.3393 72.2117 21.4082C72.1657 21.5119 72.0729 21.6268 71.9808 21.7534L71.8656 21.903C71.6807 22.1563 71.4615 22.5132 71.4036 22.9621C71.3227 23.5829 71.611 24.1696 72.119 24.4346ZM73.1929 22.869L73.2851 22.7424C73.4121 22.5698 73.5621 22.3624 73.6891 22.1092C73.7583 21.9707 73.8043 21.8099 73.851 21.6603C73.8858 21.5455 73.9201 21.43 73.955 21.3723C73.978 21.3263 74.0471 21.2916 74.1168 21.2804C74.209 21.2686 74.3247 21.2922 74.509 21.407C74.7052 21.5337 75.0283 21.7292 75.4672 21.7063C75.6751 21.6945 75.8364 21.6373 75.9752 21.5678L76.0213 21.6138C76.3792 21.9707 76.5754 22.4425 76.5754 22.8802C76.5635 23.306 76.3332 23.7089 75.9982 23.8933C75.8943 23.951 75.5942 24.1118 75.0171 23.8014C74.9019 23.7437 74.7861 23.6518 74.6709 23.5711C74.3247 23.3296 73.9089 23.0304 73.3318 22.9727C73.2626 22.9609 73.2048 22.9609 73.1356 22.9609H73.1126C73.1463 22.9379 73.1581 22.9037 73.1929 22.869Z" fill="#0000FF"/>
<path d="M61.4654 22.3385C61.6385 22.7644 61.8464 23.2939 62.3314 23.662C62.7703 23.996 63.2547 24.0997 63.6475 24.1916C63.8666 24.2375 64.0633 24.2835 64.2016 24.353C64.5595 24.5255 64.7557 25.0321 64.6174 25.3891C64.5713 25.5157 64.5022 25.6423 64.4325 25.7572C64.2364 26.1141 63.9824 26.563 64.0167 27.1384C64.0515 27.645 64.2937 28.0361 64.4898 28.3471C64.5707 28.4738 64.6978 28.6811 64.709 28.7382C64.6972 28.773 64.6511 28.8649 64.628 28.9226C64.4892 29.1759 64.2701 29.6135 64.4201 30.1425C64.5932 30.7179 65.1473 31.0978 65.8632 31.1438C65.9211 31.1438 65.9902 31.1556 66.0481 31.1556C67.2833 31.1556 68.4494 30.3957 68.9225 29.2565C69.0956 28.8536 69.1647 28.4507 69.2226 28.0826C69.2575 27.8523 69.3036 27.622 69.3727 27.4035C69.4766 27.0925 69.6615 26.7703 69.8458 26.4363C69.9498 26.2637 70.0419 26.0911 70.1347 25.9185C70.5848 25.0668 70.7236 24.3069 70.5505 23.6166C70.3544 22.8108 69.7773 22.2235 69.3502 21.7978L67.7801 20.2321C67.5609 20.0136 67.1681 19.6219 66.568 19.5759C66.1988 19.553 65.8987 19.6678 65.6789 19.7603C65.6211 19.7833 65.5289 19.818 65.494 19.8292C65.4131 19.8292 65.1591 19.6678 64.963 19.53C64.2819 19.0812 63.2199 18.7242 62.3196 19.0352C61.9038 19.1848 61.3497 19.5188 61.0727 20.3476C60.8417 21.0267 61.1305 21.6022 61.3149 22.005C61.3733 22.1081 61.4193 22.2237 61.4654 22.3385ZM62.8624 20.5773C62.9203 20.5543 62.9894 20.5425 63.0585 20.5425C63.3474 20.5425 63.7514 20.681 64.1319 20.9337C64.5129 21.1869 65.0321 21.5209 65.702 21.4402C65.9442 21.4055 66.1521 21.3254 66.314 21.2559C66.3601 21.2329 66.4292 21.2099 66.4179 21.1869C66.4758 21.2217 66.5798 21.3366 66.6259 21.3713L68.196 22.937C68.577 23.3169 68.8771 23.6391 68.958 23.9613C69.0271 24.2493 68.935 24.6522 68.681 25.1352C68.6001 25.2848 68.5191 25.4344 68.427 25.584C68.196 25.9752 67.965 26.3898 67.815 26.8734C67.7229 27.1614 67.665 27.4607 67.6189 27.7711C67.561 28.0703 67.5149 28.3583 67.4228 28.588C67.2148 29.0716 66.6956 29.4398 66.1646 29.4857C66.2224 29.3591 66.2797 29.2212 66.3146 29.0598C66.4646 28.3807 66.1297 27.8512 65.8875 27.4713C65.7836 27.3099 65.6684 27.1143 65.6566 27.0224C65.6447 26.9306 65.7717 26.7114 65.8645 26.5389C65.9797 26.3433 66.0836 26.1477 66.1646 25.9404C66.5917 24.7777 66.0376 23.3964 64.9176 22.8557C64.5945 22.7061 64.2714 22.6372 63.9943 22.5677C63.7173 22.51 63.4751 22.4528 63.3362 22.3492C63.2092 22.2573 63.1053 21.981 63.0013 21.716C62.9434 21.5663 62.8861 21.4167 62.8052 21.2553C62.7473 21.1405 62.6321 20.8984 62.6433 20.8407C62.7125 20.6351 62.8045 20.6003 62.8624 20.5773Z" fill="#0000FF"/>
<path d="M54.0768 46.7075H50.383C49.9329 46.7075 49.5637 47.0757 49.5637 47.5245V58.0909C49.5637 58.5397 49.9329 58.9079 50.383 58.9079H54.0768C54.5269 58.9079 54.8961 58.5397 54.8961 58.0909V47.5245C54.8961 47.0645 54.5381 46.7075 54.0768 46.7075ZM53.2569 57.2628H51.2136V48.3309H53.2569V57.2628Z" fill="#0000FF"/>
<path d="M61.7649 52.7495H58.0711C57.621 52.7495 57.2518 53.1176 57.2518 53.5665V58.0784C57.2518 58.5272 57.621 58.8954 58.0711 58.8954H61.7649C62.215 58.8954 62.5842 58.5272 62.5842 58.0784V53.5665C62.5848 53.1182 62.215 52.7495 61.7649 52.7495ZM60.9456 57.262H58.9023V54.3847H60.9456V57.262Z" fill="#0000FF"/>
<path d="M69.453 50.1484H65.7593C65.3091 50.1484 64.9399 50.5166 64.9399 50.9654V58.079C64.9399 58.5279 65.3091 58.896 65.7593 58.896H69.453C69.9031 58.896 70.2723 58.5279 70.2723 58.079V50.9654C70.2729 50.5166 69.9031 50.1484 69.453 50.1484ZM68.6337 57.2621H66.5792V51.783H68.6337V57.2621Z" fill="#0000FF"/>
<path d="M77.1411 53.3604H73.4474C72.9972 53.3604 72.6281 53.7285 72.6281 54.1773V58.0796C72.6281 58.5284 72.9972 58.8966 73.4474 58.8966H77.1411C77.5912 58.8966 77.9604 58.5284 77.9604 58.0796V54.1773C77.9604 53.7285 77.5912 53.3604 77.1411 53.3604ZM76.3212 57.2626H74.2785V54.9949H76.333V57.2626H76.3212Z" fill="#0000FF"/>
</svg>
