<svg width="37" height="37" viewBox="0 0 37 37" fill="none" xmlns="http://www.w3.org/2000/svg">
<g clip-path="url(#clip0_1187_3646)">
<path d="M18.5 3.12305C10.22 3.12305 3.5 9.84305 3.5 18.123C3.5 26.403 10.22 33.123 18.5 33.123C26.78 33.123 33.5 26.403 33.5 18.123C33.5 9.84305 26.78 3.12305 18.5 3.12305ZM17 30.018C11.075 29.283 6.5 24.243 6.5 18.123C6.5 17.193 6.62 16.308 6.815 15.438L14 22.623V24.123C14 25.773 15.35 27.123 17 27.123V30.018ZM27.35 26.208C26.96 24.993 25.85 24.123 24.5 24.123H23V19.623C23 18.798 22.325 18.123 21.5 18.123H12.5V15.123H15.5C16.325 15.123 17 14.448 17 13.623V10.623H20C21.65 10.623 23 9.27305 23 7.62305V7.00805C27.395 8.79305 30.5 13.098 30.5 18.123C30.5 21.243 29.3 24.078 27.35 26.208Z" fill="#4979D1"/>
</g>
<defs>
<clipPath id="clip0_1187_3646">
<rect width="36" height="36" fill="white" transform="translate(0.5 0.123047)"/>
</clipPath>
</defs>
</svg>
