<svg width="37" height="36" viewBox="0 0 37 36" fill="none" xmlns="http://www.w3.org/2000/svg">
<path d="M6.5 31.5C5.675 31.5 4.96875 31.2063 4.38125 30.6188C3.79375 30.0313 3.5 29.325 3.5 28.5V12C3.5 11.175 3.79375 10.4688 4.38125 9.88125C4.96875 9.29375 5.675 9 6.5 9H12.5V6C12.5 5.175 12.7938 4.46875 13.3813 3.88125C13.9688 3.29375 14.675 3 15.5 3H21.5C22.325 3 23.0312 3.29375 23.6188 3.88125C24.2063 4.46875 24.5 5.175 24.5 6V9H30.5C31.325 9 32.0313 9.29375 32.6188 9.88125C33.2063 10.4688 33.5 11.175 33.5 12V28.5C33.5 29.325 33.2063 30.0313 32.6188 30.6188C32.0313 31.2063 31.325 31.5 30.5 31.5H6.5ZM15.5 9H21.5V6H15.5V9ZM18.5 23.25C19.325 23.25 20.0312 22.9563 20.6188 22.3688C21.2063 21.7812 21.5 21.075 21.5 20.25C21.5 19.425 21.2063 18.7188 20.6188 18.1313C20.0312 17.5438 19.325 17.25 18.5 17.25C17.675 17.25 16.9688 17.5438 16.3813 18.1313C15.7938 18.7188 15.5 19.425 15.5 20.25C15.5 21.075 15.7938 21.7812 16.3813 22.3688C16.9688 22.9563 17.675 23.25 18.5 23.25Z" fill="#4979D1"/>
</svg>
