<svg width="70" height="70" viewBox="0 0 70 70" fill="none" xmlns="http://www.w3.org/2000/svg">
<path d="M45.0252 4.88343C45.5153 4.88343 45.9139 4.48612 45.9139 3.99771V0.885719C45.9139 0.397312 45.5153 0 45.0252 0H0.888701C0.398648 0 0 0.397312 0 0.885719V3.99771C0 4.48612 0.398648 4.88343 0.888701 4.88343H45.0252Z" fill="#0000FF"/>
<path d="M16.625 25.3626V16.8488C12.4081 17.4169 9.14261 21.0192 9.14261 25.3746C9.14261 30.1232 13.0198 33.9874 17.7844 33.9874C22.1557 33.9874 25.7708 30.7315 26.3396 26.527H17.7933C17.1488 26.5276 16.625 26.0056 16.625 25.3626Z" fill="#0000FF"/>
<path d="M32.2505 34.7884C32.2505 28.3228 37.1347 22.9815 43.4183 22.2151V7.21228H2.49435V37.4931C2.49435 39.113 3.81539 40.4289 5.44012 40.4289H33.5925C32.7417 38.7276 32.251 36.8165 32.251 34.7891L32.2505 34.7884ZM28.7618 25.4176C28.7378 31.43 23.8234 36.3159 17.7852 36.3159C11.732 36.3159 6.80626 31.4067 6.80626 25.3738C6.80626 19.341 11.732 14.4318 17.7852 14.4318C17.787 14.4318 17.7882 14.433 17.79 14.433C17.7918 14.433 17.793 14.4318 17.7948 14.4318C18.44 14.4318 18.9637 14.9537 18.9637 15.5968V24.1974H27.6055C28.2507 24.1974 28.7745 24.7194 28.7745 25.3624C28.7733 25.381 28.763 25.3978 28.7618 25.4176ZM30.5128 22.0689C30.2939 22.287 29.9969 22.4099 29.6866 22.4099L21.9305 22.4051C21.2853 22.4051 20.7616 21.8831 20.7616 21.2401L20.7568 13.51C20.7568 13.202 20.8801 12.9047 21.0989 12.6866C21.3178 12.4685 21.6148 12.3456 21.9251 12.3456C26.849 12.3456 30.8543 16.3374 30.8543 21.2448C30.8549 21.5547 30.7317 21.8501 30.5128 22.0689Z" fill="#0000FF"/>
<path d="M23.0947 14.7802L23.0995 20.0777L28.4149 20.0825C27.9291 17.3899 25.7956 15.2637 23.0947 14.7802Z" fill="#0000FF"/>
<path d="M44.9759 66.5864L47.1477 63.3851L44.9759 56.403L42.8047 63.3851L44.9759 66.5864Z" fill="#0000FF"/>
<path d="M44.9729 47.4787C44.2874 47.4787 43.6326 47.432 42.9784 47.3235L44.9729 50.3516L46.983 47.3235C46.3282 47.4164 45.6584 47.4787 44.9729 47.4787Z" fill="#0000FF"/>
<path d="M34.5872 34.7883C34.5872 40.503 39.2436 45.151 44.9684 45.151C50.7023 45.151 55.3659 40.5024 55.3659 34.7883C55.3659 29.0827 50.7017 24.4407 44.9684 24.4407C39.2436 24.4407 34.5872 29.0827 34.5872 34.7883Z" fill="#0000FF"/>
<path d="M50.0926 46.8558L46.2563 52.6507L49.5472 63.2315C49.6524 63.5683 49.5977 63.9351 49.3981 64.2281L45.9437 69.3196C45.7261 69.6396 45.3641 69.832 44.9756 69.832C44.5878 69.832 44.2252 69.6396 44.0076 69.3196L40.5532 64.2281C40.3536 63.9357 40.2989 63.5683 40.4041 63.2315L43.695 52.6507L39.8558 46.8499C28.9099 49.1259 20.5375 58.5608 19.9557 70H70C69.4167 58.5694 61.0443 49.1419 50.0937 46.856L50.0926 46.8558Z" fill="#0000FF"/>
</svg>
