<svg width="70" height="70" viewBox="0 0 70 70" fill="none" xmlns="http://www.w3.org/2000/svg">
<path d="M50.1575 35H62.5068L65.6706 38.1644L67.3184 36.5163L63.819 33.0162C63.6002 32.7974 63.3085 32.681 62.9879 32.681H49.9389C48.8016 26.6002 43.509 22.1958 37.3269 22.1812H36.1606V8.64809L40.4913 4.31661L38.8435 2.66846L34.1778 7.33502C33.959 7.55386 33.8427 7.84562 33.8427 8.16634V22.1662H32.6764C25.5902 22.1662 19.8456 27.912 19.8456 35.0139C19.8456 36.1949 20.0059 37.3764 20.3265 38.4996H8.66257L4.33194 34.1681L2.68411 35.8163L7.34976 40.4828C7.56856 40.7017 7.86026 40.818 8.18092 40.818H21.245C23.4323 45.1055 27.8496 47.8176 32.6757 47.8176H33.842V61.3364L31.8447 63.3341L33.4925 64.9823L35.825 62.6493C36.0438 62.4305 36.1601 62.1387 36.1601 61.818V47.8181H37.3264C44.4132 47.8181 50.1433 42.0869 50.1578 34.9999L50.1575 35ZM35.3877 42.6995L34.615 40.4974C35.5336 40.1767 36.3648 39.6076 37.0204 38.8788L38.7557 40.4389C37.8371 41.4601 36.6709 42.2474 35.3877 42.6995ZM40.8116 44.9017C42.5028 43.5019 43.815 41.7078 44.6172 39.6666H46.7316C45.5063 42.1165 43.3918 43.983 40.8116 44.9017ZM45.2729 32.6663H47.5476C47.8978 34.1975 47.8978 35.8017 47.5476 37.3329H45.2729C45.5646 35.7871 45.5646 34.2119 45.2729 32.6663ZM46.7309 30.3333H44.6164C43.8148 28.2915 42.502 26.498 40.8108 25.0983C43.3916 26.0164 45.5061 27.8834 46.7307 30.3333H46.7309ZM30.7223 29.502L29.9496 27.2999C34.2072 25.7976 38.873 28.0293 40.3743 32.2871C41.0011 34.0516 41.0011 35.9621 40.3743 37.7266L38.1726 36.9537C39.237 33.9058 37.6476 30.5811 34.6003 29.502C33.3466 29.0499 31.976 29.0499 30.7223 29.502Z" fill="#0000FF"/>
<path d="M3.49955 30.333H18.2254C19.115 27.5913 20.7622 25.1709 22.9784 23.3335L9.33146 23.3329V24.4994H6.99893V23.3329H4.66581V20.9999H6.99834V19.8334H9.33087V20.9999H26.8271C27.9499 20.5333 29.1162 20.1981 30.3265 20.0082L30.327 3.50007C30.327 1.57523 28.7521 0 26.8276 0H3.49939C1.57492 0 0 1.57523 0 3.50007V26.8329C0 28.7577 1.57492 30.333 3.49939 30.333L3.49955 30.333ZM11.6646 8.09392C11.6646 7.45249 12.1896 6.92741 12.8309 6.92741C13.0786 6.92741 13.3118 7.00035 13.5017 7.14624L18.488 10.7192C19.013 11.0984 19.1293 11.8273 18.7652 12.3524C18.6923 12.4543 18.6049 12.5417 18.488 12.6297L13.5017 16.1877C12.9767 16.5669 12.248 16.4355 11.8688 15.9104C11.723 15.7061 11.65 15.4728 11.65 15.2395V8.09395L11.6646 8.09392Z" fill="#0000FF"/>
<path d="M27.9954 65.3324C27.9954 66.6159 26.9455 67.6654 25.6629 67.6654C24.3797 67.6654 23.3304 66.6153 23.3304 65.3324V54.8327C23.3304 52.9078 21.7554 51.3326 19.831 51.3326H9.33266V47.8325C9.33266 47.1911 9.85763 46.666 10.4989 46.666H22.1629V44.333H10.4995C8.57507 44.333 7.00015 45.9082 7.00015 47.8331V51.3332L3.50076 51.3326C1.5763 51.3326 0.00137329 52.9078 0.00137329 54.8327V66.6447C0.00137329 68.4967 1.5034 69.999 3.35496 69.999H25.6623C28.2432 69.999 30.328 67.9138 30.328 65.3324L30.3285 50.1655H27.996L27.9954 65.3324Z" fill="#0000FF"/>
<path d="M65.7423 1.07968C63.4242 0.379188 60.3768 0 57.1547 0C53.9325 0 50.8852 0.379189 48.5671 1.07908C45.753 1.92545 44.3244 3.13538 44.3244 4.6666V22.1662H46.657V21.5248C47.2693 21.8166 47.9106 22.0643 48.5671 22.2542C50.8707 22.9541 53.918 23.3333 57.1547 23.3333C60.3914 23.3333 63.4242 22.9541 65.7423 22.2542C66.3987 22.0649 67.04 21.8166 67.6524 21.5248V25.6519C67.4481 26.3084 63.9493 28 57.1547 28C55.2736 28.0145 53.3787 27.8541 51.5265 27.5479L51.1329 29.852C53.1303 30.1871 55.1423 30.3475 57.1692 30.333C60.3913 30.333 63.4386 29.9538 65.7568 29.254C68.5709 28.4082 69.9994 27.1977 69.9994 25.6664L70 4.6663C69.9855 3.13508 68.5565 1.92517 65.7424 1.07938L65.7423 1.07968ZM67.6524 18.6519C67.4631 19.3084 63.9636 21 57.1547 21C50.3457 21 46.8463 19.3085 46.657 18.6519V14.5248C47.2693 14.8166 47.9106 15.0643 48.5671 15.2542C50.8707 15.9541 53.918 16.3333 57.1547 16.3333C60.3914 16.3333 63.4242 15.9541 65.7423 15.2542C66.3987 15.0649 67.04 14.8166 67.6524 14.5248V18.6519ZM67.6524 11.6524C67.4631 12.3089 63.9636 14.0005 57.1547 14.0005C50.3457 14.0005 46.8463 12.3089 46.657 11.6524V7.52525C47.2693 7.81703 47.9106 8.0648 48.5671 8.25469C50.8852 8.95402 53.9325 9.33319 57.1547 9.33319C60.3768 9.33319 63.4242 8.954 65.7423 8.25411C66.3987 8.06481 67.04 7.81645 67.6524 7.52468V11.6524Z" fill="#0000FF"/>
<path d="M66.4861 39.667H51.7603C49.9962 45.1064 45.316 49.1021 39.6588 49.9919V66.5C39.6588 68.4249 41.2337 70.0001 43.1582 70.0001H66.4864C68.4109 70.0001 69.9858 68.4249 69.9858 66.5L69.9852 43.1672C69.9852 41.2424 68.4103 39.6677 66.4858 39.6677L66.4861 39.667ZM54.8221 45.5001C59.9688 45.5001 64.1536 49.6856 64.1536 54.8333H59.6338L46.1327 51.4502C47.5172 47.8627 50.9726 45.5002 54.8223 45.5002L54.8221 45.5001ZM54.8221 64.166C49.6755 64.1805 45.5052 60.01 45.4907 54.8618C45.4907 54.4826 45.5196 54.1034 45.5636 53.7242L54.822 56.0428L54.8221 64.166ZM58.7151 65.8576L57.9134 63.6698C60.4358 62.7511 62.3459 60.6363 63.0166 58.0406L65.2769 58.6241C64.4156 61.9638 61.9661 64.676 58.7151 65.8576Z" fill="#0000FF"/>
</svg>
